<?xml version="1.0" encoding="UTF-8"?>
<svg width="128px" height="24px" viewBox="0 0 128 24" version="1.1" xmlns="http://www.w3.org/2000/svg" xmlns:xlink="http://www.w3.org/1999/xlink">
    <title>Logo</title>
    <g id="Page-1" stroke="none" stroke-width="1" fill="none" fill-rule="evenodd">
        <g id="1.0---Footer---Five-Columns" transform="translate(-191.000000, -63.000000)">
            <g id="LandingPage/Content" transform="translate(30.000000, -1113.000000)">
                <g id="Universal/Footer" transform="translate(0.000000, 1112.000000)">
                    <g id="Logo" transform="translate(161.500000, 64.000000)">
                        <g id="Group" transform="translate(0.000000, 0.085920)">
                            <path d="M21.5199142,10.4902343 C21.5242073,6.13392516 18.5852877,2.32463943 14.3704524,1.22345317 C10.1556172,0.122266911 5.72900093,2.00720059 3.60190249,5.80889753 C1.47480404,9.61059446 2.1842596,14.3692265 5.3277823,17.3851364 L5.3277823,20.7943152 C5.3277823,22.0137695 6.31634534,23.0023325 7.53579964,23.0023325 C8.75525395,23.0023325 9.74381699,22.0137695 9.74381699,20.7943152 C9.74381703,22.0137695 10.7323801,23.0023325 11.9518343,23.0023325 C13.1712886,23.0023325 14.1598516,22.0137695 14.1598517,20.7943152 C14.1598517,22.0137695 15.1484147,23.0023325 16.367869,23.0023325 C17.5873233,23.0023325 18.5758864,22.0137695 18.5758864,20.7943152 L18.5758864,17.3851364 C20.4577328,15.5853858 21.5214487,13.0941632 21.5199142,10.4902343 L21.5199142,10.4902343 Z" id="Path" fill="#A7F3D0"></path>
                            <path d="M2.80623204,5.36370966 L2.69592307,5.56599732 C0.574126424,9.55992055 1.25935294,14.4598003 4.37170898,17.7175218 L4.41589758,17.7627514 L4.41603469,20.7943152 C4.41603469,22.5173138 5.81280104,23.9140802 7.53579964,23.9140802 L7.66767649,23.9113432 C8.4548603,23.8786085 9.16670359,23.554185 9.69795587,23.0433233 L9.74354276,22.9967905 L9.78967815,23.0433233 C10.3504444,23.5825662 11.1124248,23.9140802 11.9518343,23.9140802 L12.0837112,23.9113432 C12.870895,23.8786085 13.5827383,23.554185 14.1139905,23.0433233 L14.1600482,22.9973984 L14.2057128,23.0433233 C14.7664791,23.5825663 15.5284594,23.9140802 16.367869,23.9140802 L16.4997459,23.9113432 C18.1615784,23.8422366 19.487634,22.4731344 19.487634,20.7943152 L19.4870855,17.7633593 L19.5709972,17.6773202 C21.4048685,15.7408665 22.433241,13.1697683 22.4316668,10.489697 C22.4363636,5.71970798 19.2173919,1.54743423 14.6009236,0.34131556 C9.98445413,-0.864803394 5.13602297,1.19974675 2.80623204,5.36370966 Z M14.1399813,2.10559078 C17.9531818,3.10184418 20.6120511,6.54814057 20.6081713,10.4893357 C20.6095545,12.8456531 19.6475751,15.0986061 17.9457163,16.7262211 C17.7658648,16.8982266 17.6641388,17.136274 17.6641388,17.3851364 L17.6641388,20.7943152 C17.6641388,21.5102252 17.083779,22.0905849 16.367869,22.0905849 C15.6830855,22.0905849 15.1223216,21.5595942 15.074854,20.8868895 L15.0715993,20.7943152 C15.0715993,19.6124202 13.3480024,19.5795897 13.252247,20.6958239 L13.2481041,20.7943152 C13.2481041,21.5102252 12.6677443,22.0905849 11.9518343,22.0905849 C11.2670509,22.0905849 10.7062869,21.5595942 10.6588193,20.8868895 L10.6555646,20.7943152 C10.6555646,19.6124201 8.93196765,19.5795897 8.83621227,20.6958239 L8.83206938,20.7943152 C8.83206938,21.5102252 8.25170965,22.0905849 7.53579964,22.0905849 C6.81988964,22.0905849 6.2395299,21.5102252 6.2395299,20.7943152 L6.2395299,17.3851364 C6.2395299,17.1367743 6.13821121,16.8991607 5.95899262,16.7272176 C3.11501808,13.9986955 2.47316697,9.69351636 4.39757293,6.2540854 C6.3219789,2.81465444 10.3267802,1.10933722 14.1399813,2.10559078 Z" id="Path" fill="#7C3AED" fill-rule="nonzero"></path>
                            <circle id="Oval" fill="#6EE7B7" cx="7.37458712" cy="10.6317418" r="2.20801735"></circle>
                            <path d="M7.53579964,7.67438517 C5.98064914,7.67438517 4.71995056,8.93508375 4.71995056,10.4902343 C4.71995056,12.0453848 5.98064914,13.3060833 7.53579964,13.3060833 C9.09095015,13.3060833 10.3516487,12.0453848 10.3516487,10.4902343 C10.3516487,8.93508375 9.09095015,7.67438517 7.53579964,7.67438517 Z M7.53579964,8.89004865 C8.41955775,8.89004865 9.13598525,9.60647615 9.13598525,10.4902343 C9.13598525,11.3739924 8.41955775,12.0904199 7.53579964,12.0904199 C6.65204154,12.0904199 5.93561404,11.3739924 5.93561404,10.4902343 C5.93561404,9.60647615 6.65204154,8.89004865 7.53579964,8.89004865 Z" id="Oval" fill="#7C3AED" fill-rule="nonzero"></path>
                            <path d="M12.60921,15.034443 C13.2580537,15.034443 13.7928206,15.2690905 13.8659054,15.5713887 L13.8744174,15.6422747 L13.8744174,17.1142863 C13.8744174,17.4499825 13.3079647,17.722118 12.60921,17.722118 C11.9603663,17.722118 11.4255994,17.4874706 11.3525146,17.1851723 L11.3440026,17.1142863 L11.3440026,15.6422747 C11.3440026,15.3065785 11.9104552,15.034443 12.60921,15.034443 Z" id="Path" fill="#7C3AED" fill-rule="nonzero"></path>
                            <path d="M1.73905626,0.277456178 C2.09511584,-0.0786034108 2.6724025,-0.0786034108 3.02846209,0.277456178 C3.36226795,0.611262042 3.38313082,1.13950576 3.09105069,1.49761635 L3.02846209,1.56686201 L1.55645052,3.03887357 C1.20039093,3.39493316 0.62310428,3.39493316 0.267044691,3.03887357 C-0.0667611728,2.70506771 -0.0876240393,2.17682399 0.204456092,1.8187134 L0.267044691,1.74946774 L1.73905626,0.277456178 Z" id="Path" fill="#7C3AED" fill-rule="nonzero"></path>
                            <path d="M1.00305047,1.01346196 C1.33685634,0.679656095 1.86510005,0.658793229 2.22321065,0.95087336 L2.2924563,1.01346196 L5.13932667,3.86033232 C5.49538626,4.21639191 5.49538626,4.79367857 5.13932667,5.14973815 C4.8055208,5.48354402 4.27727709,5.50440689 3.91916649,5.21232675 L3.84992084,5.14973815 L1.00305047,2.30286779 C0.646990885,1.9468082 0.646990885,1.36952155 1.00305047,1.01346196 Z" id="Path" fill="#7C3AED" fill-rule="nonzero"></path>
                            <path d="M12.9590949,10.1678254 L15.437,7.68992026 C15.6150298,7.51189046 15.9036732,7.51189046 16.081703,7.68992026 L18.5596081,10.1678254 C18.7376379,10.3458552 18.7376379,10.6344985 18.5596081,10.8125283 L16.081703,13.2904335 C15.9036732,13.4684633 15.6150298,13.4684633 15.437,13.2904335 L12.9590949,10.8125283 C12.7810651,10.6344985 12.7810651,10.3458552 12.9590949,10.1678254 Z" id="Rectangle" fill="#6EE7B7"></path>
                            <path d="M15.0071981,7.26011831 L12.5292929,9.73802347 C12.1138901,10.1534263 12.1138901,10.8269274 12.5292929,11.2423303 L15.0071981,13.7202354 C15.4226009,14.1356383 16.096102,14.1356383 16.5115049,13.7202354 L18.9894101,11.2423303 C19.4048129,10.8269274 19.4048129,10.1534263 18.9894101,9.73802347 L16.5115049,7.26011831 C16.096102,6.84471546 15.4226009,6.84471546 15.0071981,7.26011831 Z M15.7592535,8.2264793 L18.022211,10.4900447 L15.7592535,12.7530022 L13.4956881,10.4900447 L15.7592535,8.2264793 Z" id="Rectangle" fill="#7C3AED" fill-rule="nonzero"></path>
                            <path d="M17.8261612,0.403318164 C18.1127092,-0.0107435985 18.6806655,-0.114113982 19.0947273,0.172433951 C19.4844325,0.442126123 19.5989232,0.961093594 19.3721473,1.36642138 L19.3256115,1.44100002 L18.1480023,3.14264539 C17.8614543,3.55670715 17.293498,3.66007754 16.8794362,3.3735296 C16.489731,3.10383743 16.3752403,2.58486996 16.6020162,2.17954217 L16.648552,2.10496353 L17.8261612,0.403318164 Z" id="Path" fill="#7C3AED" fill-rule="nonzero"></path>
                            <path d="M22.4621671,5.41033435 C22.9312439,5.22723924 23.4599337,5.45907319 23.6430288,5.92814999 C23.8153537,6.36963403 23.6201288,6.86392405 23.2054926,7.07319578 L23.1252132,7.10901169 L21.1968781,7.86170027 C20.7278013,8.04479539 20.1991115,7.81296143 20.0160164,7.34388464 C19.8436915,6.90240059 20.0389164,6.40811057 20.4535526,6.19883885 L20.533832,6.16302293 L22.4621671,5.41033435 Z" id="Path" fill="#7C3AED" fill-rule="nonzero"></path>
                            <path d="M20.5073752,2.54886584 C20.9021334,2.23625936 21.4755658,2.3028565 21.7881723,2.69761472 C22.0812409,3.06770055 22.041025,3.59482422 21.7095825,3.91684884 L21.6394234,3.9784118 L20.0172667,5.26298723 C19.6225085,5.57559371 19.0490761,5.50899656 18.7364696,5.11423834 C18.443401,4.74415251 18.4836169,4.21702884 18.8150594,3.89500423 L18.8852185,3.83344126 L20.5073752,2.54886584 Z" id="Path" fill="#7C3AED" fill-rule="nonzero"></path>
                        </g>
                        <g id="Biketribe" transform="translate(30.660856, 0.000000)" fill="#7C3AED" fill-rule="nonzero">
                            <path d="M0,19.9001034 C0,21.0087885 1.03939227,22.3946448 2.49454145,23.087573 C3.01423759,23.3300979 3.49928732,23.4340371 4.12292268,23.4340371 C4.53867959,23.4340371 5.09302213,23.3993907 5.57807186,23.2954515 C7.51827077,22.8450482 10.3246299,21.5977774 11.7451327,20.038689 C12.7152321,19.0339432 13.0963426,17.8906117 13.0963426,16.9205122 C13.0963426,15.5693023 12.2648288,14.4606172 11.2254365,13.8369818 C13.4774531,12.7282967 15.3830056,11.0652691 16.2491658,9.88729117 C17.1153261,8.77860608 17.7389614,7.35810331 17.7389614,6.14547899 C17.7389614,2.16114195 15.6255305,0.879224816 13.2002819,1.08710327 C10.5325084,1.32962813 7.48362436,2.99265577 5.3701934,3.1312414 C4.67726522,3.16588781 4.50403318,3.4777055 4.71191163,3.96275522 C4.9890829,4.51709777 5.64736468,5.27931877 6.85998899,5.45255081 C4.43474036,9.15971658 1.83625968,14.1834459 0.519696136,17.8213188 C0.207878454,18.6181863 0,19.4843465 0,19.9001034 Z M8.8001879,8.36284917 C9.63170172,6.80376077 9.87422658,5.7990149 9.83958017,5.0367939 C12.0915968,4.2745729 13.5120995,3.75487677 14.4475526,3.75487677 C15.0365415,3.75487677 15.6255305,4.20528009 15.6255305,4.93285468 C15.6601769,7.25416408 12.0569504,10.9613299 6.37493927,12.4857719 C7.93402768,9.92193758 8.4190774,9.09042376 8.8001879,8.36284917 Z M9.9435194,17.7173796 C8.52301663,19.4843465 5.64736468,20.8702028 3.63787295,21.1127277 C2.91029836,21.2166669 2.63312709,20.8702028 2.94494477,19.9001034 C3.4299945,18.3756614 4.26150831,16.6086945 5.12766854,14.9110205 C5.85524313,15.1188989 7.17180668,15.0496061 8.48837022,14.7724348 C10.0474586,14.9110205 10.671094,15.465363 10.671094,16.0889984 C10.671094,16.5740481 10.3939227,17.1630371 9.9435194,17.7173796 Z" id="Shape"></path>
                            <path d="M19.8493532,7.60062817 C19.8493532,8.67466685 20.7848063,9.71405913 21.8934914,9.71405913 C22.7596516,9.71405913 23.2793477,8.91719172 23.2793477,7.98173867 C23.2793477,6.97699281 22.3438947,5.72972208 21.3737952,5.72972208 C20.5769278,5.72972208 19.8493532,6.63052872 19.8493532,7.60062817 Z M22.4131875,19.7615178 C22.8635908,18.8607111 22.8982372,17.9945509 22.5864195,17.4055619 C22.2746019,16.7819266 21.8241986,16.7126338 21.5470273,17.3362691 C20.4729886,19.6922249 18.6713753,22.0135343 17.285519,22.0135343 C16.9044085,22.0135343 16.7658228,21.7017167 16.7658228,21.1473741 C16.7658228,20.5930316 16.9390549,19.865457 17.2508726,19.0685896 C17.8398615,17.6827332 19.4335963,15.0842525 20.0918781,13.5944569 C20.9926847,11.8621365 20.7155135,10.3723409 20.0572317,9.67941272 C19.6068284,9.15971658 19.1910715,9.2290094 18.6713753,9.92193758 C17.3894582,11.7235509 15.172088,15.7425343 14.3059278,18.1677829 C14.0287565,19.0685896 13.8901709,19.7961642 13.8901709,20.4544459 C13.8901709,22.1867664 14.8256239,23.3993907 16.9390549,23.3993907 C18.983193,23.3993907 21.3737952,21.9442415 22.4131875,19.7615178 Z" id="Shape"></path>
                            <path d="M32.4606461,1.9532635 C32.4606461,1.46821377 32.3220605,1.01781045 32.114182,0.602053543 C31.7330715,-0.125521047 31.178729,-0.125521047 30.6243865,0.567407134 C27.5755025,4.75962263 22.5864195,14.52991 21.0273311,18.9646503 C20.6808671,19.9693962 20.5769278,20.7316172 20.5769278,21.2859598 C20.5769278,22.0135343 20.7848063,22.4985841 21.1312704,22.8796946 C21.5470273,23.3993907 22.1013698,23.2261587 22.3438947,22.7411089 C23.4525798,20.1426283 24.3880328,18.0291973 25.3234859,16.3661697 C25.3234859,21.2166669 27.4022704,23.2261587 29.9661047,23.2608051 C32.9110495,23.2954515 34.6780163,20.80091 35.3362981,19.5882857 C35.8559942,18.6874791 35.925287,17.8213188 35.752055,17.3709155 C35.4402373,16.5047553 34.989834,16.5740481 34.5740771,17.4055619 C33.6039776,19.4150537 31.6984251,21.8403023 30.5204472,21.8403023 C29.481055,21.8403023 28.6495411,19.9347498 28.5109555,17.3362691 C30.5550936,16.6433409 31.9755964,15.6732415 33.0842815,14.5992028 C33.9504417,13.767689 34.2969058,12.9015288 34.2969058,12.0700149 C34.2969058,11.481026 34.1583202,10.9266834 33.8811489,10.4069873 C33.1189279,8.81325249 32.1834749,8.25890995 30.6243865,8.81325249 C30.0353975,9.02113095 29.4464085,9.26365581 28.8227732,9.71405913 C30.9015577,5.93760054 32.4606461,3.30447345 32.4606461,1.9532635 Z M31.9755964,10.5109265 C32.2874141,10.9613299 31.6637787,12.1046614 30.2779224,13.2479929 C29.1345909,14.1834459 26.7093422,15.2574846 25.7045964,15.6039487 C26.7439886,13.8716282 27.7140881,12.6243575 28.892066,11.7235509 C30.4858008,10.5109265 31.6984251,10.0951696 31.9755964,10.5109265 Z" id="Shape"></path>
                            <path d="M43.1317401,11.0652691 C43.5128506,11.3770868 42.785276,13.005468 41.7805302,14.3566779 C41.087602,15.292131 39.9789169,16.3315233 39.1474031,16.3315233 C38.9048782,16.3315233 38.6623534,16.2622304 38.3851821,16.0889984 C40.0482097,12.7629431 42.612044,10.6495122 43.1317401,11.0652691 Z M45.7302208,12.4511254 C45.7302208,12.0007221 45.5916352,11.481026 45.3837567,11.1692083 C44.898707,10.4762801 44.2057788,9.92193758 43.2356794,9.36759504 C42.8892153,9.15971658 42.5081048,9.09042376 42.023055,9.09042376 C40.0135633,9.09042376 37.2072042,10.9266834 35.4055909,14.5992028 C34.6780163,15.9850592 34.3315522,17.3362691 34.3315522,18.5835398 C34.3315522,21.3552526 36.0985191,23.4686835 39.3206351,23.4340371 C42.023055,23.3993907 44.7947678,21.7710095 46.2499169,19.6575785 C46.8735523,18.7221255 46.8389059,17.7173796 46.7349667,17.4055619 C46.4577954,16.7126338 46.0073921,16.7819266 45.6262816,17.3362691 C44.2057788,19.4843465 41.8844694,22.0481808 39.2513423,22.0481808 C38.21195,22.0481808 37.5883147,20.9741421 37.5883147,19.4497001 C37.5883147,18.8260647 37.6922539,18.0984901 37.9001324,17.4055619 C38.6969998,17.9252581 39.5285136,18.1677829 40.3600274,18.1677829 C43.4089114,18.1677829 45.7302208,14.52991 45.7302208,12.4511254 Z" id="Shape"></path>
                            <path d="M66.1023093,17.5441476 C65.8251381,16.7472802 65.2361491,16.8858658 64.9243314,17.5441476 C63.8502927,20.0040426 61.9793867,22.0828272 60.7667623,22.0828272 C60.2470662,22.0828272 60.0045413,21.4938382 60.0045413,20.5930316 C60.0045413,20.0733354 60.0391877,19.5882857 60.2124198,19.103236 C60.8014087,17.3016227 62.4644364,15.0496061 64.0581712,13.2826393 C64.4392817,12.7975895 64.6125137,12.3125398 64.6125137,11.9314293 C64.6125137,11.0652691 64.0235248,10.1644624 63.5384751,9.57547349 C63.1573646,9.09042376 62.7416077,9.15971658 62.0833259,9.6101199 C61.07858,10.3376945 60.0045413,10.8573906 59.1037347,11.0652691 C59.6234308,9.88729117 59.8313093,8.91719172 59.8313093,8.12032431 C59.8313093,7.35810331 59.5194916,6.90769999 58.6879778,6.90769999 C57.5099999,6.90769999 55.2926297,9.6101199 55.2926297,11.3770868 C55.2926297,11.9660757 55.569801,12.5204183 56.1587899,12.8668824 C54.1146518,17.9945509 50.7539501,22.0481808 48.883044,22.0481808 C48.2940551,22.0481808 47.9129446,21.3552526 47.9129446,20.3158603 C47.9129446,19.5536393 48.120823,18.6874791 48.5019335,17.752026 C49.6106186,15.3267774 51.1004142,12.6936503 52.3130385,10.6495122 L53.0406131,9.43688785 C53.5949557,9.40224145 54.3225303,9.43688785 54.9115192,9.43688785 C55.5351546,9.43688785 56.0548507,9.15971658 55.743033,8.64002045 C55.4312153,8.12032431 55.1193977,7.56598176 54.1146518,7.39274972 C54.5304087,6.38800386 54.7036407,5.55649004 54.7036407,4.86356186 C54.7036407,4.44780495 54.5997015,4.03204804 54.4264695,3.58164472 C54.1492982,2.78477731 53.5256628,2.7154845 52.9713203,3.54699831 C52.0705137,4.93285468 50.8925358,6.73446795 50.1303148,7.7045674 C49.5759722,7.77386022 48.883044,7.80850663 47.9822374,7.73921381 C47.1160772,7.7045674 46.8389059,8.0856779 47.2546628,8.74395967 C47.5318341,9.15971658 48.3287015,9.57547349 49.2641545,9.74870554 C47.9129446,12.1739542 46.5270882,14.9803133 45.7995136,16.6433409 C45.3491103,17.752026 45.1758783,18.7221255 45.1758783,19.5189929 C45.1758783,21.9442415 46.7696131,23.3993907 48.6058728,23.3993907 C52.3476849,23.3993907 55.9162651,18.3063686 58.2029281,13.1787 C58.9651491,13.1440536 59.9352485,12.9708216 60.905348,12.5550647 C59.5887844,14.1487995 58.0643424,16.2622304 57.4753535,18.0291973 C57.2328286,18.7567719 57.1288894,19.3457608 57.1288894,19.9001034 C57.1288894,21.8749487 58.3761601,23.4686835 60.5588839,23.4686835 C62.6376684,23.4686835 65.0629171,22.0135343 65.9637237,19.865457 C66.3794806,18.8607111 66.2755414,17.9599045 66.1023093,17.5441476 Z" id="Path"></path>
                            <path d="M70.1905856,7.60062817 C70.1905856,8.67466685 71.1260386,9.71405913 72.2347237,9.71405913 C73.100884,9.71405913 73.6205801,8.91719172 73.6205801,7.98173867 C73.6205801,6.97699281 72.6851271,5.72972208 71.7150276,5.72972208 C70.9181602,5.72972208 70.1905856,6.63052872 70.1905856,7.60062817 Z M72.7544199,19.7615178 C73.2048232,18.8607111 73.2394696,17.9945509 72.9276519,17.4055619 C72.6158342,16.7819266 72.1654309,16.7126338 71.8882596,17.3362691 C70.814221,19.6922249 69.0126077,22.0135343 67.6267513,22.0135343 C67.2456408,22.0135343 67.1070552,21.7017167 67.1070552,21.1473741 C67.1070552,20.5930316 67.2802872,19.865457 67.5921049,19.0685896 C68.1810939,17.6827332 69.7748287,15.0842525 70.4331105,13.5944569 C71.3339171,11.8621365 71.0567458,10.3723409 70.3984641,9.67941272 C69.9480607,9.15971658 69.5323038,9.2290094 69.0126077,9.92193758 C67.7306906,11.7235509 65.5133204,15.7425343 64.6471602,18.1677829 C64.3699889,19.0685896 64.2314032,19.7961642 64.2314032,20.4544459 C64.2314032,22.1867664 65.1668563,23.3993907 67.2802872,23.3993907 C69.3244254,23.3993907 71.7150276,21.9442415 72.7544199,19.7615178 Z" id="Shape"></path>
                            <path d="M81.1042045,12.2086006 C81.1042045,13.2133464 80.723094,14.703142 79.7183481,16.6779873 C77.9860276,20.2119211 76.6348177,21.2859598 75.6647182,21.2859598 C74.9717901,21.2859598 74.3828011,20.2465675 74.3135083,19.2418216 C75.5954254,16.6086945 77.1545138,13.8369818 78.609663,12.3125398 C79.545116,11.4117332 80.2033978,11.0306227 80.6191547,11.0306227 C81.0002652,11.0306227 81.1042045,11.4463796 81.1042045,12.2086006 Z M84.0491492,12.5897111 C84.0491492,10.6148658 83.2176354,9.2290094 81.3120829,9.2290094 C80.7577404,9.2290094 79.9955194,9.50618067 79.371884,9.85264476 C80.3766299,8.0856779 81.2427901,6.76911436 81.7624862,5.83366131 C82.594,4.34386572 82.9751105,2.99265577 82.9751105,2.05720272 C82.9751105,1.50286018 82.8711713,1.01781045 82.6286465,0.602053543 C82.1782431,-0.194813865 81.6931934,-0.194813865 81.1734973,0.567407134 C78.2631989,4.86356186 72.2347237,16.1582912 71.2299779,19.2071752 C70.5024033,21.4245454 70.8835138,22.3599984 71.4378563,23.1222194 C71.8882596,23.7112084 72.3040166,23.6072692 72.6158342,22.9489874 L73.3087624,21.4245454 C74.0016906,22.5678769 75.1796685,23.2608051 76.8426961,23.2608051 C78.9907735,23.2608051 81.1734973,21.2513133 82.8018785,17.6480868 C83.6680387,15.7771807 84.0491492,13.9755674 84.0491492,12.5897111 Z" id="Shape"></path>
                            <path d="M93.0225692,11.0652691 C93.4036797,11.3770868 92.6761051,13.005468 91.6713592,14.3566779 C90.978431,15.292131 89.8697459,16.3315233 89.0382321,16.3315233 C88.7957073,16.3315233 88.5531824,16.2622304 88.2760111,16.0889984 C89.9390388,12.7629431 92.502873,10.6495122 93.0225692,11.0652691 Z M95.6210499,12.4511254 C95.6210499,12.0007221 95.4824642,11.481026 95.2745858,11.1692083 C94.789536,10.4762801 94.0966079,9.92193758 93.1265084,9.36759504 C92.7800443,9.15971658 92.3989338,9.09042376 91.9138841,9.09042376 C89.9043924,9.09042376 87.0980332,10.9266834 85.29642,14.5992028 C84.5688454,15.9850592 84.2223813,17.3362691 84.2223813,18.5835398 C84.2223813,21.3552526 85.9893481,23.4686835 89.2114642,23.4340371 C91.9138841,23.3993907 94.6855968,21.7710095 96.140746,19.6575785 C96.7643814,18.7221255 96.7297349,17.7173796 96.6257957,17.4055619 C96.3486244,16.7126338 95.8982211,16.7819266 95.5171106,17.3362691 C94.0966079,19.4843465 91.7752984,22.0481808 89.1421714,22.0481808 C88.1027791,22.0481808 87.4791437,20.9741421 87.4791437,19.4497001 C87.4791437,18.8260647 87.5830829,18.0984901 87.7909614,17.4055619 C88.5878288,17.9252581 89.4193426,18.1677829 90.2508564,18.1677829 C93.2997404,18.1677829 95.6210499,14.52991 95.6210499,12.4511254 Z" id="Shape"></path>
                        </g>
                    </g>
                </g>
            </g>
        </g>
    </g>
</svg>