<?xml version="1.0" encoding="UTF-8"?>
<svg width="130px" height="24px" viewBox="0 0 130 24" version="1.1" xmlns="http://www.w3.org/2000/svg" xmlns:xlink="http://www.w3.org/1999/xlink">
    <title>Group 2</title>
    <g id="Page-1" stroke="none" stroke-width="1" fill="none" fill-rule="evenodd">
        <g id="1.0---Footer---Five-Columns" transform="translate(-192.000000, -184.000000)" fill-rule="nonzero">
            <g id="LandingPage/Content" transform="translate(30.000000, -1113.000000)">
                <g id="Universal/Footer" transform="translate(0.000000, 1112.000000)">
                    <g id="Group-2" transform="translate(162.000000, 185.000000)">
                        <g id="Group">
                            <path d="M35,0 L3,0 C1.3,0 0,1.3 0,3 L0,21 C0,22.7 1.4,24 3,24 L35,24 C36.7,24 38,22.7 38,21 L38,3 C38,1.3 36.6,0 35,0 Z" id="Path" fill="#000000" opacity="0.07"></path>
                            <path d="M35,1 C36.1,1 37,1.9 37,3 L37,21 C37,22.1 36.1,23 35,23 L3,23 C1.9,23 1,22.1 1,21 L1,3 C1,1.9 1.9,1 3,1 L35,1" id="Path" fill="#FFFFFF"></path>
                            <path d="M28.3,10.1 L28,10.1 C27.6,11.1 27.3,11.6 27,13.1 L28.9,13.1 C28.6,11.6 28.6,10.9 28.3,10.1 L28.3,10.1 Z M31.2,16 L29.5,16 C29.4,16 29.4,16 29.3,15.9 L29.1,15 L29,14.8 L26.6,14.8 C26.5,14.8 26.4,14.8 26.4,15 L26.1,15.9 C26.1,16 26,16 26,16 L23.9,16 L24.1,15.5 L27,8.7 C27,8.2 27.3,8 27.8,8 L29.3,8 C29.4,8 29.5,8 29.5,8.2 L30.9,14.7 C31,15.1 31.1,15.4 31.1,15.8 C31.2,15.9 31.2,15.9 31.2,16 Z M17.8,15.7 L18.2,13.9 C18.3,13.9 18.4,14 18.4,14 C19.1,14.3 19.8,14.5 20.5,14.4 C20.7,14.4 21,14.3 21.2,14.2 C21.7,14 21.7,13.5 21.3,13.1 C21.1,12.9 20.8,12.8 20.5,12.6 C20.1,12.4 19.7,12.2 19.4,11.9 C18.2,10.9 18.6,9.5 19.3,8.8 C19.9,8.4 20.2,8 21,8 C22.2,8 23.5,8 24.1,8.2 L24.2,8.2 C24.1,8.8 24,9.3 23.8,9.9 C23.3,9.7 22.8,9.5 22.3,9.5 C22,9.5 21.7,9.5 21.4,9.6 C21.2,9.6 21.1,9.7 21,9.8 C20.8,10 20.8,10.3 21,10.5 L21.5,10.9 C21.9,11.1 22.3,11.3 22.6,11.5 C23.1,11.8 23.6,12.3 23.7,12.9 C23.9,13.8 23.6,14.6 22.8,15.2 C22.3,15.6 22.1,15.8 21.4,15.8 C20,15.8 18.9,15.9 18,15.6 C17.9,15.8 17.9,15.8 17.8,15.7 L17.8,15.7 Z M14.3,16 C14.4,15.3 14.4,15.3 14.5,15 C15,12.8 15.5,10.5 15.9,8.3 C16,8.1 16,8 16.2,8 L18,8 C17.8,9.2 17.6,10.1 17.3,11.2 C17,12.7 16.7,14.2 16.3,15.7 C16.3,15.9 16.2,15.9 16,15.9 M5,8.2 C5,8.1 5.2,8 5.3,8 L8.7,8 C9.2,8 9.6,8.3 9.7,8.8 L10.6,13.2 C10.6,13.3 10.6,13.3 10.7,13.4 C10.7,13.3 10.8,13.3 10.8,13.3 L12.9,8.2 C12.8,8.1 12.9,8 13,8 L15.1,8 C15.1,8.1 15.1,8.1 15,8.2 L11.9,15.5 C11.8,15.7 11.8,15.8 11.7,15.9 C11.6,16 11.4,15.9 11.2,15.9 L9.7,15.9 C9.6,15.9 9.5,15.9 9.5,15.7 L7.9,9.5 C7.7,9.3 7.4,9 7,8.9 C6.4,8.6 5.3,8.4 5.1,8.4 L5,8.2 Z" id="Shape" fill="#142688"></path>
                        </g>
                        <g id="Group" transform="translate(46.000000, 0.000000)">
                            <path d="M35,0 L3,0 C1.3,0 0,1.3 0,3 L0,21 C0,22.7 1.4,24 3,24 L35,24 C36.7,24 38,22.7 38,21 L38,3 C38,1.3 36.6,0 35,0 Z" id="Path" fill="#000000" opacity="0.07"></path>
                            <path d="M35,1 C36.1,1 37,1.9 37,3 L37,21 C37,22.1 36.1,23 35,23 L3,23 C1.9,23 1,22.1 1,21 L1,3 C1,1.9 1.9,1 3,1 L35,1" id="Path" fill="#FFFFFF"></path>
                            <circle id="Oval" fill="#EB001B" cx="15" cy="12" r="7"></circle>
                            <circle id="Oval" fill="#F79E1B" cx="23" cy="12" r="7"></circle>
                            <path d="M22,12 C22,9.6 20.8,7.5 19,6.3 C17.2,7.6 16,9.7 16,12 C16,14.3 17.2,16.5 19,17.7 C20.8,16.5 22,14.4 22,12 Z" id="Path" fill="#FF5F00"></path>
                        </g>
                        <g id="Group" transform="translate(92.000000, 0.000000)">
                            <path d="M35,0 L3,0 C1.3,0 0,1.3 0,3 L0,21 C0,22.7 1.4,24 3,24 L35,24 C36.7,24 38,22.7 38,21 L38,3 C38,1.3 36.6,0 35,0 Z" id="Path" fill="#000000" opacity="0.07"></path>
                            <path d="M35,1 C36.1,1 37,1.9 37,3 L37,21 C37,22.1 36.1,23 35,23 L3,23 C1.9,23 1,22.1 1,21 L1,3 C1,1.9 1.9,1 3,1 L35,1" id="Path" fill="#006FCF"></path>
                            <path d="M8.971,10.268 L9.745,12.144 L8.203,12.144 L8.971,10.268 Z M25.046,10.346 L22.069,10.346 L22.069,11.173 L24.998,11.173 L24.998,12.412 L22.075,12.412 L22.075,13.334 L25.052,13.334 L25.052,14.073 L27.129,11.828 L25.052,9.488 L25.046,10.346 L25.046,10.346 Z M10.983,8.006 L14.978,8.006 L15.865,9.941 L16.687,8 L27.057,8 L28.135,9.19 L29.25,8 L34.013,8 L30.494,11.852 L33.977,15.68 L29.143,15.68 L28.065,14.49 L26.94,15.68 L10.03,15.68 L9.536,14.49 L8.406,14.49 L7.911,15.68 L4,15.68 L7.286,8 L10.716,8 L10.983,8.006 Z M19.646,9.084 L17.407,9.084 L15.907,12.62 L14.282,9.084 L12.06,9.084 L12.06,13.894 L10,9.084 L8.007,9.084 L5.625,14.596 L7.18,14.596 L7.674,13.406 L10.27,13.406 L10.764,14.596 L13.484,14.596 L13.484,10.661 L15.235,14.602 L16.425,14.602 L18.165,10.673 L18.165,14.603 L19.623,14.603 L19.647,9.083 L19.646,9.084 Z M28.986,11.852 L31.517,9.084 L29.695,9.084 L28.094,10.81 L26.546,9.084 L20.652,9.084 L20.652,14.602 L26.462,14.602 L28.076,12.864 L29.624,14.602 L31.499,14.602 L28.987,11.852 L28.986,11.852 Z" id="Shape" fill="#FFFFFF"></path>
                        </g>
                    </g>
                </g>
            </g>
        </g>
    </g>
</svg>