<svg width="64" height="58" viewBox="0 0 64 58" fill="none" xmlns="http://www.w3.org/2000/svg">
<g><path d="M60.6325 1.5H58.1476V0.5C58.1476 0.223633 57.9253 0 57.6506 0C57.3759 0 57.1536 0.223633 57.1536 0.5V1.5H54.1717V0.5C54.1717 0.223633 53.9494 0 53.6747 0C53.4 0 53.1777 0.223633 53.1777 0.5V1.5H50.1958V0.5C50.1958 0.223633 49.9735 0 49.6988 0C49.4241 0 49.2018 0.223633 49.2018 0.5V1.5H46.2199V0.5C46.2199 0.223633 45.9976 0 45.7229 0C45.4482 0 45.2259 0.223633 45.2259 0.5V1.5H42.244V0.5C42.244 0.223633 42.0217 0 41.747 0C41.4723 0 41.25 0.223633 41.25 0.5V1.5H38.2681V0.5C38.2681 0.223633 38.0458 0 37.7711 0C37.4964 0 37.2741 0.223633 37.2741 0.5V1.5H34.2922V0.5C34.2922 0.223633 34.0699 0 33.7952 0C33.5205 0 33.2982 0.223633 33.2982 0.5V1.5H30.3163V0.5C30.3163 0.223633 30.094 0 29.8193 0C29.5446 0 29.3223 0.223633 29.3223 0.5V1.5H26.3404V0.5C26.3404 0.223633 26.118 0 25.8434 0C25.5687 0 25.3464 0.223633 25.3464 0.5V1.5H22.3645V0.5C22.3645 0.223633 22.1421 0 21.8675 0C21.5928 0 21.3705 0.223633 21.3705 0.5V1.5H18.3886V0.5C18.3886 0.223633 18.1662 0 17.8916 0C17.6169 0 17.3946 0.223633 17.3946 0.5V1.5H14.4127V0.5C14.4127 0.223633 14.1903 0 13.9157 0C13.641 0 13.4187 0.223633 13.4187 0.5V1.5H10.4367V0.5C10.4367 0.223633 10.2144 0 9.93976 0C9.66506 0 9.44277 0.223633 9.44277 0.5V1.5H6.46084V0.5C6.46084 0.223633 6.23853 0 5.96386 0C5.68915 0 5.46687 0.223633 5.46687 0.5V1.5H2.98193C1.34196 1.5 0 2.8501 0 4.5V54.5C0 56.1499 1.34196 57.5 2.98193 57.5H60.6325C62.2725 57.5 63.6145 56.1499 63.6145 54.5V4.5C63.6145 2.8501 62.2725 1.5 60.6325 1.5ZM14.9096 52C14.9096 52.8272 14.2408 53.5 13.4187 53.5H5.46687C4.6447 53.5 3.9759 52.8272 3.9759 52V44C3.9759 43.1729 4.6447 42.5 5.46687 42.5H13.4187C14.2408 42.5 14.9096 43.1729 14.9096 44V52ZM14.9096 38C14.9096 38.8272 14.2408 39.5 13.4187 39.5H5.46687C4.6447 39.5 3.9759 38.8272 3.9759 38V30C3.9759 29.1729 4.6447 28.5 5.46687 28.5H13.4187C14.2408 28.5 14.9096 29.1729 14.9096 30V38ZM14.9096 24C14.9096 24.8272 14.2408 25.5 13.4187 25.5H5.46687C4.6447 25.5 3.9759 24.8272 3.9759 24V16C3.9759 15.1729 4.6447 14.5 5.46687 14.5H13.4187C14.2408 14.5 14.9096 15.1729 14.9096 16V24ZM29.8193 52C29.8193 52.8272 29.1505 53.5 28.3283 53.5H20.3765C19.5543 53.5 18.8855 52.8272 18.8855 52V44C18.8855 43.1729 19.5543 42.5 20.3765 42.5H28.3283C29.1505 42.5 29.8193 43.1729 29.8193 44V52ZM29.8193 38C29.8193 38.8272 29.1505 39.5 28.3283 39.5H20.3765C19.5543 39.5 18.8855 38.8272 18.8855 38V30C18.8855 29.1729 19.5543 28.5 20.3765 28.5H28.3283C29.1505 28.5 29.8193 29.1729 29.8193 30V38ZM29.8193 24C29.8193 24.8272 29.1505 25.5 28.3283 25.5H20.3765C19.5543 25.5 18.8855 24.8272 18.8855 24V16C18.8855 15.1729 19.5543 14.5 20.3765 14.5H28.3283C29.1505 14.5 29.8193 15.1729 29.8193 16V24ZM44.7289 52C44.7289 52.8272 44.0601 53.5 43.238 53.5H35.2861C34.464 53.5 33.7952 52.8272 33.7952 52V44C33.7952 43.1729 34.464 42.5 35.2861 42.5H43.238C44.0601 42.5 44.7289 43.1729 44.7289 44V52ZM44.7289 38C44.7289 38.8272 44.0601 39.5 43.238 39.5H35.2861C34.464 39.5 33.7952 38.8272 33.7952 38V30C33.7952 29.1729 34.464 28.5 35.2861 28.5H43.238C44.0601 28.5 44.7289 29.1729 44.7289 30V38ZM44.7289 24C44.7289 24.8272 44.0601 25.5 43.238 25.5H35.2861C34.464 25.5 33.7952 24.8272 33.7952 24V16C33.7952 15.1729 34.464 14.5 35.2861 14.5H43.238C44.0601 14.5 44.7289 15.1729 44.7289 16V24ZM59.6386 52C59.6386 52.8272 58.9698 53.5 58.1476 53.5H50.1958C49.3736 53.5 48.7048 52.8272 48.7048 52V44C48.7048 43.1729 49.3736 42.5 50.1958 42.5H58.1476C58.9698 42.5 59.6386 43.1729 59.6386 44V52ZM59.6386 38C59.6386 38.8272 58.9698 39.5 58.1476 39.5H50.1958C49.3736 39.5 48.7048 38.8272 48.7048 38V30C48.7048 29.1729 49.3736 28.5 50.1958 28.5H58.1476C58.9698 28.5 59.6386 29.1729 59.6386 30V38ZM59.6386 24C59.6386 24.8272 58.9698 25.5 58.1476 25.5H50.1958C49.3736 25.5 48.7048 24.8272 48.7048 24V16C48.7048 15.1729 49.3736 14.5 50.1958 14.5H58.1476C58.9698 14.5 59.6386 15.1729 59.6386 16V24ZM62.6205 10.5H0.993976V4.5C0.993976 3.39694 1.88551 2.5 2.98193 2.5H5.46687V3.5C5.46687 3.77634 5.68915 4 5.96386 4C6.23853 4 6.46084 3.77634 6.46084 3.5V2.5H9.44277V3.5C9.44277 3.77634 9.66506 4 9.93976 4C10.2144 4 10.4367 3.77634 10.4367 3.5V2.5H13.4187V3.5C13.4187 3.77634 13.641 4 13.9157 4C14.1903 4 14.4127 3.77634 14.4127 3.5V2.5H17.3946V3.5C17.3946 3.77634 17.6169 4 17.8916 4C18.1662 4 18.3886 3.77634 18.3886 3.5V2.5H21.3705V3.5C21.3705 3.77634 21.5928 4 21.8675 4C22.1421 4 22.3645 3.77634 22.3645 3.5V2.5H25.3464V3.5C25.3464 3.77634 25.5687 4 25.8434 4C26.118 4 26.3404 3.77634 26.3404 3.5V2.5H29.3223V3.5C29.3223 3.77634 29.5446 4 29.8193 4C30.094 4 30.3163 3.77634 30.3163 3.5V2.5H33.2982V3.5C33.2982 3.77634 33.5205 4 33.7952 4C34.0699 4 34.2922 3.77634 34.2922 3.5V2.5H37.2741V3.5C37.2741 3.77634 37.4964 4 37.7711 4C38.0458 4 38.2681 3.77634 38.2681 3.5V2.5H41.25V3.5C41.25 3.77634 41.4723 4 41.747 4C42.0217 4 42.244 3.77634 42.244 3.5V2.5H45.2259V3.5C45.2259 3.77634 45.4482 4 45.7229 4C45.9976 4 46.2199 3.77634 46.2199 3.5V2.5H49.2018V3.5C49.2018 3.77634 49.4241 4 49.6988 4C49.9735 4 50.1958 3.77634 50.1958 3.5V2.5H53.1777V3.5C53.1777 3.77634 53.4 4 53.6747 4C53.9494 4 54.1717 3.77634 54.1717 3.5V2.5H57.1536V3.5C57.1536 3.77634 57.3759 4 57.6506 4C57.9253 4 58.1476 3.77634 58.1476 3.5V2.5H60.6325C61.7289 2.5 62.6205 3.39694 62.6205 4.5V10.5Z"/>
</g></svg>
