<svg xmlns="http://www.w3.org/2000/svg" xmlns:xlink="http://www.w3.org/1999/xlink" version="1.1" x="0px" y="0px" viewBox="0 0 128 160" style="enable-background:new 0 0 128 128;" xml:space="preserve"><g><path d="M45.3036842,77.5917969C45.4990005,77.857399,45.8026848,78,46.1112823,78   c0.1924019,0,0.3867188-0.0557022,0.5586014-0.1708984l8.889698-6c0.4580002-0.3096008,0.5781021-0.9307022,0.2695007-1.3887024   c-0.309597-0.4580002-0.9306984-0.5771027-1.3886986-0.2695007l-8.092701,5.4618988l-2.5410995-3.4657974   c-0.3270988-0.4452972-0.9520988-0.5429993-1.3983994-0.2148972c-0.4453011,0.3271942-0.5410004,0.9531937-0.2148018,1.3984985   L45.3036842,77.5917969z"/><path d="M105.3036804,105.5917969C105.4990005,105.857399,105.802681,106,106.1112823,106   c0.1923981,0,0.3867188-0.0557022,0.5586014-0.1708984l8.8897018-6c0.4580002-0.3096008,0.5780945-0.9307022,0.2694931-1.3887024   c-0.3085938-0.4580002-0.9296951-0.5771027-1.3886948-0.2695007l-8.0927048,5.4618988l-2.5410995-3.4657974   c-0.327095-0.4442978-0.952095-0.5429993-1.3983994-0.2148972c-0.4452972,0.3271942-0.5410004,0.9531937-0.214798,1.3984985   L105.3036804,105.5917969z"/><path d="M122,9h-5V7c0-0.5527-0.447319-1-1-1c-0.5527191,0-1,0.4473-1,1v2h-6V7c0-0.5527-0.447319-1-1-1c-0.5527191,0-1,0.4473-1,1   v2h-6V7c0-0.5527-0.447319-1-1-1c-0.5527191,0-1,0.4473-1,1v2h-6V7c0-0.5527-0.447319-1-1-1c-0.5527191,0-1,0.4473-1,1v2h-6V7   c0-0.5527-0.447319-1-1-1c-0.5527191,0-1,0.4473-1,1v2h-6V7c0-0.5527-0.447319-1-1-1c-0.5527191,0-1,0.4473-1,1v2h-6V7   c0-0.5527-0.447319-1-1-1c-0.5527191,0-1,0.4473-1,1v2h-6V7c0-0.5527-0.4473152-1-1-1c-0.5527153,0-1,0.4473-1,1v2h-6V7   c0-0.5527-0.4473152-1-1-1c-0.5527153,0-1,0.4473-1,1v2h-6V7c0-0.5527-0.4473152-1-1-1c-0.5527153,0-1,0.4473-1,1v2h-6V7   c0-0.5527-0.4473152-1-1-1c-0.5527153,0-1,0.4473-1,1v2h-6V7c0-0.5527-0.4473152-1-1-1c-0.5527153,0-1,0.4473-1,1v2h-6V7   c0-0.5527-0.4473152-1-1-1c-0.5527153,0-1,0.4473-1,1v2h-6V7c0-0.5527-0.4473152-1-1-1c-0.5527153,0-1,0.4473-1,1v2H6   c-3.2998149,0-6,2.7002001-6,6v100c0,3.2997971,2.7001851,6,6,6h116c3.2997818,0,6-2.7002029,6-6V15   C128,11.7002001,125.2997818,9,122,9z M126,115c0,2.2061005-1.7939148,4-4,4H6c-2.206115,0-4-1.7938995-4-4V29h124V115z M126,27H2   V15c0-2.2061005,1.793885-4,4-4h5v2c0,0.5527,0.4472847,1,1,1c0.5526848,0,1-0.4473,1-1v-2h6v2c0,0.5527,0.4472847,1,1,1   c0.5526848,0,1-0.4473,1-1v-2h6v2c0,0.5527,0.4472847,1,1,1c0.5526848,0,1-0.4473,1-1v-2h6v2c0,0.5527,0.4472847,1,1,1   c0.5526848,0,1-0.4473,1-1v-2h6v2c0,0.5527,0.4472847,1,1,1c0.5526848,0,1-0.4473,1-1v-2h6v2c0,0.5527,0.4472847,1,1,1   c0.5526848,0,1-0.4473,1-1v-2h6v2c0,0.5527,0.4472847,1,1,1c0.5526848,0,1-0.4473,1-1v-2h6v2c0,0.5527,0.4472809,1,1,1   c0.552681,0,1-0.4473,1-1v-2h6v2c0,0.5527,0.4472809,1,1,1c0.552681,0,1-0.4473,1-1v-2h6v2c0,0.5527,0.4472809,1,1,1   c0.552681,0,1-0.4473,1-1v-2h6v2c0,0.5527,0.4472809,1,1,1c0.552681,0,1-0.4473,1-1v-2h6v2c0,0.5527,0.4472809,1,1,1   c0.552681,0,1-0.4473,1-1v-2h6v2c0,0.5527,0.4472809,1,1,1c0.552681,0,1-0.4473,1-1v-2h6v2c0,0.5527,0.4472809,1,1,1   c0.552681,0,1-0.4473,1-1v-2h5c2.2060852,0,4,1.7938995,4,4V27z"/><path d="M11,57h16c1.6542835,0,3-1.3456993,3-3V38c0-1.6543007-1.3457165-3-3-3H11c-1.654315,0-3,1.3456993-3,3v16   C8,55.6543007,9.345685,57,11,57z M10,38c0-0.5517998,0.448185-1,1-1h16c0.5517845,0,1,0.4482002,1,1v16   c0,0.5517998-0.4482155,1-1,1H11c-0.551815,0-1-0.4482002-1-1V38z"/><path d="M41,57h16c1.6542854,0,3-1.3456993,3-3V38c0-1.6543007-1.3457146-3-3-3H41c-1.6543159,0-3,1.3456993-3,3v16   C38,55.6543007,39.3456841,57,41,57z M40,38c0-0.5517998,0.448185-1,1-1h16c0.5517845,0,1,0.4482002,1,1v16   c0,0.5517998-0.4482155,1-1,1H41c-0.551815,0-1-0.4482002-1-1V38z"/><path d="M71,57h16c1.6542816,0,3-1.3456993,3-3V38c0-1.6543007-1.3457184-3-3-3H71c-1.6543198,0-3,1.3456993-3,3v16   C68,55.6543007,69.3456802,57,71,57z M70,38c0-0.5517998,0.4481812-1,1-1h16c0.5517807,0,1,0.4482002,1,1v16   c0,0.5517998-0.4482193,1-1,1H71c-0.5518188,0-1-0.4482002-1-1V38z"/><path d="M101,57h16c1.6542816,0,3-1.3456993,3-3V38c0-1.6543007-1.3457184-3-3-3h-16c-1.6543198,0-3,1.3456993-3,3v16   C98,55.6543007,99.3456802,57,101,57z M100,38c0-0.5517998,0.4481812-1,1-1h16c0.5517807,0,1,0.4482002,1,1v16   c0,0.5517998-0.4482193,1-1,1h-16c-0.5518188,0-1-0.4482002-1-1V38z"/><path d="M11,85h16c1.6542835,0,3-1.3457031,3-3V66c0-1.6542969-1.3457165-3-3-3H11c-1.654315,0-3,1.3457031-3,3v16   C8,83.6542969,9.345685,85,11,85z M10,66c0-0.5518036,0.448185-1,1-1h16c0.5517845,0,1,0.4481964,1,1v16   c0,0.5518036-0.4482155,1-1,1H11c-0.551815,0-1-0.4481964-1-1V66z"/><path d="M41,85h16c1.6542854,0,3-1.3457031,3-3V66c0-1.6542969-1.3457146-3-3-3H41c-1.6543159,0-3,1.3457031-3,3v16   C38,83.6542969,39.3456841,85,41,85z M40,66c0-0.5518036,0.448185-1,1-1h16c0.5517845,0,1,0.4481964,1,1v16   c0,0.5518036-0.4482155,1-1,1H41c-0.551815,0-1-0.4481964-1-1V66z"/><path d="M71,85h16c1.6542816,0,3-1.3457031,3-3V66c0-1.6542969-1.3457184-3-3-3H71c-1.6543198,0-3,1.3457031-3,3v16   C68,83.6542969,69.3456802,85,71,85z M70,66c0-0.5518036,0.4481812-1,1-1h16c0.5517807,0,1,0.4481964,1,1v16   c0,0.5518036-0.4482193,1-1,1H71c-0.5518188,0-1-0.4481964-1-1V66z"/><path d="M101,85h16c1.6542816,0,3-1.3457031,3-3V66c0-1.6542969-1.3457184-3-3-3h-16c-1.6543198,0-3,1.3457031-3,3v16   C98,83.6542969,99.3456802,85,101,85z M100,66c0-0.5518036,0.4481812-1,1-1h16c0.5517807,0,1,0.4481964,1,1v16   c0,0.5518036-0.4482193,1-1,1h-16c-0.5518188,0-1-0.4481964-1-1V66z"/><path d="M11,113h16c1.6542835,0,3-1.3457031,3-3V94c0-1.6542969-1.3457165-3-3-3H11c-1.654315,0-3,1.3457031-3,3v16   C8,111.6542969,9.345685,113,11,113z M10,94c0-0.5518036,0.448185-1,1-1h16c0.5517845,0,1,0.4481964,1,1v16   c0,0.5518036-0.4482155,1-1,1H11c-0.551815,0-1-0.4481964-1-1V94z"/><path d="M41,113h16c1.6542854,0,3-1.3457031,3-3V94c0-1.6542969-1.3457146-3-3-3H41c-1.6543159,0-3,1.3457031-3,3v16   C38,111.6542969,39.3456841,113,41,113z M40,94c0-0.5518036,0.448185-1,1-1h16c0.5517845,0,1,0.4481964,1,1v16   c0,0.5518036-0.4482155,1-1,1H41c-0.551815,0-1-0.4481964-1-1V94z"/><path d="M71,113h16c1.6542816,0,3-1.3457031,3-3V94c0-1.6542969-1.3457184-3-3-3H71c-1.6543198,0-3,1.3457031-3,3v16   C68,111.6542969,69.3456802,113,71,113z M70,94c0-0.5518036,0.4481812-1,1-1h16c0.5517807,0,1,0.4481964,1,1v16   c0,0.5518036-0.4482193,1-1,1H71c-0.5518188,0-1-0.4481964-1-1V94z"/><path d="M101,113h16c1.6542816,0,3-1.3457031,3-3V94c0-1.6542969-1.3457184-3-3-3h-16c-1.6543198,0-3,1.3457031-3,3v16   C98,111.6542969,99.3456802,113,101,113z M100,94c0-0.5518036,0.4481812-1,1-1h16c0.5517807,0,1,0.4481964,1,1v16   c0,0.5518036-0.4482193,1-1,1h-16c-0.5518188,0-1-0.4481964-1-1V94z"/></g></svg>
