<svg xmlns="http://www.w3.org/2000/svg" xmlns:xlink="http://www.w3.org/1999/xlink" version="1.1" x="0px" y="0px" viewBox="0 0 64 80" style="enable-background:new 0 0 64 64;" xml:space="preserve"><style type="text/css">
	.st0{display:none;}
	.st1{display:inline;}
	.st2{fill:none;stroke:#B3B3B3;stroke-width:0.1;stroke-miterlimit:10;}
</style><g class="st0"><g class="st1"><rect x="2" y="2" class="st2" width="60" height="60"/><line class="st2" x1="32" y1="2" x2="32" y2="62"/><line class="st2" x1="62" y1="32" x2="2" y2="32"/><line class="st2" x1="2" y1="2" x2="62" y2="62"/><rect x="10" y="10" class="st2" width="44" height="44"/><line class="st2" x1="62" y1="2" x2="2" y2="62"/><line class="st2" x1="2" y1="32" x2="32" y2="2"/><line class="st2" x1="32" y1="2" x2="62" y2="32"/><line class="st2" x1="62" y1="32" x2="32" y2="62"/><line class="st2" x1="32" y1="62" x2="2" y2="32"/><circle class="st2" cx="32" cy="32" r="21"/></g></g><g><path d="M49,36c-7.2,0-13,5.8-13,13s5.8,13,13,13s13-5.8,13-13S56.2,36,49,36z M47.9,57.9C43.4,57.4,40,53.5,40,49  c0-2.5,1.1-4.9,2.9-6.6L42,40.6l6,0.5L44.6,46l-0.8-1.7C42.7,45.6,42,47.2,42,49c0,3.5,2.6,6.5,6.1,6.9L47.9,57.9z M56,57.4l-6-0.5  l3.4-4.9l0.8,1.7c1.2-1.3,1.8-2.9,1.8-4.7c0-3.5-2.6-6.5-6.1-6.9l0.2-2c4.5,0.6,7.9,4.4,7.9,8.9c0,2.5-1.1,4.9-2.9,6.6L56,57.4z"/><path d="M49,2H15c-1.1,0-2,0.9-2,2v9.6c0.6-0.3,1.3-0.4,2-0.5V8h34v26c0.7,0,1.3,0.1,2,0.1V4C51,2.9,50.1,2,49,2z M39,6H25  c-0.6,0-1-0.4-1-1s0.4-1,1-1h14c0.6,0,1,0.4,1,1S39.6,6,39,6z"/><path d="M34.9,54H15V34h-2v26c0,1.1,0.9,2,2,2h26.5C38.5,60.2,36.1,57.4,34.9,54z M32,60c-1.1,0-2-0.9-2-2s0.9-2,2-2  c1.1,0,2,0.9,2,2S33.1,60,32,60z"/><path d="M28,24c0-2.8-2.2-5-5-5c-0.4,0-0.9,0.1-1.3,0.2C21,16.8,18.7,15,16,15c-2.6,0-4.8,1.7-5.7,4c-0.1,0-0.2,0-0.3,0  c-2.8,0-5,2.2-5,5v0.1c-1.7,0.4-3,2-3,3.9c0,2.2,1.8,4,4,4h22c2.2,0,4-1.8,4-4S30.2,24,28,24z"/></g></svg>
