<svg xmlns="http://www.w3.org/2000/svg" xmlns:xlink="http://www.w3.org/1999/xlink" version="1.1" x="0px" y="0px" viewBox="0 0 100 125" enable-background="new 0 0 100 100" xml:space="preserve"><g><path d="M76.1,20.1c-8.8-14.2-27.7-18.7-42-10.1c-14.5,8.8-19.2,27.7-10.5,42.2l3,5.5c-0.3,1.4-0.3,3.3,0.5,5.1  c0.9,1.9,2.5,3.2,4.8,4.1c-0.2,1.4-0.2,3.1,0.6,4.7c0.9,1.9,2.5,3.2,4.8,4.1c-0.2,1.4-0.2,3,0.6,4.6c0.9,1.9,2.5,3.2,4.8,4.1  c-0.2,1.4-0.2,3.1,0.6,4.8c1,2.2,3.2,3.8,6.3,4.6l1.3,0.3l7.7-12.6l0,0c0,0,0,0,0,0l0,0l0,0c0.1-0.2,0.5-1.2,0.7-2.5  c2.8-0.8,4.7-2.3,5.6-4.4c0.8-1.6,0.8-3.2,0.6-4.6c2.4-0.9,4-2.2,4.9-4.1c0.8-1.8,0.8-3.6,0.6-5c2.3-0.9,3.9-2.2,4.8-4.1  c0.7-1.4,0.8-2.9,0.7-4.2C83.4,41.9,81.1,28.2,76.1,20.1z M73.1,22c4.1,6.6,6.1,17.2,1.8,26.3L62.8,28c-1.2-2-2.6-2.4-3.5-2.4  c-2.1,0-3.4,2-3.6,2.4l-1.5,2.8c-4,5.8-7.9,5.9-10.1,5.4l15.4-25.2C64.9,13,69.8,16.7,73.1,22z M30.4,61.4c-0.8-1.7-0.1-3.8,0.1-4.4  l6.2-10.1c1.3,0.5,2.2,1.3,2.7,2.3c0.8,1.7,0.1,3.8-0.1,4.4l-6.2,10.2C31.7,63.1,30.8,62.4,30.4,61.4z M35.7,70.2  c-0.8-1.7-0.1-3.8,0.1-4.4L42,55.7c1.3,0.5,2.2,1.3,2.7,2.3c0.7,1.6,0.2,3.5-0.1,4.2l-6.3,10.3C37.1,71.9,36.2,71.2,35.7,70.2z   M41.1,79c-0.7-1.6-0.2-3.5,0.1-4.2l6.3-10.3c1.3,0.5,2.2,1.3,2.7,2.2c0.8,1.8,0.1,3.9-0.1,4.4l-6.1,10.1C42.5,80.7,41.6,80,41.1,79  z M49.1,90.2c-1.3-0.5-2.2-1.3-2.7-2.3c-0.8-1.7-0.1-3.9,0.1-4.4l6.2-10.1c1.3,0.5,2.2,1.3,2.7,2.3c0.8,1.8,0.1,3.9-0.1,4.4  L49.1,90.2z M72.6,55.5c-0.5,1-1.4,1.7-2.7,2.2l-8.2-13.5c-1.5-2.5-2.7-4.4-3-5c-1.2-2-4.3-0.3-4.3-0.3l2,3.3l0,0l2.7,4.5l8,13.4  c0.2,0.4,1,2.6,0.1,4.5c-0.5,1-1.4,1.7-2.7,2.3c0,0-7.9-13.1-9.2-15.2c-1.3-2.1-4.3-0.3-4.3-0.3l10.6,17.5h0c0,0,1.1,2.5,0.2,4.5  c-0.4,0.9-1.3,1.6-2.6,2.2c-0.1-0.4-0.2-0.8-0.4-1.2c-0.9-1.9-2.5-3.2-4.8-4.1c0.2-1.4,0.2-3.1-0.6-4.8c-0.9-1.9-2.5-3.2-4.8-4.1  c0.2-1.4,0.2-3-0.6-4.7c-0.9-1.9-2.5-3.2-4.8-4.1c0.2-1.4,0.2-3.1-0.6-4.7c-1-2.2-3.1-3.8-6.3-4.6l-1.3-0.3l-6.6,10.9l-1.8-3.2  c-7.8-12.9-3.6-29.6,9.2-37.4C42.1,9.3,49.3,8.4,56,9.9L39.1,37.5l1.5,0.9c0.1,0.1,8.9,5.5,16.6-5.8l1.5-2.9  c0.1-0.2,0.4-0.5,0.5-0.6c0.1,0.1,0.3,0.3,0.5,0.6L72.4,51C72.6,51.4,73.5,53.7,72.6,55.5z"/></g></svg>
