<svg width="64" height="80" viewBox="0 0 64 80" fill="none" xmlns="http://www.w3.org/2000/svg">
<g clip-path="url(#clip0)">
<path d="M43.2379 18.5H35.2861C35.0118 18.5 34.7891 18.7241 34.7891 19V27C34.7891 27.2759 35.0118 27.5 35.2861 27.5H43.2379C43.5121 27.5 43.7348 27.2759 43.7348 27V19C43.7348 18.7241 43.5121 18.5 43.2379 18.5Z" fill="white"/>
<path d="M28.3282 18.5H20.3764C20.1021 18.5 19.8794 18.7241 19.8794 19V27C19.8794 27.2759 20.1021 27.5 20.3764 27.5H28.3282C28.6024 27.5 28.8252 27.2759 28.8252 27V19C28.8252 18.7241 28.6024 18.5 28.3282 18.5Z" fill="white"/>
<path d="M43.2379 32.5H35.2861C35.0118 32.5 34.7891 32.7241 34.7891 33V41C34.7891 41.2759 35.0118 41.5 35.2861 41.5H43.2379C43.5121 41.5 43.7348 41.2759 43.7348 41V33C43.7348 32.7241 43.5121 32.5 43.2379 32.5Z" fill="white"/>
<path d="M28.3282 46.5H20.3764C20.1021 46.5 19.8794 46.7241 19.8794 47V55C19.8794 55.2759 20.1021 55.5 20.3764 55.5H28.3282C28.6024 55.5 28.8252 55.2759 28.8252 55V47C28.8252 46.7241 28.6024 46.5 28.3282 46.5Z" fill="white"/>
<path d="M58.1475 46.5H50.1957C49.9215 46.5 49.6987 46.7241 49.6987 47V55C49.6987 55.2759 49.9215 55.5 50.1957 55.5H58.1475C58.4217 55.5 58.6445 55.2759 58.6445 55V47C58.6445 46.7241 58.4217 46.5 58.1475 46.5ZM57.4317 49.9146L53.0136 52.9146C52.9282 52.9721 52.8316 53 52.736 53C52.5826 53 52.4317 52.9287 52.3346 52.7959L50.7888 50.6753C50.6267 50.4526 50.6743 50.1396 50.8956 49.976C51.1174 49.812 51.428 49.8613 51.5906 50.0835L52.8534 51.8164L56.8754 49.0854C57.1035 48.9316 57.4122 48.9912 57.5656 49.2202C57.719 49.4492 57.6593 49.7597 57.4317 49.9146Z" />
<path d="M43.2379 46.5H35.2861C35.0118 46.5 34.7891 46.7241 34.7891 47V55C34.7891 55.2759 35.0118 55.5 35.2861 55.5H43.2379C43.5121 55.5 43.7348 55.2759 43.7348 55V47C43.7348 46.7241 43.5121 46.5 43.2379 46.5Z" fill="white"/>
<path d="M13.4188 32.5H5.46696C5.19271 32.5 4.96997 32.7241 4.96997 33V41C4.96997 41.2759 5.19271 41.5 5.46696 41.5H13.4188C13.693 41.5 13.9158 41.2759 13.9158 41V33C13.9158 32.7241 13.693 32.5 13.4188 32.5Z" fill="white"/>
<path d="M13.4188 46.5H5.46696C5.19271 46.5 4.96997 46.7241 4.96997 47V55C4.96997 55.2759 5.19271 55.5 5.46696 55.5H13.4188C13.693 55.5 13.9158 55.2759 13.9158 55V47C13.9158 46.7241 13.693 46.5 13.4188 46.5Z" fill="white"/>
<path d="M28.3282 32.5H20.3764C20.1021 32.5 19.8794 32.7241 19.8794 33V41C19.8794 41.2759 20.1021 41.5 20.3764 41.5H28.3282C28.6024 41.5 28.8252 41.2759 28.8252 41V33C28.8252 32.7241 28.6024 32.5 28.3282 32.5ZM27.6123 35.9146L23.1942 38.9146C23.1088 38.9721 23.0123 39 22.9166 39C22.7633 39 22.6123 38.9287 22.5153 38.7959L20.9695 36.6753C20.8074 36.4526 20.8549 36.1396 21.0762 35.976C21.298 35.812 21.6087 35.8608 21.7712 36.0835L23.0341 37.8164L27.0561 35.0854C27.2837 34.9316 27.5924 34.9912 27.7463 35.2202C27.8996 35.4492 27.8399 35.7597 27.6123 35.9146Z" />
<path d="M58.1475 18.5H50.1957C49.9215 18.5 49.6987 18.7241 49.6987 19V27C49.6987 27.2759 49.9215 27.5 50.1957 27.5H58.1475C58.4217 27.5 58.6445 27.2759 58.6445 27V19C58.6445 18.7241 58.4217 18.5 58.1475 18.5Z" fill="white"/>
<path d="M60.6325 4.5H58.1476V3.5C58.1476 3.22363 57.9253 3 57.6506 3C57.3759 3 57.1536 3.22363 57.1536 3.5V4.5H54.1717V3.5C54.1717 3.22363 53.9494 3 53.6747 3C53.4 3 53.1777 3.22363 53.1777 3.5V4.5H50.1958V3.5C50.1958 3.22363 49.9735 3 49.6988 3C49.4241 3 49.2018 3.22363 49.2018 3.5V4.5H46.2199V3.5C46.2199 3.22363 45.9976 3 45.7229 3C45.4482 3 45.2259 3.22363 45.2259 3.5V4.5H42.244V3.5C42.244 3.22363 42.0217 3 41.747 3C41.4723 3 41.25 3.22363 41.25 3.5V4.5H38.2681V3.5C38.2681 3.22363 38.0458 3 37.7711 3C37.4964 3 37.2741 3.22363 37.2741 3.5V4.5H34.2922V3.5C34.2922 3.22363 34.0699 3 33.7952 3C33.5205 3 33.2982 3.22363 33.2982 3.5V4.5H30.3163V3.5C30.3163 3.22363 30.094 3 29.8193 3C29.5446 3 29.3223 3.22363 29.3223 3.5V4.5H26.3404V3.5C26.3404 3.22363 26.118 3 25.8434 3C25.5687 3 25.3464 3.22363 25.3464 3.5V4.5H22.3645V3.5C22.3645 3.22363 22.1421 3 21.8675 3C21.5928 3 21.3705 3.22363 21.3705 3.5V4.5H18.3886V3.5C18.3886 3.22363 18.1662 3 17.8916 3C17.6169 3 17.3946 3.22363 17.3946 3.5V4.5H14.4127V3.5C14.4127 3.22363 14.1903 3 13.9157 3C13.641 3 13.4187 3.22363 13.4187 3.5V4.5H10.4367V3.5C10.4367 3.22363 10.2144 3 9.93976 3C9.66506 3 9.44277 3.22363 9.44277 3.5V4.5H6.46084V3.5C6.46084 3.22363 6.23853 3 5.96386 3C5.68915 3 5.46687 3.22363 5.46687 3.5V4.5H2.98193C1.34196 4.5 0 5.8501 0 7.5V57.5C0 59.1499 1.34196 60.5 2.98193 60.5H60.6325C62.2725 60.5 63.6145 59.1499 63.6145 57.5V7.5C63.6145 5.8501 62.2725 4.5 60.6325 4.5ZM14.9096 55C14.9096 55.8272 14.2408 56.5 13.4187 56.5H5.46687C4.6447 56.5 3.9759 55.8272 3.9759 55V47C3.9759 46.1729 4.6447 45.5 5.46687 45.5H13.4187C14.2408 45.5 14.9096 46.1729 14.9096 47V55ZM14.9096 41C14.9096 41.8272 14.2408 42.5 13.4187 42.5H5.46687C4.6447 42.5 3.9759 41.8272 3.9759 41V33C3.9759 32.1729 4.6447 31.5 5.46687 31.5H13.4187C14.2408 31.5 14.9096 32.1729 14.9096 33V41ZM14.9096 27C14.9096 27.8272 14.2408 28.5 13.4187 28.5H5.46687C4.6447 28.5 3.9759 27.8272 3.9759 27V19C3.9759 18.1729 4.6447 17.5 5.46687 17.5H13.4187C14.2408 17.5 14.9096 18.1729 14.9096 19V27ZM29.8193 55C29.8193 55.8272 29.1505 56.5 28.3283 56.5H20.3765C19.5543 56.5 18.8855 55.8272 18.8855 55V47C18.8855 46.1729 19.5543 45.5 20.3765 45.5H28.3283C29.1505 45.5 29.8193 46.1729 29.8193 47V55ZM29.8193 41C29.8193 41.8272 29.1505 42.5 28.3283 42.5H20.3765C19.5543 42.5 18.8855 41.8272 18.8855 41V33C18.8855 32.1729 19.5543 31.5 20.3765 31.5H28.3283C29.1505 31.5 29.8193 32.1729 29.8193 33V41ZM29.8193 27C29.8193 27.8272 29.1505 28.5 28.3283 28.5H20.3765C19.5543 28.5 18.8855 27.8272 18.8855 27V19C18.8855 18.1729 19.5543 17.5 20.3765 17.5H28.3283C29.1505 17.5 29.8193 18.1729 29.8193 19V27ZM44.7289 55C44.7289 55.8272 44.0601 56.5 43.238 56.5H35.2861C34.464 56.5 33.7952 55.8272 33.7952 55V47C33.7952 46.1729 34.464 45.5 35.2861 45.5H43.238C44.0601 45.5 44.7289 46.1729 44.7289 47V55ZM44.7289 41C44.7289 41.8272 44.0601 42.5 43.238 42.5H35.2861C34.464 42.5 33.7952 41.8272 33.7952 41V33C33.7952 32.1729 34.464 31.5 35.2861 31.5H43.238C44.0601 31.5 44.7289 32.1729 44.7289 33V41ZM44.7289 27C44.7289 27.8272 44.0601 28.5 43.238 28.5H35.2861C34.464 28.5 33.7952 27.8272 33.7952 27V19C33.7952 18.1729 34.464 17.5 35.2861 17.5H43.238C44.0601 17.5 44.7289 18.1729 44.7289 19V27ZM59.6386 55C59.6386 55.8272 58.9698 56.5 58.1476 56.5H50.1958C49.3736 56.5 48.7048 55.8272 48.7048 55V47C48.7048 46.1729 49.3736 45.5 50.1958 45.5H58.1476C58.9698 45.5 59.6386 46.1729 59.6386 47V55ZM59.6386 41C59.6386 41.8272 58.9698 42.5 58.1476 42.5H50.1958C49.3736 42.5 48.7048 41.8272 48.7048 41V33C48.7048 32.1729 49.3736 31.5 50.1958 31.5H58.1476C58.9698 31.5 59.6386 32.1729 59.6386 33V41ZM59.6386 27C59.6386 27.8272 58.9698 28.5 58.1476 28.5H50.1958C49.3736 28.5 48.7048 27.8272 48.7048 27V19C48.7048 18.1729 49.3736 17.5 50.1958 17.5H58.1476C58.9698 17.5 59.6386 18.1729 59.6386 19V27ZM62.6205 13.5H0.993976V7.5C0.993976 6.39694 1.88551 5.5 2.98193 5.5H5.46687V6.5C5.46687 6.77634 5.68915 7 5.96386 7C6.23853 7 6.46084 6.77634 6.46084 6.5V5.5H9.44277V6.5C9.44277 6.77634 9.66506 7 9.93976 7C10.2144 7 10.4367 6.77634 10.4367 6.5V5.5H13.4187V6.5C13.4187 6.77634 13.641 7 13.9157 7C14.1903 7 14.4127 6.77634 14.4127 6.5V5.5H17.3946V6.5C17.3946 6.77634 17.6169 7 17.8916 7C18.1662 7 18.3886 6.77634 18.3886 6.5V5.5H21.3705V6.5C21.3705 6.77634 21.5928 7 21.8675 7C22.1421 7 22.3645 6.77634 22.3645 6.5V5.5H25.3464V6.5C25.3464 6.77634 25.5687 7 25.8434 7C26.118 7 26.3404 6.77634 26.3404 6.5V5.5H29.3223V6.5C29.3223 6.77634 29.5446 7 29.8193 7C30.094 7 30.3163 6.77634 30.3163 6.5V5.5H33.2982V6.5C33.2982 6.77634 33.5205 7 33.7952 7C34.0699 7 34.2922 6.77634 34.2922 6.5V5.5H37.2741V6.5C37.2741 6.77634 37.4964 7 37.7711 7C38.0458 7 38.2681 6.77634 38.2681 6.5V5.5H41.25V6.5C41.25 6.77634 41.4723 7 41.747 7C42.0217 7 42.244 6.77634 42.244 6.5V5.5H45.2259V6.5C45.2259 6.77634 45.4482 7 45.7229 7C45.9976 7 46.2199 6.77634 46.2199 6.5V5.5H49.2018V6.5C49.2018 6.77634 49.4241 7 49.6988 7C49.9735 7 50.1958 6.77634 50.1958 6.5V5.5H53.1777V6.5C53.1777 6.77634 53.4 7 53.6747 7C53.9494 7 54.1717 6.77634 54.1717 6.5V5.5H57.1536V6.5C57.1536 6.77634 57.3759 7 57.6506 7C57.9253 7 58.1476 6.77634 58.1476 6.5V5.5H60.6325C61.7289 5.5 62.6205 6.39694 62.6205 7.5V13.5Z"/>
<path d="M58.1475 32.5H50.1957C49.9215 32.5 49.6987 32.7241 49.6987 33V41C49.6987 41.2759 49.9215 41.5 50.1957 41.5H58.1475C58.4217 41.5 58.6445 41.2759 58.6445 41V33C58.6445 32.7241 58.4217 32.5 58.1475 32.5Z" fill="white"/>
<path d="M13.4188 18.5H5.46696C5.19271 18.5 4.96997 18.7241 4.96997 19V27C4.96997 27.2759 5.19271 27.5 5.46696 27.5H13.4188C13.693 27.5 13.9158 27.2759 13.9158 27V19C13.9158 18.7241 13.693 18.5 13.4188 18.5Z" fill="white"/>
</g>
<defs>
<clipPath id="clip0">
<rect width="63.6145" height="80" fill="white"/>
</clipPath>
</defs>
</svg>
