<svg xmlns="http://www.w3.org/2000/svg" xmlns:xlink="http://www.w3.org/1999/xlink" viewBox="0 0 103 117.5" version="1.1" x="0px" y="0px"><g stroke="none" stroke-width="1" fill="none" fill-rule="evenodd"><g transform="translate(-655.000000, -772.000000)" fill="#000000"><g transform="translate(297.000000, 484.000000)"><g transform="translate(242.000000, 288.000000)"><g transform="translate(116.000000, 0.000000)"><path d="M52.6465517,64.7551724 C41.0534483,64.7551724 31.65,55.3517241 31.65,43.7586207 C31.65,32.162069 41.0534483,22.762069 52.6465517,22.762069 C64.2431034,22.762069 73.6431034,32.162069 73.6431034,43.7586207 C73.6431034,55.3517241 64.2431034,64.7551724 52.6465517,64.7551724 M100.548966,82.2258621 C103.242069,84.9189655 103.242069,89.287931 100.548966,91.9810345 C97.8558621,94.6741379 93.4903448,94.6741379 90.7972414,91.9810345 L69.1110345,70.2948276 C64.3248276,73.2741379 58.6972414,75.0258621 52.6455172,75.0258621 C35.3662069,75.0258621 21.3524138,61.0155172 21.3524138,43.7293103 C21.3524138,26.4465517 35.3662069,12.4362069 52.6455172,12.4362069 C69.9317241,12.4362069 83.942069,26.4465517 83.942069,43.7293103 C83.942069,49.9637931 82.0937931,55.7534483 78.9524138,60.6293103 L100.548966,82.2258621 Z M98.1006897,89.5465517 C99.4489655,88.1982759 99.4489655,86.0224138 98.1006897,84.6775862 L74.617931,61.1913793 L74.6248276,61.1810345 L74.4317241,60.9913793 C78.1937931,56.2431034 80.4524138,50.2534483 80.4524138,43.7293103 C80.4524138,28.35 67.9868966,15.8844828 52.6075862,15.8844828 C37.2282759,15.8844828 24.7558621,28.35 24.7558621,43.7293103 C24.7558621,59.1086207 37.2282759,71.5775862 52.6075862,71.5775862 C58.9765517,71.5775862 64.8351724,69.412069 69.5282759,65.8086207 L71.9937931,68.2982759 C71.9937931,68.2982759 71.9903448,68.3017241 71.9868966,68.3017241 L93.2317241,89.5465517 C94.5765517,90.8913793 96.7558621,90.8913793 98.1006897,89.5465517 Z M52.6465517,19.3103448 C66.1465517,19.3103448 77.0913793,30.2586207 77.0913793,43.7586207 C77.0913793,57.2586207 66.1465517,68.2034483 52.6465517,68.2034483 C39.1465517,68.2034483 28.2017241,57.2586207 28.2017241,43.7586207 C28.2017241,30.2586207 39.1465517,19.3103448 52.6465517,19.3103448 Z M36.7958621,45.5606897 C35.8682759,45.7675862 35.2855172,46.6813793 35.4889655,47.6089655 C35.6924138,48.5365517 36.6096552,49.1227586 37.5372414,48.9193103 C38.4648276,48.7158621 39.0510345,47.7951724 38.8475862,46.8710345 C38.6406897,45.94 37.7268966,45.3537931 36.7958621,45.5606897 Z M54.2831034,28.3631034 C54.3175862,28.2286207 54.3658621,28.1010345 54.3658621,27.9562069 C54.3658621,27.9424138 54.3555172,27.9286207 54.3555172,27.9148276 C54.3555172,27.9010345 54.3624138,27.8872414 54.3624138,27.8768966 C54.3589655,27.7665517 54.3141379,27.67 54.2865517,27.5665517 C54.2624138,27.4596552 54.252069,27.3527586 54.2106897,27.2562069 C54.2003448,27.2286207 54.1727586,27.2044828 54.1589655,27.1768966 C53.8727586,26.6251724 53.3141379,26.2355172 52.6451724,26.2355172 C51.2451724,26.2458621 45.5175862,26.432069 40.7003448,30.8872414 C36.952069,34.3493103 35.8210345,38.4734483 35.4762069,40.0631034 C35.3693103,40.67 35.6175862,41.2424138 36.0451724,41.6286207 C36.0934483,41.6665517 36.127931,41.7182759 36.1796552,41.7562069 C36.2589655,41.8113793 36.3486207,41.8424138 36.4382759,41.8872414 C36.5244828,41.9286207 36.5968966,41.9872414 36.6865517,42.0148276 C36.7141379,42.0217241 36.7451724,42.0113793 36.7762069,42.0182759 C36.8106897,42.0286207 36.8313793,42.0493103 36.8658621,42.0562069 C36.9934483,42.0803448 37.1141379,42.0527586 37.2382759,42.0458621 C37.2934483,42.0424138 37.352069,42.0527586 37.4072414,42.0424138 C38.1210345,41.9389655 38.727931,41.4113793 38.8589655,40.6596552 C39.1244828,39.5251724 40.2037931,35.5631034 44.0451724,32.6113793 C47.6348276,29.8562069 51.4313793,29.6803448 52.6451724,29.6734483 C53.3796552,29.6734483 53.9934483,29.2113793 54.2417241,28.57 C54.2693103,28.5010345 54.2658621,28.432069 54.2831034,28.3631034 Z M15.2341379,23.9148276 C15.5272414,23.9148276 15.7582759,24.1493103 15.7582759,24.4389655 L15.7582759,26.0148276 C15.7582759,26.3044828 15.5272414,26.5424138 15.2341379,26.5424138 L11.0306897,26.5424138 C10.7410345,26.5424138 10.5065517,26.3044828 10.5065517,26.0148276 L10.5065517,24.4389655 C10.5065517,24.1493103 10.7410345,23.9148276 11.0306897,23.9148276 L15.2341379,23.9148276 Z M4.72758621,23.9148276 C5.01724138,23.9148276 5.25172414,24.1493103 5.25172414,24.4389655 L5.25172414,26.0148276 C5.25172414,26.3044828 5.01724138,26.5424138 4.72758621,26.5424138 L0.524137931,26.5424138 C0.234482759,26.5424138 0,26.3044828 0,26.0148276 L0,24.4389655 C0,24.1493103 0.234482759,23.9148276 0.524137931,23.9148276 L4.72758621,23.9148276 Z M8.70793103,27.8548276 C8.99758621,27.8548276 9.23206897,28.0893103 9.23206897,28.3789655 L9.23206897,32.5824138 C9.23206897,32.872069 8.99758621,33.1065517 8.70793103,33.1065517 L7.13206897,33.1065517 C6.84241379,33.1065517 6.60793103,32.872069 6.60793103,32.5824138 L6.60793103,28.3789655 C6.60793103,28.0893103 6.84241379,27.8548276 7.13206897,27.8548276 L8.70793103,27.8548276 Z M8.70793103,17.3482759 C8.99758621,17.3482759 9.23206897,17.5827586 9.23206897,17.8724138 L9.23206897,22.0758621 C9.23206897,22.3655172 8.99758621,22.6 8.70793103,22.6 L7.13206897,22.6 C6.84241379,22.6 6.60793103,22.3655172 6.60793103,22.0758621 L6.60793103,17.8724138 C6.60793103,17.5827586 6.84241379,17.3482759 7.13206897,17.3482759 L8.70793103,17.3482759 Z M33.6610345,9.49551724 L31.4955172,7.33 C31.3437931,7.18172414 31.3437931,6.94034483 31.4955172,6.78862069 L32.3058621,5.97482759 C32.4541379,5.82655172 32.6989655,5.82655172 32.8506897,5.97482759 L35.0162069,8.14034483 C35.167931,8.29206897 35.167931,8.53689655 35.0162069,8.68517241 L34.2024138,9.49551724 C34.0506897,9.64724138 33.8093103,9.64724138 33.6610345,9.49551724 Z M28.2458621,4.08034483 L26.0803448,1.91482759 C25.9286207,1.76310345 25.9286207,1.52172414 26.0768966,1.37344828 L26.8906897,0.559655172 C27.0389655,0.41137931 27.2837931,0.41137931 27.4355172,0.559655172 L29.6010345,2.72517241 C29.7493103,2.87344828 29.7493103,3.11827586 29.6010345,3.27 L28.7872414,4.08034483 C28.6355172,4.22862069 28.3941379,4.22862069 28.2458621,4.08034483 Z M28.8082759,5.99655172 L29.6186207,6.80689655 C29.7668966,6.95862069 29.7668966,7.20344828 29.6186207,7.35172414 L27.4531034,9.51724138 C27.3013793,9.66551724 27.06,9.66551724 26.9117241,9.51724138 L26.1013793,8.70344828 C25.9496552,8.55517241 25.9496552,8.3137931 26.1013793,8.16206897 L28.2668966,5.99655172 C28.4151724,5.84827586 28.6565517,5.84827586 28.8082759,5.99655172 Z M32.3272414,4.10068966 L31.5168966,3.29034483 C31.3686207,3.14206897 31.3686207,2.89724138 31.5168966,2.74551724 L33.6824138,0.58 C33.8341379,0.431724138 34.0755172,0.431724138 34.2237931,0.58 L35.0341379,1.3937931 C35.1858621,1.54206897 35.1858621,1.78344828 35.0341379,1.93517241 L32.8686207,4.10068966 C32.7203448,4.25241379 32.4789655,4.25241379 32.3272414,4.10068966 Z M55.8658621,57.5858621 C55.7072414,57.5858621 55.552069,57.647931 55.4348276,57.7651724 L54.1382759,59.0582759 C53.9037931,59.2962069 53.9037931,59.6824138 54.1382759,59.9203448 C54.5313793,60.3134483 54.927931,60.7031034 55.3175862,61.0996552 C55.8348276,61.0203448 56.4003448,60.9134483 57.0003448,60.7617241 C57.6486207,60.5962069 58.2313793,60.41 58.752069,60.2203448 L56.2968966,57.7651724 C56.2658621,57.7375862 56.1106897,57.5858621 55.8658621,57.5858621 Z M49.827931,54.7472414 L51.1210345,53.4506897 C51.3589655,53.2127586 51.3589655,52.8265517 51.1210345,52.5886207 L47.6693103,49.1368966 C47.4313793,48.9024138 47.0451724,48.9024138 46.8072414,49.1368966 L45.5141379,50.4334483 C45.2762069,50.667931 45.2762069,51.0575862 45.5141379,51.2955172 L48.9624138,54.7437931 C49.2003448,54.9817241 49.59,54.9817241 49.827931,54.7472414 Z M49.8617241,57.7982759 C49.6237931,57.5603448 49.2341379,57.5603448 48.9962069,57.7982759 C48.1893103,58.6086207 47.3755172,59.4189655 46.5651724,60.2293103 C47.0617241,60.4189655 47.6203448,60.5982759 48.2410345,60.7534483 C48.8824138,60.9189655 49.4789655,61.0258621 50.0134483,61.0948276 L51.1548276,59.9534483 C51.1824138,59.9258621 51.3341379,59.7706897 51.3341379,59.5224138 C51.3341379,59.3672414 51.272069,59.212069 51.1548276,59.0913793 L49.8617241,57.7982759 Z M58.4858621,49.1706897 C58.247931,48.9362069 57.8617241,48.9362069 57.6237931,49.1706897 L54.172069,52.6224138 C53.9375862,52.8603448 53.9375862,53.2465517 54.172069,53.4844828 L55.4686207,54.7775862 C55.7031034,55.0155172 56.0927586,55.0155172 56.3306897,54.7775862 L59.7789655,51.3293103 C60.0168966,51.0913793 60.0168966,50.7017241 59.7824138,50.4672414 L58.4858621,49.1706897 Z"/></g></g></g></g></g></svg>
