<svg xmlns="http://www.w3.org/2000/svg" xmlns:xlink="http://www.w3.org/1999/xlink" version="1.1" x="0px" y="0px" viewBox="0 0 100 125" enable-background="new 0 0 100 100" xml:space="preserve"><g><g><path fill="none" d="M58.611,57.144h1.783L50,46.75L39.606,57.144h1.783c1.308,0,2.368,1.06,2.368,2.368v12.295    c0,0.003,0.001,0.006,0.001,0.009s-0.001,0.006-0.001,0.009v4.011h12.485V59.512C56.243,58.204,57.303,57.144,58.611,57.144z"/><path fill="none" d="M76.331,44.45c-1.614-0.152-2.86-1.498-2.897-3.133c-0.143-6.252-2.187-11.094-5.909-14.001    c-2.677-2.092-6.088-3.152-10.137-3.152c-7.577,0-11.584,7.964-12.631,10.405c-0.383,0.893-1.139,1.555-2.073,1.816    c-0.941,0.261-1.938,0.086-2.737-0.486c-1.715-1.228-6.336-3.784-12.185-1.035c-5.818,2.734-5.872,8.779-5.625,11.252    c0.083,0.834-0.154,1.655-0.668,2.312c-0.533,0.681-1.331,1.121-2.19,1.205C15.591,50,9.737,53.335,9.737,60.73    c0,2.639,0.882,4.79,2.621,6.392c1.628,1.5,3.877,2.325,6.335,2.325h20.328v-7.567h-5.132c-0.958,0-1.822-0.577-2.188-1.462    c-0.367-0.885-0.164-1.904,0.513-2.581l16.111-16.111c0.924-0.925,2.425-0.925,3.349,0l16.112,16.111    c0.678,0.677,0.88,1.696,0.513,2.581c-0.366,0.885-1.23,1.462-2.188,1.462h-5.132v7.567h18.794    c1.01-0.037,10.49-0.711,10.49-12.412C90.263,46.577,79.6,44.758,76.331,44.45z"/><path d="M78.114,39.893c-0.437-7.097-3.075-12.717-7.674-16.309c-3.48-2.719-7.994-4.156-13.053-4.156    c-9.042,0-14.134,7.572-16.217,11.646c-3.067-1.727-8.666-3.671-15.423-0.496c-7.604,3.573-8.484,10.91-8.408,14.582    C12.048,46.331,5,51.135,5,60.73c0,3.961,1.434,7.375,4.148,9.875c2.504,2.308,5.894,3.579,9.544,3.579h20.328v4.02    c0,1.308,1.06,2.368,2.368,2.368h17.222c1.308,0,2.368-1.06,2.368-2.368v-4.02l18.853-0.001C85.079,74.052,95,70.299,95,57.035    C95,46.127,86.513,41.085,78.114,39.893z M56.243,75.836H43.757v-4.011c0-0.003,0.001-0.006,0.001-0.009s-0.001-0.006-0.001-0.009    V59.512c0-1.308-1.06-2.368-2.368-2.368h-1.783L50,46.75l10.394,10.393h-1.783c-1.308,0-2.368,1.06-2.368,2.368V75.836z     M79.774,69.447H60.979v-7.567h5.132c0.958,0,1.822-0.577,2.188-1.462c0.367-0.885,0.164-1.904-0.513-2.581L51.674,41.726    c-0.924-0.925-2.425-0.925-3.349,0L32.214,57.838c-0.678,0.677-0.88,1.696-0.513,2.581c0.366,0.885,1.23,1.462,2.188,1.462h5.132    v7.567H18.692c-2.458,0-4.707-0.826-6.335-2.325c-1.739-1.602-2.621-3.753-2.621-6.392c0-7.395,5.854-10.73,9.543-11.095    c0.859-0.085,1.657-0.524,2.19-1.205c0.514-0.657,0.751-1.478,0.668-2.312c-0.247-2.473-0.194-8.518,5.625-11.252    c5.85-2.75,10.47-0.193,12.185,1.035c0.798,0.571,1.795,0.747,2.737,0.486c0.934-0.26,1.689-0.922,2.073-1.816    c1.048-2.441,5.055-10.405,12.631-10.405c4.049,0,7.459,1.06,10.137,3.152c3.723,2.908,5.766,7.75,5.909,14.001    c0.037,1.634,1.283,2.981,2.897,3.133c3.269,0.308,13.932,2.126,13.932,12.585C90.263,68.736,80.783,69.41,79.774,69.447z"/></g></g></svg>
