<svg xmlns="http://www.w3.org/2000/svg" xmlns:xlink="http://www.w3.org/1999/xlink" viewBox="0 0 128 160" version="1.1" x="0px" y="0px"><title>047 man profile boy avatar human people smile</title><desc>Created with Sketch.</desc><g stroke="none" stroke-width="1" fill="none" fill-rule="evenodd"><g transform="translate(-640.000000, -64.000000)"><g transform="translate(64.000000, 64.000000)" fill="#000000" fill-rule="nonzero"><path d="M640,128 C604.653776,128 576,99.346224 576,64 C576,28.653776 604.653776,0 640,0 C675.346224,0 704,28.653776 704,64 C704,99.346224 675.346224,128 640,128 Z M640,126 C674.241654,126 702,98.2416545 702,64 C702,29.7583455 674.241654,2 640,2 C605.758346,2 578,29.7583455 578,64 C578,98.2416545 605.758346,126 640,126 Z"/></g><g transform="translate(95.000000, 148.000000)" fill="#000000" fill-rule="nonzero"><g transform="translate(576.000000, 0.000000)"><path d="M36.7883416,43 L35.7659574,43 L34.7878515,42.7918924 L42.0218941,8.79189236 C42.1424493,8.22528268 42.7177173,7.87933209 43.2747211,8.03847605 L50.2747211,10.0384761 C50.6745879,10.1527237 50.9620098,10.5025233 50.9965458,10.9169545 L51.9965458,22.9169545 C52.0451307,23.4999738 51.5850401,24 51,24 L47.9431893,24 L51.8137335,29.4187618 C52.0589509,29.7620663 52.0623351,30.2223369 51.8221922,30.56921 L43.2162606,43 L42,43 L41.1778078,42.43079 L49.7775166,30.0089884 L45.1862665,23.5812382 C44.7135033,22.9193697 45.1866274,22 46,22 L49.9132005,22 L49.0608408,11.7716845 L43.7551957,10.2557859 L36.7883416,43 Z M24,43 L22.7837394,43 L14.1778078,30.56921 C13.9376649,30.2223369 13.9410491,29.7620663 14.1862665,29.4187618 L18.0568107,24 L15,24 C14.4149599,24 13.9548693,23.4999738 14.0034542,22.9169545 L15.0034542,10.9169545 C15.0379902,10.5025233 15.3254121,10.1527237 15.7252789,10.0384761 L22.7252789,8.03847605 C23.2822827,7.87933209 23.8575507,8.22528268 23.9781059,8.79189236 L31.2121485,42.7918924 L30.2340426,43 L29.2116584,43 L22.2448043,10.2557859 L16.9391592,11.7716845 L16.0867995,22 L20,22 C20.8133726,22 21.2864967,22.9193697 20.8137335,23.5812382 L16.2224834,30.0089884 L24.8221922,42.43079 L24,43 Z"/><path d="M42,11.2058567 L42,13.2483668 C39.4822605,13.7507511 36.4835531,14 33,14 C29.5164469,14 26.5177395,13.7507511 24,13.2483668 L24,11.2058567 C26.4491472,11.7337502 29.4506792,12 33,12 C36.5493208,12 39.5508528,11.7337502 42,11.2058567 Z"/><path d="M65.3368686,35 L63.3299362,35 L62.2517257,22.0614745 C62.1294417,20.5940657 61.2108284,19.3124985 59.8604472,18.7253762 L50,14.4382253 L50,12.2573668 L60.6578994,16.8912361 C62.6834712,17.7719195 64.0613912,19.6942703 64.2448173,21.8953836 L65.3368686,35 Z M0.663269533,35 L1.7553209,21.8953836 C1.93874701,19.6942703 3.31666692,17.7719195 5.34223878,16.8912361 L16,12.2574269 L16,14.4382854 L6.13969101,18.7253762 C4.78930976,19.3124985 3.87069649,20.5940657 3.74841242,22.0614745 L2.67020196,35 L0.663269533,35 Z M43,9.18593686 L43,11.394747 L42.6077124,11.2241872 C40.4170526,10.2717264 39.0000691,8.11052635 39.0000691,5.72176687 L39.0000691,5.68434189e-14 L41.0000691,5.68434189e-14 L41.0000691,5.72176687 C41.0000691,7.16170626 41.7723933,8.47761483 43,9.18593686 Z M23,9.18601657 C24.2276869,8.47771356 25.0000691,7.16176028 25.0000691,5.72176687 L25.0000691,1.13686838e-13 L27.0000691,0 L27.0000691,5.72176687 C27.0000691,8.11052635 25.5830855,10.2717264 23.3924257,11.2241872 L23,11.3948071 L23,9.18601657 Z"/></g></g><g transform="translate(104.000000, 103.000000)" fill="#000000" fill-rule="nonzero"><path d="M610.2,5.4 C610.617971,4.84270532 611.463432,4.87283183 611.840677,5.45846262 C615.825959,11.6451717 619.646579,15.5356369 623.250499,17.1460293 C623.575369,17.2911958 623.798629,17.598058 623.83677,17.9518364 C623.945295,18.9584696 624,19.9756758 624,21 C624,35.3416449 613.274313,47 600,47 C586.725687,47 576,35.3416449 576,21 C576,19.4249481 576.129343,17.8673057 576.384482,16.3399296 L576.398745,16.2700035 C576.913207,14.1391098 577.934405,11.2377503 579.463797,7.550785 L579.516869,7.44196968 C579.615508,7.26741263 579.716047,7.09412267 579.818463,6.92213561 C580.184708,6.30709569 581.059675,6.26481036 581.483522,6.84166678 C582.997385,8.90203551 584.752638,10.3674541 586.761054,11.2530712 C585.736752,9.10908496 585.485495,6.93491559 586.029857,4.75746437 C586.236235,3.93195603 587.313716,3.72499495 587.811248,4.41529748 C591.055364,8.91635964 595.332322,11.9272267 600.67377,13.4641069 C599.47569,11.0314034 598.919716,8.19661729 599.000313,4.97499048 C599.024032,4.02688675 600.23096,3.6412797 600.8,4.4 C603.688205,8.25093969 606.56254,11.2011574 609.415547,13.2554534 C608.274072,10.2925849 608.513384,7.64882163 610.2,5.4 Z M578,21 C578,34.2725926 587.869215,45 600,45 C612.130785,45 622,34.2725926 622,21 C622,20.2350896 621.967216,19.4747214 621.902094,18.7205238 C618.342044,16.9484445 614.741265,13.3417323 611.063858,7.91154294 C610.267772,9.9608223 610.826872,12.4375317 612.83205,15.4452998 C613.400875,16.2985364 612.469988,17.3530281 611.552786,16.8944272 C608.056647,15.1463573 604.591675,12.2012571 601.146819,8.06624182 C601.465105,10.5192994 602.275701,12.6299821 603.574023,14.4109077 C604.110843,15.1472706 603.463411,16.1592947 602.569841,15.9805807 C596.532037,14.7730198 591.590039,11.9700734 587.775015,7.58770221 C587.907707,9.17202034 588.576947,10.7692628 589.8,12.4 C590.35075,13.1343327 589.703974,14.1605988 588.803884,13.9805807 C585.739735,13.367751 583.099775,11.8023497 580.903949,9.31004518 C579.644843,12.4173665 578.793598,14.8859498 578.351279,16.704744 C578.118206,18.1119935 578,19.547559 578,21 Z"/></g><g transform="translate(98.000000, 80.000000)" fill="#000000" fill-rule="nonzero"><path d="M633.549854,42 C633.851322,39.9450498 634,37.7240053 634,35.3333333 C634,20.5296535 623.202917,8 606,8 C588.797083,8 578,20.5296535 578,35.3333333 C578,37.7240053 578.148678,39.9450498 578.450146,42 L580.468171,42 C580.153674,39.9646784 580,37.7444964 580,35.3333333 C580,21.5736011 589.973231,10 606,10 C622.026769,10 632,21.5736011 632,35.3333333 C632,37.7444964 631.846326,39.9646784 631.531829,42 L633.549854,42 Z"/></g><g transform="translate(99.000000, 120.000000)" fill="#000000" fill-rule="nonzero"><path d="M628.430245,2.36899808 L627.34774,0.687277704 C628.037241,0.243453857 628.772281,0 629.5,0 C632.346612,0 634,2.45221779 634,6.5 C634,10.7391277 630.628356,16 627.5,16 C626.539109,16 625.747267,15.5884002 625.187218,14.8393338 L626.789013,13.641731 C626.977913,13.8943848 627.181097,14 627.5,14 C629.289778,14 632,9.77116321 632,6.5 C632,3.42828145 631.036993,2 629.5,2 C629.182149,2 628.894639,2.07007264 628.430245,2.36899808 Z M583.210987,13.641731 L584.812782,14.8393338 C584.252733,15.5884002 583.460891,16 582.5,16 C579.371644,16 576,10.7391277 576,6.5 C576,2.45221779 577.653388,0 580.5,0 C581.227719,0 581.962759,0.243453857 582.65226,0.687277704 L581.569755,2.36899808 C581.185859,2.12188843 580.817851,2 580.5,2 C578.963007,2 578,3.42828145 578,6.5 C578,9.77116321 580.710222,14 582.5,14 C582.818903,14 583.022087,13.8943848 583.210987,13.641731 Z"/></g><g transform="translate(113.000000, 126.000000)" fill="#000000" fill-rule="nonzero"><g transform="translate(576.000000, 0.000000)"><path d="M9.5547002,16.8320503 C9.09517151,17.1384028 8.47430216,17.0142289 8.16794971,16.5547002 C7.86159725,16.0951715 7.98577112,15.4743022 8.4452998,15.1679497 C10.6023438,13.7299204 12.792105,13 15,13 C17.207895,13 19.3976562,13.7299204 21.5547002,15.1679497 C22.0142289,15.4743022 22.1384028,16.0951715 21.8320503,16.5547002 C21.5256978,17.0142289 20.9048285,17.1384028 20.4452998,16.8320503 C18.6023438,15.6034129 16.792105,15 15,15 C13.207895,15 11.3976562,15.6034129 9.5547002,16.8320503 Z" transform="translate(15.000000, 15.000053) scale(1, -1) translate(-15.000000, -15.000053) "/><path d="M8,4 C8,4.55228475 7.55228475,5 7,5 C6.44771525,5 6,4.55228475 6,4 C6,2.8954305 5.1045695,2 4,2 C2.8954305,2 2,2.8954305 2,4 C2,4.55228475 1.55228475,5 1,5 C0.44771525,5 0,4.55228475 0,4 C0,1.790861 1.790861,0 4,0 C6.209139,0 8,1.790861 8,4 Z"/><path d="M30,4 C30,4.55228475 29.5522847,5 29,5 C28.4477153,5 28,4.55228475 28,4 C28,2.8954305 27.1045695,2 26,2 C24.8954305,2 24,2.8954305 24,4 C24,4.55228475 23.5522847,5 23,5 C22.4477153,5 22,4.55228475 22,4 C22,1.790861 23.790861,0 26,0 C28.209139,0 30,1.790861 30,4 Z"/></g></g></g></g></svg>
