<svg xmlns="http://www.w3.org/2000/svg" xmlns:xlink="http://www.w3.org/1999/xlink" viewBox="0 0 128 160" version="1.1" x="0px" y="0px"><title>047 girl avatar profile woman suit</title><desc>Created with Sketch.</desc><g stroke="none" stroke-width="1" fill="none" fill-rule="evenodd"><g transform="translate(-640.000000, -64.000000)"><g transform="translate(64.000000, 64.000000)" fill="#000000" fill-rule="nonzero"><path d="M640,128 C604.653776,128 576,99.346224 576,64 C576,28.653776 604.653776,0 640,0 C675.346224,0 704,28.653776 704,64 C704,99.346224 675.346224,128 640,128 Z M640,126 C674.241654,126 702,98.2416545 702,64 C702,29.7583455 674.241654,2 640,2 C605.758346,2 578,29.7583455 578,64 C578,98.2416545 605.758346,126 640,126 Z"/><g transform="translate(607.000000, 18.000000)"><path d="M19.468515,74.8805569 L20.3519706,75.349072 L19.4149405,77.115983 L18.531485,76.647468 C6.25635405,70.1377079 2.20934382e-13,54.5051188 0,33 C0,14.7746033 14.7746033,0 33,0 C51.2253967,0 66,14.7746033 66,33 C66,54.5051188 59.7436459,70.1377079 47.468515,76.647468 L46.5850595,77.115983 L45.6480294,75.349072 L46.531485,74.8805569 C58.0185995,68.7886985 64,53.8431287 64,33 C64,15.8791728 50.1208272,2 33,2 C15.8791728,2 2,15.8791728 2,33 C2,53.8431287 7.98140052,68.7886985 19.468515,74.8805569 Z"/><path d="M65.2534662,100 L63.2465338,100 L62.4998591,91.0399036 C62.2247199,87.7382337 60.1578401,84.8547075 57.1194823,83.5336824 L49.6012739,80.2648961 L50.3987261,78.430756 L57.9169345,81.6995423 C61.6304829,83.3141286 64.1566694,86.8384383 64.4929506,90.8738126 L65.2534662,100 Z M0.746533785,100 L1.5070494,90.8738126 C1.84333059,86.8384383 4.36951709,83.3141286 8.08306552,81.6995423 L15.6012739,78.430756 L16.3987261,80.2648961 L8.88051774,83.5336824 C5.84215994,84.8547075 3.77528007,87.7382337 3.50014092,91.0399036 L2.75346621,100 L0.746533785,100 Z M24.1054668,76.8557522 L23.070695,75.1442478 C24.2647775,74.4223082 25,73.1249972 25,71.7217669 L25,66 L27,66 L27,71.7217669 C27,73.8267124 25.8973252,75.7723986 24.1054668,76.8557522 Z M39,66 L41,66 L41,71.7217669 C41,73.1249972 41.7352225,74.4223082 42.929305,75.1442478 L41.8945332,76.8557522 C40.1026748,75.7723986 39,73.8267124 39,71.7217669 L39,66 Z"/><g transform="translate(14.000000, 74.000000)"><path d="M11.7674384,13.9725817 L12.2325616,12.0274183 C14.9503152,12.6772815 17.2093447,13 19,13 C20.7906553,13 23.0496848,12.6772815 25.7674384,12.0274183 L26.2325616,13.9725817 C23.3742622,14.6560518 20.966625,15 19,15 C17.033375,15 14.6257378,14.6560518 11.7674384,13.9725817 Z"/><path d="M23.0011076,34 L20.9563393,34 L28.0218941,0.791892356 C28.1424493,0.225282679 28.7177173,-0.120667906 29.2747211,0.0384760524 L36.2747211,2.03847605 C36.6745879,2.15272369 36.9620098,2.50252333 36.9965458,2.91695452 L37.9965458,14.9169545 C38.0451307,15.4999738 37.5850401,16 37,16 L33.9431893,16 L37.8137335,21.4187618 C38.0589509,21.7620663 38.0623351,22.2223369 37.8221922,22.56921 L29.9085683,34 L27.4760471,34 L35.7775166,22.0089884 L31.1862665,15.5812382 C30.7135033,14.9193697 31.1866274,14 32,14 L35.9132005,14 L35.0608408,3.77168451 L29.7551957,2.25578589 L23.0011076,34 Z M10.5239529,34 L8.09143167,34 L0.177807808,22.56921 C-0.0623350977,22.2223369 -0.0589509378,21.7620663 0.186266529,21.4187618 L4.05681068,16 L1,16 C0.414959853,16 -0.045130698,15.4999738 0.00345424176,14.9169545 L1.00345424,2.91695452 C1.03799017,2.50252333 1.32541212,2.15272369 1.72527887,2.03847605 L8.72527887,0.0384760524 C9.28228273,-0.120667906 9.85755068,0.225282679 9.97810593,0.791892356 L17.0436607,34 L14.9988924,34 L8.24480434,2.25578589 L2.93915917,3.77168451 L2.08679955,14 L6,14 C6.81337256,14 7.28649667,14.9193697 6.81373347,15.5812382 L2.22248335,22.0089884 L10.5239529,34 Z"/></g><g transform="translate(4.000000, 21.000000)"><path d="M52.4302448,19.3689981 C51.9658506,19.6679235 51.3470577,19.5337845 51.0481322,19.0693903 C50.7492068,18.604996 50.8833458,17.9862031 51.34774,17.6872777 C52.0372406,17.2434539 52.7722806,17 53.5,17 C56.3466123,17 58,19.4522178 58,23.5 C58,27.7391277 54.6283559,33 51.5,33 C50.5391088,33 49.7472671,32.5884002 49.187218,31.8393338 C48.8565091,31.3970103 48.9469907,30.7703438 49.3893142,30.4396349 C49.8316377,30.108926 50.4583042,30.1994075 50.7890131,30.641731 C50.9779129,30.8943848 51.181097,31 51.5,31 C53.2897778,31 56,26.7711632 56,23.5 C56,20.4282815 55.036993,19 53.5,19 C53.1821485,19 52.8141409,19.1218884 52.4302448,19.3689981 Z M7.2109869,30.641731 C7.54169577,30.1994075 8.16836234,30.108926 8.61068584,30.4396349 C9.05300935,30.7703438 9.14349088,31.3970103 8.81278201,31.8393338 C8.25273289,32.5884002 7.46089121,33 6.5,33 C3.37164411,33 6.30606678e-14,27.7391277 6.30606678e-14,23.5 C6.30606678e-14,19.4522178 1.65338765,17 4.5,17 C5.2277194,17 5.96275944,17.2434539 6.65225996,17.6872777 C7.11665422,17.9862031 7.2507932,18.604996 6.95186776,19.0693903 C6.65294233,19.5337845 6.03414945,19.6679235 5.56975519,19.3689981 C5.18585912,19.1218884 4.81785149,19 4.5,19 C2.96300701,19 2,20.4282815 2,23.5 C2,26.7711632 4.71022218,31 6.5,31 C6.81890298,31 7.02208708,30.8943848 7.2109869,30.641731 Z"/><path d="M29.069231,3.96137744 C28.9403299,2.91947229 30.2989687,2.40825817 30.8888733,3.27670177 C35.8744913,10.6164098 42.9221841,15.2849587 52.0810747,17.3055192 C52.5033674,17.398682 52.81793,17.7527368 52.8607326,18.1830604 C52.9533487,19.1141933 53,20.0540769 53,21 C53,35.3416449 42.2743133,47 29,47 C15.7256867,47 5,35.3416449 5,21 C5,18.9312327 5.22314905,16.8933502 5.66070489,14.9160616 C5.69803468,14.7473705 5.77843339,14.5912288 5.89406447,14.4628558 C8.70468742,11.3425165 11.4021743,6.80696515 13.9719374,0.859196494 C14.0331637,0.717486825 14.1263668,0.591876022 14.2442462,0.492202849 C14.3287192,0.420994346 14.3287192,0.420994346 14.4136016,0.350311385 C14.9232543,-0.0727849681 15.6959917,0.10756508 15.9656977,0.712556839 C18.0435961,5.37359959 25.3727372,10.8137598 34.2617419,14.2138059 C31.1978164,11.1809575 29.577382,8.06875443 29.069231,3.96137744 Z M7,21 C7,34.2725926 16.8692148,45 29,45 C41.1307852,45 51,34.2725926 51,21 C51,20.3611477 50.9771312,19.7254496 50.9316499,19.093851 C43.4223673,17.3072565 37.2528035,13.7676645 32.4468849,8.48636362 C33.7708177,11.13376 36.0139109,13.4259833 39.4474147,15.9755504 C40.3370192,16.636131 39.6516045,18.0382476 38.5838941,17.7420089 C28.1575826,14.8492043 18.78939,8.9102677 15.0949834,3.26006886 C12.7104924,8.49656274 10.2018838,12.6095077 7.55884907,15.6010199 C7.18871109,17.3573428 7,19.1648647 7,21 Z"/></g></g></g><g transform="translate(113.000000, 126.000000)" fill="#000000" fill-rule="nonzero"><g transform="translate(576.000000, 0.000000)"><path d="M9.5547002,16.8320503 C9.09517151,17.1384028 8.47430216,17.0142289 8.16794971,16.5547002 C7.86159725,16.0951715 7.98577112,15.4743022 8.4452998,15.1679497 C10.6023438,13.7299204 12.792105,13 15,13 C17.207895,13 19.3976562,13.7299204 21.5547002,15.1679497 C22.0142289,15.4743022 22.1384028,16.0951715 21.8320503,16.5547002 C21.5256978,17.0142289 20.9048285,17.1384028 20.4452998,16.8320503 C18.6023438,15.6034129 16.792105,15 15,15 C13.207895,15 11.3976562,15.6034129 9.5547002,16.8320503 Z" transform="translate(15.000000, 15.000053) scale(1, -1) translate(-15.000000, -15.000053) "/><path d="M8,4 C8,4.55228475 7.55228475,5 7,5 C6.44771525,5 6,4.55228475 6,4 C6,2.8954305 5.1045695,2 4,2 C2.8954305,2 2,2.8954305 2,4 C2,4.55228475 1.55228475,5 1,5 C0.44771525,5 0,4.55228475 0,4 C0,1.790861 1.790861,0 4,0 C6.209139,0 8,1.790861 8,4 Z"/><path d="M30,4 C30,4.55228475 29.5522847,5 29,5 C28.4477153,5 28,4.55228475 28,4 C28,2.8954305 27.1045695,2 26,2 C24.8954305,2 24,2.8954305 24,4 C24,4.55228475 23.5522847,5 23,5 C22.4477153,5 22,4.55228475 22,4 C22,1.790861 23.790861,0 26,0 C28.209139,0 30,1.790861 30,4 Z"/></g></g></g></g></svg>
