<svg width="11" height="13" viewBox="0 0 11 13" xmlns="http://www.w3.org/2000/svg"><path d="M9.103.331c.3-.247.597-.362.889-.344.291.017.526.115.702.291.177.177.275.412.292.703.018.292-.097.588-.345.889a79.35 79.35 0 0 0-3.765 3.924c.742.85 1.445 1.72 2.108 2.613a37.063 37.063 0 0 1 1.87 2.77c.106.337.11.629.013.876a1.05 1.05 0 0 1-.438.544c-.194.115-.42.154-.676.119-.256-.035-.508-.177-.756-.424a30.422 30.422 0 0 0-1.67-2.48 43.73 43.73 0 0 0-1.883-2.347 53.654 53.654 0 0 0-3.342 4.588c-.247.3-.517.469-.809.504a1.044 1.044 0 0 1-.755-.172c-.213-.15-.35-.372-.411-.663-.062-.292.013-.606.225-.942a44.58 44.58 0 0 1 1.737-2.546c.61-.83 1.242-1.644 1.896-2.44a84.307 84.307 0 0 0-1.737-1.843L.458 2.108c-.283-.283-.429-.57-.438-.862C.012.955.091.716.26.53.426.345.656.23.948.186c.291-.045.596.048.915.278.6.619 1.202 1.233 1.803 1.843a67.88 67.88 0 0 1 1.75 1.843A61.53 61.53 0 0 1 7.22 2.214 94.535 94.535 0 0 1 9.103.331z" fill="#4A4A4A" fill-rule="evenodd"/></svg>