<svg id="Layer_1" data-name="Layer 1" xmlns="http://www.w3.org/2000/svg" viewBox="0 0 136 4"><defs><style>.cls-1{fill:#425168;fill-rule:evenodd;}</style></defs><title>Artboard 1</title><g id="Page-1"><g id="Profile-Completion-Assets"><path id="sketch-line" class="cls-1" d="M134.39,2c-1.63.75-3.76,0-5.54.45-.21,0,.05-.42-.42-.33-1.73.59-4.44.22-6.54-.25l.13-.12c-.4-.09-.89.3-1.31.24,0-.08.13-.11,0-.22-.11.24-.77.11-1,.28-.17-.09-.15-.28-.37-.38l-.24.26c-.68.64-1.64-.05-2.56.27,0-.06.13-.11.06-.17a31.62,31.62,0,0,1-5,.43c.07-.09.13-.27,0-.37-.08.28-.59.35-1,.4-.2-.29-.76.26-1.28.1l0-.07c-.38.31-.57-.18-.88.19l-.24-.23c-.17.41-.56-.22-.87,0v.08c-.3.1-.46-.11-.74,0l0,0c-.65.11-1-.12-1,.19-.22-.25.64-.11.28-.48a45.38,45.38,0,0,1-6.49.23c-.25-.13-.4-.17-.46-.29-.21.06-.8,0-1,.21.07,0-.14-.16-.25-.18-.39-.12-.43.35-.86.2.17-.08.23-.18.17-.3a3.47,3.47,0,0,1-1.29.28c.07-.05.17-.09.16-.18-.48.28-.87-.07-1.28.11l.15-.19c-.66-.23-.2.39-.77.25.14-.06.09-.13.11-.2a6,6,0,0,1-2,.32s0-.07,0-.07a10.55,10.55,0,0,0-1.84.07c-.23-.09.08-.45-.54-.39,0,.37-1.05.15-.69.57a5.44,5.44,0,0,0-1.72-.08c.24-.14-.26-.46.18-.49l-.33-.23c0-.15.34.06.24-.13a5.62,5.62,0,0,1-1.06.09A3.12,3.12,0,0,1,85,2.47c.31-.14-.18-.41,0-.47l-.93.7c-.21,0,0-.29-.36-.19,0,.09-.12.15-.22.23s-.92.09-1-.28c-.1-.14.36-.07.12-.2-.41,0-.43.12-.84.13V2.34c-.27-.06-.8.15-.51.35.19,0-.07-.22.21-.11a1.61,1.61,0,0,1-1.07.27c.14-.06.12-.16.18-.26a6.43,6.43,0,0,1-1.74.49c0,.17.23-.32.32-.23-.78-.24-1.62.34-2.27,0,.11,0,.06.25,0,.2-.38,0-.36-.28-.61-.19,0-.14-.3.05-.56.09s-.06-.07.16-.08A6.13,6.13,0,0,1,73.41,3c0,.1-.5.35-.69.34l.08-.23c-.17-.14-.63,0-.66-.18-.4.28,1.54-.22,1,0-.14-.2-.76.36-.64,0-.38,0-.74.27-1.1,0,.1,0,.31-.32,0-.3-.53,0-.15.11-.58.18L70.54,3c0,.23-.47,0-.28.22-.06-.18-.77.11-.72-.26l.08-.29c-.23,0-.38.3-.56.43C69,3,69,3,69,2.92c0,.44-.55,0-.83.3-.48-.16-1.23,0-1.46-.3a1.92,1.92,0,0,1-1.14.19c.09,0,.21,0,.23-.15-.27-.13-.33,0-.58.06.06-.07-.53-.27-.82-.43-.38.13-.25.37-.29.52-.33-.44-1,.28-1.47-.12.13-.06.55-.22.24-.33-.34-.44-.69.32-1.23.11l.13.36c-.24-.22-.8.21-.75-.16-.18.13-.64-.13-.58.23-.89-.31-2.18.17-2.73-.47-.13.06-.45,0-.38.18s.3-.14.38,0c-.12,0-.14.11-.16.16-.28-.08-.49-.11-.23-.41-.62-.22-.64.6-1.43.46,0-.15,0-.2-.25-.18l-.44.25c-.51-.06-.29-.34-.3-.59-.28,0-.61,0-.73.21l-.33-.31c.24.23-.23.15-.36.21l.13-.06c-.05-.11-.36,0-.52,0,0,.15.36.22.53.26-.14.11-.36.08-.54.21.06-.24-.44-.18-.66-.2s-.28.22-.35.21-.41,0-.21-.2.19.12.33,0c-.17-.1-.14-.32-.49-.16s.07.48-.42.33c.13-.06.16-.16.25-.25l-.45-.13,0,.23c-.06-.06,0-.08,0-.11-.13.23-.69.07-.8.33-.23,0-.48-.16-.7-.18l0,0a.89.89,0,0,0-.85.1l0-.05a1.16,1.16,0,0,0-.68.14c-.37-.17-.12-.84-.53-.56-.38,0-.59.4-.44.55C46.39,3,45.62,3.34,45,3c-.1.09,0,.15-.24.2-1-.09-2.09.25-2.88-.19.29-.09,0-.23,0-.35-.24.2-.29-.21-.37.13s0,.3.27.38A3.52,3.52,0,0,1,40,3.07c.16.1,0,.16-.1.22,0-.32-.39-.38-.72-.27l0,.2L38.91,3c-.12.06-.14.41-.47.22A.33.33,0,0,0,38.35,3c-.34.16-.82.42-1.19.26L36.86,3c-.16,0-.43.2-.15.28-.63-.17-1-.2-1.24-.44a8,8,0,0,1-3.93.55l0-.14c-.34-.14-.18.25-.41.15.11-.14-.26-.31,0-.47-.49-.16-.63.24-.95.31-.05.19.26-.12.19.12-.05.07-.67-.15-.74.14-.12-.12,0-.33,0-.45l-.3.14c-.36-.34.83-.6.45-1l-.27,0c-.26-.31.72-.34,0-.45-.3.14-.56.57-.29.7-.62.07-.29.69-1,.66-.18-.17.53,0,.41-.28-.32-.24-.64.13-.91,0,.3.12,0,.41-.16.46-.34-.14.22-.27-.26-.31-.08.17-.52.29-.14.41-.18.38-.5-.11-.76.19-.16-.27.5-.62,0-.75.08.25-.65.34-.38.73-.2-.08-.22-.28-.07-.44-.3-.16-.72.47-.82,0l-.1.27c-.09-.09-.22-.15-.37-.3-.27,0-.85.35-.82,0-.08,0-.68,0-.45.3s.43-.2.63.18c-.26-.31-.53,0-.75.13l0-.15c-.13.06-.42,0-.5.19.09-.09.05-.19-.06-.23l-.13.23c-.52.11-.12-.41-.62-.35l.38-.18c-.08,0-.25-.18-.49-.11-.1.22-.28.47-.36.64-.28.09-.12-.24-.4,0l.36-.25c.06-.07-.24-.36-.62-.35s-.62.38-.24.5c-.19,0-.45-.13-.3-.29-.43.07.05.23-.32.36-.15-.14-.62-.35-.91-.56l.39-.35h-.25c.33-.28-.17-.22,0-.52a1,1,0,0,0-.56.13c.51.49-.58.66-.44,1.1-.7.12-.43-1.07-1.17-.39.12.12-.23.45.22.33-.44,0-.3.44-.82.25.38-.18-.41-.45.15-.71,0,.15.3.12.39.08-.18-.17,0-.45-.41-.45-.27,0-.65.05-.6.28s.42,0,.24.23c-.54.08-.63-.3-.86.14a.35.35,0,0,1,.42.4l-.4.11.08-.17c-.64-.12-.19.3-.81.25l-.29-.33c.15-.28.9.13.79-.33-.4,0-.54.21-.92.09.09,0,.2-.05.29-.09-.15,0-.29-.64-.87-.28-.3.14-.08.17-.09.34-.65.05-.84.23-1.26.25.09-.34-.74,0-.28-.38a1.33,1.33,0,0,0,1.39-.14c-.24-.4.51.06.65-.35-.52,0-.49-.4-.58-.67a.81.81,0,0,0-.37.13c-.06.25.13.25.14.5a2.17,2.17,0,0,0-1.47.3.21.21,0,0,1,.1-.39,9.7,9.7,0,0,1-2.09,0c.43.4-.73.09-.44.42.35.1.65.38.46.56-.22,0,0-.17-.09-.26-.28.22-.43-.35-.71,0,.63-.13.13-.49.25-.8-.46.18,0-.22-.43-.22a7.67,7.67,0,0,1-1.52.37c-.64-.31-1.61,0-2.18,0-.29-.16-.09-.51-.41-.58s.28.39-.28.22L4.6,2c-.17.08-1-.25-1.19.26l.18-.38c-.11,0-.2,0-.29.09,0-.12-.13-.24,0-.32-.34-.26-.72,0-1.09.05l.24.22c-.65.18-1.08,0-1.7,0l0-.23-.37.14C.53,1.63.2,1.49,0,1.67l1-.54c.27.13-.29.27-.12.49a.62.62,0,0,0,.81-.08c-.22,0-.23,0-.4.1-.08-.31.26-.29.42-.5-.11,0-.27-.08-.3,0A1.39,1.39,0,0,1,2.2,1c-.25.12.14.19,0,.28,0-.27.4-.35.86-.27.33.31.88-.2,1.42-.11a1.89,1.89,0,0,1-.83.6c.33.14.37,0,.71.14.17-.21.29-.52.73-.64l0,.2c.4-.1.41-.4.92-.34C6.94.94,7.84,1,8.5,1l0,.2C8.9.75,9.76,1,10.27.84c.84.2,1.84-.18,2.28.17A27.4,27.4,0,0,1,16.91.8l-.26.3c.28-.22.18.17.45.13-.31-.24.38-.31.58-.49A3.7,3.7,0,0,0,19.87.53l0,.2c.63-.38,1.36,0,2.14,0,.08.08.22.28.45.25a3.32,3.32,0,0,1,1.26-.5,7,7,0,0,1,1.63.22C27.06.28,28.78.59,30.54.32l.12.24c1.71-.5,3.8,0,5.25-.28l-.14.41c.45.13,1-.1.92-.39.46.13,1.14-.19,1.43.15.46.07.57-.19,1-.24a6.85,6.85,0,0,0,2.16.06L41,.24c-.1.09-.1.26.11.29s1.21.12.89-.37c.94.29,2.19-.22,3.1.17-.07-.14.16-.16.26-.25a8.49,8.49,0,0,0,2.34.06c.14.06-.21.22.13.24s0-.18.25-.25C49.44-.11,50.8.4,52,.35A64.22,64.22,0,0,1,58.5.22l0,.09c.69-.36,1.62.4,2.18-.16.16.09.62.05.5.23.55-.26,1.55.26,2.34-.07a.33.33,0,0,0-.2,0c.81.22,1.52-.07,2.37.13-.09.05-.24.08-.27.17.33.19.78-.4,1,.07.19,0,.14-.24,0-.22A40.4,40.4,0,0,0,72.17.32c1.38.29.08.79,1.18.44.08.1.06-.17.08-.08.42-.13.65.53.95.29-.12-.29.19-.16.2-.34.85.19,1,.46,1.69.24l0,.15C77,.6,77.92.83,78.58.34,82.92.28,87.07,0,91.29,0c4.18.12,8.27-.08,12.5.21A2.83,2.83,0,0,0,106,.45c0,.07-.11.08,0,.14.06-.32.77,0,.87-.33,1.57.07,3,0,4.63,0-.26,0-.39.3-.09.29l.32-.21,0,.09c.21,0,.44-.21.23-.32,4-.25,8,.43,12,.37a17.38,17.38,0,0,0,3.3,0,35.5,35.5,0,0,0,8.85.54,2.2,2.2,0,0,1-1.68,1"/></g></g></svg>