<svg height="512pt" viewBox="0 0 512 512" width="512pt" xmlns="http://www.w3.org/2000/svg"><path d="m512 256c0 141.386719-114.613281 256-256 256-13.3125 0-26.382812-1.011719-39.140625-2.96875-11.589844-1.773438-22.914063-4.335938-33.941406-7.605469-93.640625-27.847656-164.839844-107.824219-179.949219-206.285156-1.925781-12.578125-2.9375-25.464844-2.96875-38.578125v-.5625c0-141.386719 114.613281-256 256-256 39.265625 0 76.476562 8.839844 109.726562 24.640625 6.195313 2.945313 12.265626 6.132813 18.179688 9.558594 18.859375 10.898437 36.207031 24.128906 51.628906 39.300781 21.261719 20.925781 38.878906 45.523438 51.824219 72.785156 15.800781 33.25 24.640625 70.457032 24.640625 109.714844zm0 0" fill="#ffe662"/><path d="m444.082031 225.960938-4.136719-73.804688-4.410156-78.65625-.023437-.324219c-1.15625-20.617187-17.613281-37.0625-38.21875-38.222656l-13.386719-.753906-13.648438-.761719-51.949218-2.925781-73.8125-4.148438c-8.609375-.492187-17.011719 2.714844-23.113282 8.820313l-221.382812 221.378906c.03125 13.113281 1.042969 26 2.96875 38.578125 15.109375 98.460937 86.308594 178.4375 179.949219 206.285156l252.34375-252.363281c6.101562-6.09375 9.3125-14.492188 8.820312-23.101562zm-71.292969-69.144532c-16.332031 16.332032-42.820312 16.34375-59.152343.011719-16.34375-16.351563-16.332031-42.839844 0-59.171875s42.820312-16.34375 59.171875 0c16.332031 16.332031 16.320312 42.820312-.019532 59.160156zm0 0" fill="#ffb525"/><path d="m487.359375 146.285156-4.429687-78.984375c-1.160157-20.613281-17.617188-37.0625-38.222657-38.222656l-27.03125-1.515625-51.949219-2.921875-73.816406-4.152344c-8.609375-.484375-17.011718 2.722657-23.109375 8.820313l-265.832031 265.832031c16.882812 110.050781 103.839844 197.007813 213.890625 213.890625l265.824219-265.835938c6.09375-6.09375 9.300781-14.496093 8.820312-23.101562zm-67.152344 4.660156c-16.332031 16.332032-42.820312 16.34375-59.152343.011719-16.34375-16.351562-16.332032-42.839843 0-59.171875 16.332031-16.332031 42.820312-16.34375 59.171874 0 16.332032 16.332032 16.320313 42.820313-.019531 59.160156zm0 0" fill="#f26065"/><g fill="#fff"><path d="m59.929688 373.902344c-3.394532-3.394532-1.484376-8.699219 2.121093-12.304688l36.8125-36.8125c3.503907-3.503906 8.699219-1.273437 12.09375 2.121094 3.925781 3.925781 5.519531 9.121094 2.335938 12.304688l-27.476563 27.476562 17.929688 17.929688 16.019531-16.019532c3.183594-3.179687 8.0625-1.910156 11.457031 1.488282 2.863282 2.859374 4.773438 7.742187 1.273438 11.242187l-16.019532 16.019531 27.371094 27.371094c3.394532 3.394531.957032 9.230469-3.179687 13.367188-4.140625 4.136718-9.976563 6.578124-13.367188 3.183593zm0 0"/><path d="m120.828125 312.792969c-2.652344-2.652344-2.972656-7 .105469-10.078125l21.960937-21.960938c14.535157-14.535156 31.507813-20.6875 48.800781-3.394531 11.882813 11.882813 13.261719 24.082031 8.699219 34.375l36.390625 10.503906c1.058594.210938 1.90625.847657 2.4375 1.378907 4.140625 4.136718 3.078125 14.105468-1.804687 18.988281-2.121094 2.121093-4.984375 3.289062-8.378907 2.226562l-42.753906-13.683593-7.003906 7 25.570312 25.570312c3.394532 3.394531.953126 9.230469-3.183593 13.367188-4.136719 4.136718-9.972657 6.574218-13.367188 3.183593zm25.992187-7.105469 19.730469 19.730469 10.503907-10.5c5.941406-5.941407 7.109374-11.988281-.316407-19.414063-7.429687-7.425781-13.476562-6.261718-19.414062-.320312zm0 0"/><path d="m233.070312 255.292969 15.914063-15.910157c3.183594-3.183593 8.0625-1.910156 11.457031 1.484376 2.863282 2.863281 4.773438 7.742187 1.273438 11.242187l-15.914063 15.914063 18.035157 18.035156 28.433593-28.433594c3.183594-3.179688 8.382813-1.589844 12.308594 2.335938 3.394531 3.394531 5.621094 8.59375 2.121094 12.09375l-37.769531 37.769531c-3.605469 3.605469-8.910157 5.515625-12.304688 2.121093l-67.367188-67.367187c-3.398437-3.394531-1.488281-8.699219 2.121094-12.308594l37.765625-37.765625c3.503907-3.5 8.699219-1.273437 12.09375 2.121094 3.925781 3.925781 5.519531 9.125 2.335938 12.308594l-28.433594 28.429687zm0 0"/><path d="m296.617188 191.746094 15.914062-15.910156c3.183594-3.183594 8.0625-1.910157 11.457031 1.484374 2.863281 2.863282 4.773438 7.742188 1.273438 11.242188l-15.914063 15.914062 18.035156 18.035157 28.433594-28.429688c3.183594-3.183593 8.382813-1.59375 12.304688 2.332031 3.398437 3.394532 5.625 8.59375 2.125 12.09375l-37.769532 37.769532c-3.609374 3.605468-8.910156 5.515625-12.304687 2.121094l-67.367187-67.367188c-3.394532-3.394531-1.488282-8.699219 2.117187-12.304688l37.769531-37.769531c3.503906-3.5 8.699219-1.273437 12.09375 2.121094 3.925782 3.925781 5.519532 9.125 2.335938 12.308594l-28.433594 28.429687zm0 0"/></g></svg>