<?xml version="1.0" standalone="no"?>
<!DOCTYPE svg PUBLIC "-//W3C//DTD SVG 20010904//EN"
 "http://www.w3.org/TR/2001/REC-SVG-20010904/DTD/svg10.dtd">
<svg version="1.0" xmlns="http://www.w3.org/2000/svg"
 width="513.000000pt" height="513.000000pt" viewBox="0 0 513.000000 513.000000"
 preserveAspectRatio="xMidYMid meet">
<metadata>
Created by potrace 1.11, written by Peter Selinger 2001-2013
</metadata>
<g transform="translate(0.000000,513.000000) scale(0.100000,-0.100000)"
fill="#000000" stroke="none">
<path d="M2280 5058 c-123 -17 -291 -51 -296 -59 -3 -5 -20 -9 -37 -9 -68 0
-547 -192 -547 -220 0 -5 -9 -10 -19 -10 -19 0 -53 -20 -159 -91 -23 -16 -47
-29 -52 -29 -5 0 -13 -6 -17 -13 -4 -7 -39 -37 -78 -66 -249 -188 -516 -492
-653 -742 -16 -30 -42 -75 -56 -101 -64 -112 -134 -290 -170 -428 -21 -80 -50
-186 -66 -236 -38 -119 -49 -213 -56 -469 -5 -180 -3 -234 15 -374 32 -248
100 -487 204 -719 69 -153 118 -237 231 -403 86 -125 282 -352 360 -414 20
-16 58 -49 84 -72 58 -52 104 -84 282 -198 83 -53 241 -137 247 -131 4 3 14
-1 23 -9 28 -25 175 -82 309 -120 70 -20 149 -42 177 -50 28 -8 72 -15 98 -15
26 0 57 -5 68 -11 11 -6 97 -16 192 -21 140 -9 207 -8 366 6 171 14 219 22
389 66 107 28 213 59 235 70 23 10 81 36 131 56 278 112 639 365 835 586 177
199 250 296 318 418 14 25 41 74 61 108 170 300 278 668 313 1064 13 153 0
440 -27 580 -58 306 -141 538 -293 823 -44 84 -175 278 -211 314 -9 9 -42 48
-72 86 -59 74 -247 253 -339 322 -30 23 -66 52 -79 65 -42 39 -329 208 -394
232 -18 6 -36 17 -40 24 -4 6 -13 12 -20 12 -7 0 -46 13 -87 30 -41 16 -85 29
-97 30 -13 0 -23 4 -23 9 0 8 -136 49 -235 70 -187 40 -303 51 -525 50 -124
-1 -254 -6 -290 -11z m615 -222 c50 -9 151 -31 225 -50 200 -51 214 -58 167
-89 -29 -19 -198 -262 -211 -304 -4 -13 -17 -25 -29 -28 -12 -3 -56 -12 -97
-20 -41 -8 -100 -28 -130 -44 l-55 -28 -130 43 c-159 54 -268 78 -447 100 -75
10 -141 20 -145 23 -5 3 -20 21 -35 40 l-25 33 49 122 c28 66 56 133 64 148
15 30 62 47 129 49 22 0 72 7 110 15 91 18 432 12 560 -10z m-1071 -133 c-3
-16 -10 -37 -14 -48 -5 -11 -16 -36 -24 -57 -11 -28 -25 -41 -63 -58 -56 -25
-103 -66 -103 -91 0 -21 -2 -21 -145 -49 -60 -12 -157 -33 -213 -46 -57 -14
-106 -24 -108 -21 -9 8 8 36 25 42 9 2 31 18 48 34 31 28 45 37 176 114 36 21
71 44 77 52 7 8 20 15 30 15 9 0 35 12 56 27 32 22 231 109 257 112 4 1 5 -11
1 -26z m1739 -77 c7 -8 56 -38 108 -66 52 -29 103 -61 115 -71 11 -10 23 -19
27 -19 3 0 52 -35 109 -77 113 -86 308 -270 308 -292 0 -9 -9 -12 -30 -9 -44
7 -488 -18 -551 -31 -30 -5 -90 -15 -134 -21 -44 -6 -88 -14 -97 -16 -13 -4
-19 3 -24 23 -12 51 -76 163 -111 194 -24 21 -33 35 -28 47 12 32 118 182 172
244 30 35 59 73 64 86 10 26 49 30 72 8z m-1273 -442 c41 -8 135 -31 208 -51
109 -30 132 -39 127 -52 -4 -9 -9 -58 -12 -109 -5 -76 -3 -99 12 -132 11 -24
15 -44 9 -49 -5 -4 -38 -18 -74 -31 -133 -47 -558 -271 -655 -344 -18 -14 -37
-26 -42 -26 -4 0 -19 -9 -33 -20 l-25 -19 -50 52 c-28 29 -61 59 -74 67 -23
15 -23 15 -7 85 9 39 27 111 41 160 13 50 39 145 57 212 32 120 34 123 61 123
70 0 185 71 203 125 4 11 12 24 18 28 14 10 140 0 236 -19z m-680 -18 c9 -29
6 -46 -24 -132 -29 -82 -107 -389 -123 -484 -4 -22 -9 -25 -52 -26 -58 -1
-136 -42 -216 -116 l-55 -50 -218 27 c-181 23 -238 27 -345 21 -70 -3 -127 -4
-127 -1 0 2 38 80 86 172 109 215 217 378 258 393 16 6 37 16 45 24 21 18 290
109 421 142 85 21 274 57 327 63 6 0 16 -14 23 -33z m2705 -293 l107 -6 42
-66 c78 -124 192 -371 226 -491 18 -63 41 -137 51 -163 14 -36 16 -49 6 -52
-6 -2 -113 -6 -237 -9 -132 -3 -260 -12 -310 -20 -121 -22 -148 -21 -160 7
-17 40 -184 290 -276 412 -24 33 -101 117 -169 188 -69 70 -125 131 -125 135
0 7 60 17 260 44 160 21 427 31 585 21z m-950 -265 c28 -29 71 -71 95 -94 25
-22 62 -63 82 -90 21 -27 50 -62 65 -78 16 -17 37 -45 48 -62 27 -45 128 -190
165 -238 35 -45 37 -56 13 -56 -28 0 -272 -85 -343 -119 l-65 -30 -32 22 c-18
12 -33 25 -33 29 0 13 -105 66 -162 83 -31 9 -69 15 -83 13 -20 -2 -33 4 -46
22 -16 21 -20 51 -25 190 -4 91 -4 204 0 253 l8 87 29 0 c16 0 29 5 29 10 0 6
11 10 25 10 32 0 67 18 125 64 25 20 47 36 50 36 3 0 28 -23 55 -52z m-553
-21 l26 -22 4 -306 3 -306 -41 -17 c-23 -9 -68 -41 -100 -71 -33 -30 -65 -55
-72 -55 -8 0 -77 34 -153 76 -200 109 -408 204 -446 204 -18 0 -33 4 -33 9 0
5 -22 15 -50 22 -51 13 -65 34 -32 46 9 4 58 35 107 69 88 59 234 143 385 220
122 62 333 153 355 153 11 0 32 -10 47 -22z m-1827 -427 c39 -7 76 -18 84 -25
8 -8 14 -36 15 -67 1 -39 12 -75 40 -134 27 -58 36 -87 29 -98 -9 -17 -83 -98
-285 -315 -65 -69 -118 -132 -118 -138 0 -9 -21 -13 -71 -13 -77 0 -93 -6
-157 -57 -76 -62 -91 -113 -78 -259 7 -72 5 -86 -14 -123 -20 -39 -44 -60 -56
-48 -3 3 -12 29 -20 58 -83 310 -95 695 -33 1014 17 88 31 170 31 182 0 16 9
24 37 32 47 13 503 7 596 -9z m968 -261 c56 -23 118 -49 137 -59 19 -10 46
-21 60 -25 14 -4 34 -15 45 -25 11 -10 58 -34 105 -55 47 -21 91 -43 99 -49 7
-6 39 -25 70 -42 l56 -30 -2 -50 c-6 -148 -4 -195 11 -259 l16 -70 -27 -20
c-69 -53 -419 -379 -503 -470 l-65 -70 -53 32 c-53 31 -127 53 -181 53 -27 0
-29 3 -55 108 -15 59 -31 134 -36 167 -5 33 -14 83 -20 110 -10 46 -40 453
-40 535 0 35 3 38 61 65 65 31 175 134 185 173 4 12 13 22 21 22 8 0 60 -18
116 -41z m2843 -76 c12 -88 8 -464 -4 -495 -7 -17 -22 -30 -39 -34 -15 -4 -67
-26 -115 -50 l-87 -44 -27 25 c-15 14 -30 22 -35 20 -4 -3 -28 7 -54 22 -43
26 -48 34 -74 108 -25 71 -111 283 -170 418 -11 26 -17 47 -13 48 4 0 75 8
157 18 83 10 218 19 302 20 l152 1 7 -57z m-826 -36 c0 -15 83 -204 111 -252
9 -16 38 -94 64 -172 l47 -142 -32 -39 c-36 -45 -60 -116 -60 -177 0 -48 -10
-57 -136 -128 -44 -24 -122 -71 -174 -104 -134 -84 -125 -84 -160 -7 -29 64
-80 155 -127 225 -37 56 -45 94 -24 121 24 33 77 146 90 193 23 83 10 254 -24
337 -8 21 -13 19 215 98 174 60 210 68 210 47z m-2590 -455 c13 -185 32 -302
76 -483 l36 -146 -51 -48 c-62 -58 -108 -147 -124 -239 -21 -124 26 -280 107
-354 20 -18 36 -36 36 -40 0 -4 -8 -23 -18 -42 -10 -19 -42 -89 -71 -155 -29
-66 -60 -137 -69 -157 l-17 -37 -61 47 c-34 26 -97 75 -140 108 -170 132 -365
360 -478 559 -84 149 -126 235 -126 262 0 18 20 60 55 113 30 47 63 97 73 112
15 25 23 28 72 28 114 0 173 38 225 143 33 68 39 175 12 205 -23 25 -22 29 15
65 17 18 49 55 71 82 54 69 241 271 302 324 l50 45 7 -125 c4 -68 12 -188 18
-267z m1324 -321 c14 -22 168 -102 226 -117 81 -21 209 -14 295 16 33 11 65
18 71 16 23 -9 198 -331 188 -347 -2 -4 -39 -33 -82 -63 -167 -121 -225 -165
-256 -193 -19 -16 -45 -37 -59 -46 -33 -22 -176 -155 -301 -280 l-98 -99 -43
6 c-52 7 -121 -12 -175 -48 -37 -24 -39 -25 -72 -8 -42 22 -88 56 -204 152
-50 41 -104 85 -120 96 l-29 21 29 82 c26 75 28 90 23 174 -3 51 -9 101 -12
113 -5 17 11 39 87 115 147 148 371 353 447 407 43 31 68 32 85 3z m2033 12
c-3 -10 -26 -83 -50 -163 -52 -170 -80 -238 -102 -246 -22 -9 -23 -7 -36 78
l-12 76 37 43 c35 42 66 118 66 166 0 18 10 28 43 43 52 24 61 25 54 3z m-462
-296 c35 -15 62 -34 66 -46 5 -11 17 -89 29 -173 11 -84 25 -170 31 -191 11
-43 1 -62 -80 -153 -25 -28 -82 -93 -126 -144 -77 -91 -224 -239 -236 -240 -3
0 -14 37 -23 83 -45 210 -106 427 -152 539 -35 83 -32 114 10 132 19 8 59 30
90 50 31 20 59 36 62 36 3 0 25 14 50 31 89 61 179 109 199 105 11 -2 47 -15
80 -29z m-624 -587 c54 -180 74 -264 95 -394 l18 -108 -25 -19 c-13 -11 -62
-40 -109 -67 l-85 -47 -130 1 c-118 1 -144 5 -287 42 -86 22 -179 52 -206 66
-49 25 -50 26 -62 92 -11 58 -11 68 2 75 9 5 44 39 79 75 35 37 100 98 144
136 44 38 104 90 134 116 30 26 66 55 82 64 15 9 31 23 36 30 4 7 15 18 24 23
9 6 42 30 74 55 31 25 76 57 98 73 l42 27 18 -52 c10 -29 36 -114 58 -188z
m-1560 -318 c112 -86 218 -167 235 -180 58 -40 81 -139 46 -190 -11 -15 -34
-61 -52 -102 -19 -41 -35 -77 -36 -79 -6 -7 -217 34 -332 65 -178 49 -472 165
-472 187 0 34 121 328 166 405 1 2 33 8 71 12 37 5 88 16 113 24 25 8 48 14
51 15 4 1 99 -70 210 -157z m737 -398 c20 -9 82 -31 137 -50 55 -18 100 -36
99 -41 -1 -8 -5 -9 -174 -42 -130 -26 -370 -40 -370 -22 0 6 10 34 23 60 22
49 22 49 80 54 34 3 77 16 105 31 57 30 54 30 100 10z"/>
</g>
</svg>
