<?xml version="1.0" standalone="no"?>
<!DOCTYPE svg PUBLIC "-//W3C//DTD SVG 20010904//EN"
 "http://www.w3.org/TR/2001/REC-SVG-20010904/DTD/svg10.dtd">
<svg version="1.0" xmlns="http://www.w3.org/2000/svg"
 width="1163.000000pt" height="1163.000000pt" viewBox="0 0 1163.000000 1163.000000"
 preserveAspectRatio="xMidYMid meet">
<metadata>
Created by potrace 1.11, written by Peter Selinger 2001-2013
</metadata>
<g transform="translate(0.000000,1163.000000) scale(0.100000,-0.100000)"
fill="#000000" stroke="none">
<path d="M5125 10770 c0 -92 2 -167 5 -165 7 4 6 322 0 329 -3 3 -5 -71 -5
-164z"/>
<path d="M9377 10739 c-10 -6 -51 -61 -91 -123 -41 -61 -80 -117 -87 -123 -9
-7 -69 -13 -156 -15 -131 -3 -144 -5 -164 -25 -42 -42 -31 -81 53 -185 41 -51
80 -102 86 -114 12 -23 11 -28 -29 -168 -16 -54 -29 -111 -29 -126 0 -32 43
-80 72 -80 10 0 73 20 141 45 82 31 130 44 147 40 14 -4 70 -37 125 -74 121
-82 127 -84 170 -67 51 22 55 37 48 189 l-5 136 29 28 c16 15 56 49 89 74 101
80 114 95 114 131 0 59 -17 70 -171 113 -138 38 -148 46 -175 128 -39 121 -77
208 -94 217 -24 13 -50 12 -73 -1z"/>
<path d="M3704 10695 c3 -11 23 -89 45 -173 21 -85 42 -156 46 -160 8 -8 3 13
-40 183 -20 76 -41 146 -46 155 -8 12 -9 11 -5 -5z"/>
<path d="M5497 10264 c-1 -1 -69 -4 -152 -8 -82 -3 -166 -8 -185 -11 -19 -2
-66 -6 -105 -9 -38 -3 -79 -8 -90 -10 -11 -2 -47 -7 -80 -10 -33 -4 -67 -9
-75 -11 -8 -2 -37 -6 -64 -10 -28 -3 -80 -13 -118 -20 -37 -8 -82 -17 -100
-20 -241 -43 -703 -191 -956 -306 -34 -16 -65 -29 -67 -29 -7 0 -250 -121
-330 -165 -251 -137 -567 -353 -769 -525 -343 -293 -623 -604 -850 -945 -48
-71 -90 -135 -94 -141 -19 -28 -33 -50 -39 -64 -3 -8 -14 -27 -24 -41 -15 -21
-43 -73 -154 -289 -48 -92 -140 -319 -196 -479 -35 -102 -111 -366 -123 -431
-3 -14 -14 -72 -25 -130 -12 -58 -24 -125 -27 -150 -3 -25 -8 -52 -9 -60 -44
-231 -51 -714 -15 -1045 11 -108 26 -214 35 -245 2 -8 6 -31 9 -50 13 -82 15
-91 42 -205 4 -16 9 -39 11 -49 6 -36 64 -230 98 -331 172 -514 450 -1001 823
-1440 119 -139 394 -411 537 -530 650 -542 1438 -908 2270 -1055 33 -5 69 -12
81 -14 12 -2 45 -7 74 -11 29 -4 61 -8 71 -10 10 -2 49 -7 86 -11 37 -4 82 -8
98 -10 221 -24 839 -24 971 0 10 2 50 7 88 11 38 4 79 8 90 10 12 2 44 6 71
10 84 10 314 54 424 81 576 138 1085 358 1571 679 291 192 486 352 735 600
194 194 213 215 424 470 59 71 180 239 253 350 322 493 533 1009 624 1525 2
14 6 34 9 45 2 11 7 43 10 70 3 28 7 59 9 70 2 11 7 58 11 105 4 47 9 101 11
120 9 94 3 408 -11 535 -6 57 -8 76 -21 185 -3 25 -9 68 -14 95 -5 28 -11 64
-14 80 -42 268 -149 635 -272 931 -109 264 -290 598 -432 799 -232 327 -441
563 -732 827 -495 449 -1105 807 -1725 1013 -287 96 -581 168 -840 205 -44 6
-91 13 -105 15 -14 2 -56 7 -95 10 -38 4 -86 8 -105 11 -70 8 -516 23 -523 18z"/>
<path d="M2550 10171 c0 -4 8 -19 18 -32 9 -13 28 -44 41 -69 14 -25 33 -56
43 -69 10 -13 18 -28 18 -32 0 -11 60 -107 60 -96 0 4 -19 40 -41 80 -23 40
-50 88 -61 107 -67 118 -78 133 -78 111z"/>
<path d="M1593 9294 c70 -70 129 -125 132 -122 5 5 -240 248 -251 248 -5 0 49
-57 119 -126z"/>
<path d="M713 8320 c38 -22 71 -40 74 -40 4 0 14 -6 22 -14 20 -16 151 -89
151 -83 0 10 -289 177 -306 177 -5 0 22 -18 59 -40z"/>
<path d="M255 7170 c3 -5 8 -10 11 -10 2 0 4 5 4 10 0 6 -5 10 -11 10 -5 0 -7
-4 -4 -10z"/>
<path d="M315 7155 c88 -28 277 -76 282 -71 3 3 -8 8 -23 11 -16 4 -49 13 -74
20 -62 19 -207 55 -217 54 -4 0 10 -6 32 -14z"/>
<path d="M11287 6252 c-10 -2 -45 -44 -78 -93 -44 -66 -65 -89 -82 -90 -12 0
-57 -1 -99 -2 -81 -2 -118 -19 -118 -53 0 -14 32 -68 50 -84 27 -25 70 -93 70
-112 0 -13 -11 -57 -24 -100 -19 -62 -22 -80 -12 -99 18 -38 52 -38 143 -2 45
18 89 33 97 33 7 0 41 -20 73 -44 120 -88 163 -71 157 64 -4 100 0 110 73 165
81 61 97 83 84 117 -10 26 -36 40 -111 58 -84 20 -98 30 -114 74 -9 22 -25 67
-37 99 -21 58 -40 77 -72 69z"/>
<path d="M20 5820 c11 -7 317 -6 324 0 2 3 -71 5 -164 5 -93 0 -165 -2 -160
-5z"/>
<path d="M565 4659 c-37 -12 -159 -45 -242 -67 -35 -8 -63 -18 -63 -22 0 -4
30 1 68 12 37 10 109 30 161 44 52 14 102 29 110 34 20 12 5 11 -34 -1z"/>
<path d="M978 3492 c-14 -9 -80 -48 -147 -86 -66 -39 -119 -72 -117 -74 5 -4
135 66 157 84 8 8 18 14 22 14 8 0 127 71 127 76 0 8 -15 2 -42 -14z"/>
<path d="M1652 2397 c-67 -67 -122 -126 -122 -130 0 -4 57 49 126 119 69 69
124 127 122 130 -2 2 -59 -52 -126 -119z"/>
<path d="M9400 1983 c-29 -10 -58 -45 -112 -130 -92 -147 -77 -137 -230 -140
-144 -3 -180 -12 -196 -48 -19 -40 -4 -74 77 -174 43 -53 80 -106 83 -118 3
-13 -9 -76 -28 -140 -38 -133 -41 -164 -17 -188 42 -42 64 -40 231 26 40 16
84 29 98 29 16 0 69 -30 137 -77 123 -85 160 -95 200 -54 21 21 22 29 19 154
-1 73 0 142 3 154 3 12 50 59 105 103 105 85 120 103 120 145 0 43 -39 68
-156 99 -167 45 -154 35 -199 166 -14 41 -30 83 -35 92 -6 10 -10 25 -10 34 0
16 -53 75 -67 73 -4 0 -15 -3 -23 -6z"/>
<path d="M2732 1798 c-7 -7 -12 -16 -12 -20 0 -4 -17 -36 -38 -70 -53 -87
-127 -225 -114 -213 8 8 131 218 171 293 13 25 11 28 -7 10z"/>
<path d="M3886 1312 c-4 -6 -34 -116 -41 -152 -2 -8 -13 -49 -24 -90 -21 -74
-25 -97 -17 -89 4 3 34 110 52 179 2 8 12 48 23 88 17 66 20 84 7 64z"/>
<path d="M5125 870 c0 -93 2 -166 5 -164 6 7 7 325 0 329 -3 2 -5 -73 -5 -165z"/>
</g>
</svg>
