<?xml version="1.0" standalone="no"?>
<!DOCTYPE svg PUBLIC "-//W3C//DTD SVG 20010904//EN"
 "http://www.w3.org/TR/2001/REC-SVG-20010904/DTD/svg10.dtd">
<svg version="1.0" xmlns="http://www.w3.org/2000/svg"
 width="256.000000pt" height="256.000000pt" viewBox="0 0 256.000000 256.000000"
 preserveAspectRatio="xMidYMid meet">
<metadata>
Created by potrace 1.14, written by Peter Selinger 2001-2017
</metadata>
<g transform="translate(0.000000,256.000000) scale(0.100000,-0.100000)"
fill="#000000" stroke="none">
<path d="M1025 2450 c-447 -101 -784 -428 -907 -880 -26 -95 -36 -374 -18
-490 15 -93 51 -209 95 -306 l34 -74 596 0 c675 0 674 0 831 75 165 79 305
237 368 412 26 73 46 198 46 285 l0 48 -490 0 c-544 0 -505 6 -475 -68 9 -20
26 -47 38 -60 48 -51 53 -52 402 -52 l327 0 -7 -33 c-32 -145 -143 -290 -275
-357 -129 -65 -113 -64 -702 -68 l-536 -3 -22 57 c-53 142 -73 332 -51 485 67
466 458 833 924 866 l87 6 0 88 0 89 -92 -1 c-51 0 -129 -9 -173 -19z"/>
<path d="M1052 1841 c-232 -57 -435 -242 -516 -468 -26 -73 -46 -198 -46 -285
l0 -48 425 0 c457 0 453 0 502 52 24 25 53 88 53 113 0 13 -46 15 -391 15
l-391 0 7 33 c32 145 143 290 275 357 129 65 113 64 702 68 l536 3 22 -57 c53
-142 73 -332 51 -485 -67 -466 -458 -833 -923 -866 l-88 -6 0 -90 0 -90 113 6
c437 20 854 332 1015 760 56 149 72 241 72 419 0 215 -25 337 -106 516 l-33
72 -603 -1 c-545 0 -610 -2 -676 -18z"/>
</g>
</svg>
