<?xml version="1.0" standalone="no"?>
<!DOCTYPE svg PUBLIC "-//W3C//DTD SVG 20010904//EN"
 "http://www.w3.org/TR/2001/REC-SVG-20010904/DTD/svg10.dtd">
<svg version="1.0" xmlns="http://www.w3.org/2000/svg"
 width="404.000000pt" height="404.000000pt" viewBox="0 0 404.000000 404.000000"
 preserveAspectRatio="xMidYMid meet">
<metadata>
Created by potrace 1.11, written by Peter Selinger 2001-2013
</metadata>
<g transform="translate(0.000000,404.000000) scale(0.100000,-0.100000)"
fill="#000000" stroke="none">
<path d="M840 3193 c-383 -37 -592 -148 -706 -375 -108 -215 -159 -649 -124
-1063 45 -526 190 -758 540 -858 141 -41 247 -52 480 -51 391 1 587 58 740
214 131 134 195 288 237 568 24 165 24 619 0 783 -42 287 -128 480 -264 598
-106 92 -293 158 -507 180 -101 10 -313 12 -396 4z m323 -490 c132 -51 182
-154 208 -431 15 -159 6 -515 -15 -634 -44 -242 -128 -321 -341 -322 -154 -1
-257 54 -303 162 -47 109 -57 205 -57 542 0 337 10 433 57 542 36 83 116 140
228 162 45 8 180 -4 223 -21z"/>
<path d="M3035 3179 c-38 -5 -110 -20 -160 -34 -327 -91 -484 -286 -557 -695
-26 -147 -36 -540 -18 -717 20 -203 63 -371 128 -499 108 -215 316 -337 636
-375 130 -15 505 -6 654 15 114 17 301 61 314 74 6 6 -36 440 -44 447 -2 2
-50 -1 -108 -7 -58 -5 -240 -10 -405 -11 -297 -2 -301 -2 -353 22 -147 66
-187 199 -186 626 0 423 39 548 189 617 50 23 52 23 435 21 l386 -2 22 222
c12 122 18 225 14 228 -8 8 -181 43 -292 59 -99 15 -566 21 -655 9z"/>
</g>
</svg>
