<?xml version="1.0" standalone="no"?>
<!DOCTYPE svg PUBLIC "-//W3C//DTD SVG 20010904//EN"
 "http://www.w3.org/TR/2001/REC-SVG-20010904/DTD/svg10.dtd">
<svg version="1.0" xmlns="http://www.w3.org/2000/svg"
 width="700.000000pt" height="700.000000pt" viewBox="0 0 700.000000 700.000000"
 preserveAspectRatio="xMidYMid meet">
<metadata>
Created by potrace 1.11, written by Peter Selinger 2001-2013
</metadata>
<g transform="translate(0.000000,700.000000) scale(0.100000,-0.100000)"
fill="#000000" stroke="none">
<path d="M2380 6993 c-84 -14 -161 -49 -230 -103 -121 -94 -178 -212 -185
-380 -13 -312 196 -541 500 -549 286 -7 505 201 520 494 8 157 -39 289 -139
391 -101 102 -198 143 -351 149 -49 1 -101 1 -115 -2z"/>
<path d="M4378 6984 c-195 -46 -336 -198 -375 -403 -7 -39 -7 -152 0 -191 13
-69 16 -80 37 -127 63 -144 193 -253 342 -288 86 -20 227 -14 303 14 159 57
278 186 320 347 18 71 21 211 5 279 -40 167 -164 301 -329 358 -72 24 -225 30
-303 11z"/>
<path d="M3225 5260 c-196 -22 -294 -39 -450 -80 -160 -42 -178 -48 -304 -96
-137 -53 -317 -142 -432 -214 -75 -48 -226 -154 -239 -169 -3 -3 -26 -23 -52
-43 -63 -52 -201 -188 -275 -273 -217 -251 -395 -578 -491 -901 -32 -108 -78
-309 -88 -389 -3 -27 -8 -59 -10 -70 -18 -92 -25 -465 -11 -630 28 -350 119
-678 273 -987 304 -612 839 -1062 1514 -1273 89 -28 183 -53 220 -59 8 -2 29
-6 45 -9 17 -4 46 -9 65 -12 34 -5 84 -14 124 -21 104 -19 515 -26 646 -11 79
8 146 17 180 23 14 2 41 7 60 10 143 22 396 97 559 166 402 170 705 397 999
748 207 248 423 691 486 1000 29 139 45 225 51 275 4 33 9 71 11 85 7 55 16
230 16 310 1 634 -178 1180 -541 1654 -87 114 -262 293 -371 381 -41 33 -77
63 -80 66 -13 16 -226 152 -305 195 -88 49 -111 60 -209 104 -65 29 -226 91
-250 96 -11 2 -40 10 -65 18 -52 17 -206 57 -236 61 -11 1 -51 8 -90 15 -38 6
-90 14 -115 16 -25 3 -56 8 -70 11 -41 9 -489 11 -565 3z m490 -1304 c312 -56
561 -185 753 -391 193 -207 309 -472 338 -770 5 -57 6 -284 1 -293 -3 -4 -8
-36 -11 -71 -19 -183 -100 -402 -211 -570 -192 -291 -538 -504 -892 -549 -75
-9 -332 -9 -403 0 -132 18 -287 66 -408 127 -447 226 -705 662 -706 1196 -1
208 20 338 80 505 149 416 512 720 959 804 44 8 89 17 100 19 28 5 364 0 400
-7z"/>
</g>
</svg>
