<svg version="1" xmlns="http://www.w3.org/2000/svg" width="1456" height="1456" viewBox="0 0 1092.000000 1092.000000"><path d="M508.8 63.5c-.1.1-4.9.6-10.6 1-5.6.3-11.2.8-12.5 1-1.2.2-4.9.6-8.2 1-7.9.9-11.1 1.3-22.5 3.2-5.2.8-11.1 1.7-13 2-1.9.3-11.6 2.5-21.5 5s-18.4 4.6-19 4.7c-3.6.8-21 6.5-31.5 10.2-58.1 20.8-112 52.9-160.4 95.4-10.1 8.9-34.4 33.8-44.5 45.5-44.7 52.2-77.7 112.2-97.1 176.9-2.3 7.4-4.3 14.2-4.5 15.3-.2 1-1.5 6.3-2.9 11.8-1.4 5.5-3.8 17.2-5.5 26-4.1 21.8-4.7 27.8-5.7 54.5l-.6 18.5 2.9-4c1.7-2.2 5.7-6.5 9-9.5 6.1-5.5 19.2-14 21.6-14 .6 0 2.3-.6 3.7-1.3 3.8-2 17.6-5.5 24.6-6.3 5.9-.6 6.2-.8 6.8-3.8 1.9-10.3 3.5-19.6 4-23.1 2.7-17.4 12.3-51.1 21.1-74 10.2-26.6 31.9-68.2 43.8-84 .4-.6 3.9-5.5 7.8-11 33.4-46.8 79.5-88.4 131.6-118.6 28.8-16.8 74.8-35.5 104.3-42.5.8-.2 4.2-1 7.6-1.8 11.4-2.8 41.5-8 52.4-9 21.2-2.1 50.6-2.6 72-1.3 13.8.8 38.8 3.8 44 5.2.8.2 3.1.6 5 .9 7.3 1.1 33.4 7.2 42.5 10 12 3.6 22.9 7.4 38 13.3 11.7 4.5 44.6 20.7 55.4 27.2 4.6 2.8 8.7 5.1 9.1 5.1.4 0 1.5.9 2.5 2s2.2 2 2.7 2c1.2 0 14.4 9.2 27.2 18.9 30.8 23.2 60.4 53.2 84.1 85.1 7.6 10.2 22.5 32.5 22.5 33.5 0 .3 1.1 2.4 2.6 4.6 11.3 18 26.8 52.1 35.4 77.8 4 12.2 9.9 32.7 10.5 36.6.2 1.1.6 3.1 1 4.5 1.1 4.8 3.8 18.6 5 26.4.4 2.1.8 4.7 1 5.7.2 1 .7 4.9 1 8.6.4 3.7.8 7.5 1 8.3 1.8 7.3 2.6 55 1.2 73.5-.9 12.9-3.6 34.8-5.1 42.1-.2 1.2-.7 3.7-1 5.5-.3 1.9-1.9 9.5-3.6 16.9-18.8 82.6-63.7 159.1-127.5 217-40.7 37-88.8 65.7-142.3 84.9-7.7 2.8-15.2 5.2-16.6 5.5-1.4.3-2.9.7-3.4 1-3.4 2.1-44.8 11.2-59.7 13.1-6.7.8-11.4 1.5-15 2-17.9 2.5-70 2.5-89 0-1.6-.2-5.2-.7-8-1-7.3-.9-22.6-3.2-25.5-3.9-1.4-.3-3.6-.8-5-1-2.2-.4-18.9-4.1-23-5.1-15.7-4-40-12.3-57.3-19.7-61.8-26.2-115-65.4-157.7-115.8-3-3.6-5.8-6.7-6.1-7-1.1-.9-17.6-23.5-22.7-31.1-13-19.4-29.8-50.5-37.1-68.4-1.8-4.4-3.9-9.4-4.6-11.1-5.6-12.2-15.2-44.7-20.5-68.9-4.5-20.6-5-23.8-5.1-33 0-10.6 1.3-14.2 5.9-16.3 3.3-1.5 13.4-1.7 101.7-1.8 53.9-.2 98.5-.3 99-.3 1.4-.1 1.4-67.1 0-67.2-.5 0-44.9-.1-98.5-.1-87.2 0-98.5.2-107.4 1.7-17.2 2.9-28.8 8-40.3 17.5-25 20.7-33.2 54-24.2 98.5 1.2 5.5 2.3 10.9 2.5 12 .2 1.1.9 4.5 1.5 7.5 4.5 22.9 17.9 64.9 27.6 87 .9 1.9 2.4 5.5 3.5 8 4.3 9.7 14.2 29.5 18.9 37.7 2.7 4.7 4.9 8.7 4.9 8.9 0 .8 15.3 24.5 22.7 35.1 21.2 30.5 51.8 64.4 79.3 87.8 5.8 5 11.1 9.6 11.9 10.3 3.5 3.4 32.8 24.5 43 31.2 29.4 19 63.1 35.9 95.1 47.7 10.5 3.8 29.4 10.1 32.5 10.8 1.1.2 7 1.8 13 3.5 10.1 2.8 34.8 8.1 43.8 9.4 7.9 1.2 11.3 1.7 13.5 2.1 1.3.2 5.3.7 9 1.1 3.7.3 7.6.8 8.7 1 9.8 1.9 65.7 2.6 84 1.1 5.5-.5 11.8-1 14-1.1 3.7-.3 11.5-1.3 17.5-2.1 1.4-.2 4.5-.7 7-1 2.5-.3 8.1-1.3 12.5-2.1s9.6-1.7 11.5-2c6-1 37-9 48-12.4 43.5-13.5 91-36.5 128-61.8 18.4-12.6 31.7-23 50.9-39.6 8.5-7.4 36.6-36 45.2-46.1 45.3-53.1 77.4-111.6 97.5-178 3-9.8 3-9.9 3.8-13.4.3-1.3 1-3.8 1.5-5.5 1.6-5 7.9-35.4 9.1-44.1.6-4.4 1.3-9.1 1.5-10.5.8-4.7 2.4-19.5 3.2-28 1-11.2 1-65 0-76.5-.5-5-1-11-1.2-13.5-.2-2.5-.6-5.9-.9-7.5-.3-1.7-.8-5.3-1.1-8-.3-2.8-1-7.3-1.5-10-.6-2.8-1.2-6.8-1.6-9-.3-2.2-1.7-9.2-3-15.5-1.4-6.3-2.7-12.3-2.9-13.2-3.3-15.3-13.7-47.7-22-68.3-9.5-23.6-25.9-56-37-73-12.1-18.7-15.2-23.4-21-31.2-3.6-4.8-7.1-9.5-7.8-10.3-.7-.8-2.8-3.5-4.7-6-23.4-30.4-65.2-70.1-98.5-93.6-8.5-6-27.5-18.4-28.1-18.4-.4 0-1.5-.6-2.3-1.4-.9-.7-4.1-2.7-7.1-4.4-3-1.6-8.4-4.7-12-6.7-34.7-19.8-94-41.8-132-48.9-1.4-.3-6.1-1.2-10.5-2-4.4-.9-9.7-1.8-11.9-2.2-2.1-.3-4.7-.7-5.8-.9-1.1-.3-4.6-.7-7.7-1-3.1-.4-6.3-.8-7.1-1-.8-.2-5.1-.7-9.5-1-4.4-.4-9.6-.9-11.5-1.2-4-.5-62.6-1.3-63.2-.8z"/><path d="M400.7 501.6c-.4.5-11.8 3.6-17.7 4.9-10 2.3-39.5 10.7-40 11.4-.3.6-.5 13.3-.3 28.3.1 15 .2 29.8.3 32.8v5.5l5.3 1.3c2.8.7 5.9 1.5 6.8 1.7 1 .2 7.7 1.9 15 3.9 7.4 1.9 17.9 4.7 23.4 6.1l10 2.6L518 600c62.9 0 114.6-.3 114.8-.5.4-.3.4-9.1.3-74.3l-.1-24.3-115.9.1c-63.7.1-116.1.3-116.4.6zM642.7 523.8c-.2.4-.3 12.6-.3 27.2l.1 26.5 78.3.3 78.2.2.1-2.7c0-1.6.1-13.9.2-27.6l.2-24.7h-78.2c-43 0-78.4.4-78.6.8zM809 550.5V578h2.9c2.2 0 3.9-1.3 7.8-5.8l5-5.7 6 .5c5.8.5 6.3.7 10.8 5.7 6.5 7.3 8.2 7.1 18.7-1.4 4.6-3.7 10.8-8.7 13.8-11.1 6.9-5.5 8-6.9 8-10.3 0-2.2-2.4-4.5-15.2-14.8-10.8-8.5-16.1-12.1-17.9-12.1-1.9 0-4.1 1.6-8.1 5.9l-5.4 5.9-5.5-.3c-5.1-.3-5.6-.6-10.4-5.9-3.8-4.2-5.7-5.6-7.8-5.6H809v27.5z"/></svg>