<?xml version="1.0" standalone="no"?>
<!DOCTYPE svg PUBLIC "-//W3C//DTD SVG 20010904//EN"
 "http://www.w3.org/TR/2001/REC-SVG-20010904/DTD/svg10.dtd">
<svg version="1.0" xmlns="http://www.w3.org/2000/svg"
 width="256.000000pt" height="256.000000pt" viewBox="0 0 256.000000 256.000000"
 preserveAspectRatio="xMidYMid meet">
<metadata>
Created by potrace 1.14, written by Peter Selinger 2001-2017
</metadata>
<g transform="translate(0.000000,256.000000) scale(0.100000,-0.100000)"
fill="#000000" stroke="none">
<path d="M379 2545 c-177 -48 -310 -182 -363 -364 -14 -47 -16 -160 -16 -895
0 -912 0 -900 56 -1013 37 -75 142 -180 217 -217 113 -56 102 -55 1003 -56
575 0 849 3 885 11 188 39 347 198 387 384 8 33 11 330 12 885 0 908 1 889
-56 1008 -27 55 -119 163 -159 184 -12 7 -38 22 -56 32 -19 11 -63 27 -99 37
-60 16 -134 18 -915 17 -655 0 -861 -3 -896 -13z"/>
</g>
</svg>
