<?xml version="1.0" standalone="no"?>
<!DOCTYPE svg PUBLIC "-//W3C//DTD SVG 20010904//EN"
 "http://www.w3.org/TR/2001/REC-SVG-20010904/DTD/svg10.dtd">
<svg version="1.0" xmlns="http://www.w3.org/2000/svg"
 width="1200.000000pt" height="1200.000000pt" viewBox="0 0 1200.000000 1200.000000"
 preserveAspectRatio="xMidYMid meet">
<metadata>
Created by potrace 1.11, written by Peter Selinger 2001-2013
</metadata>
<g transform="translate(0.000000,1200.000000) scale(0.100000,-0.100000)"
fill="#000000" stroke="none">
<path d="M5580 11997 c-3 -3 -39 -8 -80 -11 -80 -8 -119 -12 -190 -21 -25 -4
-61 -9 -80 -11 -82 -11 -348 -56 -380 -64 -19 -5 -51 -12 -70 -15 -176 -30
-737 -190 -875 -250 -16 -7 -55 -22 -85 -33 -223 -81 -638 -281 -860 -416 -25
-15 -53 -29 -62 -33 -10 -3 -18 -9 -18 -14 0 -5 -5 -9 -10 -9 -31 0 -483 -318
-665 -469 -120 -99 -125 -104 -161 -136 -18 -16 -64 -58 -101 -92 -373 -337
-738 -776 -1025 -1234 -261 -416 -513 -960 -648 -1399 -17 -58 -38 -124 -46
-147 -7 -23 -16 -52 -18 -65 -3 -13 -21 -86 -41 -163 -19 -77 -38 -153 -41
-170 -3 -16 -11 -57 -19 -90 -15 -67 -55 -301 -60 -355 -2 -19 -7 -55 -10 -80
-12 -92 -14 -107 -22 -190 -10 -106 -11 -910 -1 -1005 10 -98 39 -315 53 -396
21 -126 47 -272 55 -309 27 -122 111 -462 126 -510 75 -246 162 -496 199 -577
8 -17 15 -37 15 -45 0 -8 4 -18 8 -24 5 -5 24 -45 42 -89 70 -167 291 -605
326 -646 8 -8 14 -19 14 -22 0 -16 165 -272 278 -430 74 -104 239 -316 301
-387 12 -14 32 -36 43 -50 239 -285 646 -656 988 -899 63 -45 123 -89 133 -97
9 -8 20 -14 23 -14 4 0 27 -15 53 -33 185 -132 696 -405 933 -498 29 -11 69
-27 88 -36 63 -27 74 -31 190 -73 63 -23 131 -48 150 -55 202 -74 740 -211
975 -248 17 -3 57 -10 90 -16 33 -6 80 -13 105 -16 25 -3 56 -7 70 -10 14 -3
41 -7 60 -9 19 -2 60 -7 90 -10 30 -4 73 -9 95 -12 67 -11 829 -13 932 -3 54
5 127 11 163 15 66 6 105 11 150 19 14 2 47 7 75 10 27 3 57 7 65 9 8 3 37 7
63 11 26 3 71 10 100 16 29 6 66 13 82 16 17 3 80 16 140 30 61 13 119 26 130
28 112 23 588 170 680 210 17 7 57 23 90 36 232 88 629 284 824 406 20 13 43
26 51 30 27 12 323 209 424 282 299 216 585 467 885 776 138 141 188 196 295
325 133 159 329 424 402 543 16 27 41 67 56 90 271 425 506 974 659 1537 7 25
14 50 15 55 2 6 6 24 9 40 3 17 10 44 15 60 15 49 78 372 95 485 9 58 17 116
20 130 2 14 6 50 10 80 3 30 8 71 10 90 14 124 24 231 31 340 7 119 15 620 9
620 -3 0 -49 -42 -102 -92 -53 -51 -121 -117 -152 -147 -597 -571 -2622 -2583
-2830 -2811 -58 -63 -145 -160 -195 -215 -191 -209 -368 -384 -497 -490 -70
-58 -243 -175 -258 -175 -5 0 -11 -4 -13 -9 -5 -15 -208 -107 -308 -141 -92
-30 -198 -56 -269 -66 -19 -2 -48 -7 -65 -10 -50 -10 -345 -12 -421 -3 -159
19 -259 40 -372 80 -183 65 -373 173 -499 284 -328 289 -521 658 -571 1090
-13 113 -6 386 12 474 29 141 41 190 66 266 84 256 249 502 450 671 80 68 90
75 163 124 233 155 478 241 776 269 85 8 302 6 370 -3 25 -4 63 -9 85 -12 22
-3 69 -12 105 -20 36 -9 76 -18 89 -20 56 -11 213 -70 307 -114 209 -100 400
-256 522 -428 12 -17 22 -36 22 -42 0 -5 3 -10 8 -10 4 0 16 -18 26 -40 11
-22 22 -40 25 -40 22 1 452 412 1026 981 253 251 500 494 549 540 163 153 332
328 351 363 l19 35 -29 32 c-17 17 -77 71 -135 120 -58 49 -265 252 -460 451
-709 722 -1170 1180 -1459 1448 -63 58 -119 110 -126 117 -10 10 -154 -131
-683 -665 -368 -372 -893 -902 -1166 -1177 -274 -275 -590 -596 -704 -714
-482 -500 -596 -599 -835 -730 -103 -57 -320 -142 -397 -156 -46 -9 -71 -14
-88 -19 -119 -34 -426 -40 -607 -11 -105 17 -281 65 -350 95 -11 5 -45 19 -75
32 -91 38 -211 106 -303 172 -369 263 -598 639 -662 1084 -13 94 -14 377 0
447 50 269 106 428 219 619 213 361 557 634 935 741 160 45 263 58 471 59 261
1 352 -12 550 -77 93 -30 282 -121 288 -138 2 -5 8 -9 13 -9 9 0 116 -74 129
-89 3 -3 38 -35 78 -70 64 -56 212 -218 307 -337 l31 -38 103 100 c57 54 139
134 183 176 666 638 2375 2347 2933 2933 32 33 109 113 171 177 63 65 114 120
114 123 0 6 -226 115 -405 195 -11 5 -60 25 -108 45 -48 20 -100 41 -115 47
-15 6 -31 12 -37 14 -5 2 -66 24 -134 49 -127 46 -358 121 -466 150 -146 39
-434 106 -510 118 -79 13 -162 27 -185 32 -14 3 -43 8 -65 10 -22 3 -71 9
-110 15 -38 5 -97 12 -130 16 -33 3 -69 9 -80 12 -24 6 -929 15 -935 9z"/>
</g>
</svg>
