<?xml version="1.0" standalone="no"?>
<!DOCTYPE svg PUBLIC "-//W3C//DTD SVG 20010904//EN"
 "http://www.w3.org/TR/2001/REC-SVG-20010904/DTD/svg10.dtd">
<svg version="1.0" xmlns="http://www.w3.org/2000/svg"
 width="1000.000000pt" height="1000.000000pt" viewBox="0 0 1000.000000 1000.000000"
 preserveAspectRatio="xMidYMid meet">
<metadata>
Created by potrace 1.14, written by Peter Selinger 2001-2017
</metadata>
<g transform="translate(0.000000,1000.000000) scale(0.100000,-0.100000)"
fill="#000000" stroke="none">
<path d="M1970 4995 l0 -3035 590 0 590 0 0 1220 0 1220 635 0 635 0 0 -1220
0 -1220 590 0 590 0 0 1220 0 1220 630 0 630 0 0 -1220 0 -1220 589 0 588 0 5
1517 c3 835 3 2201 0 3036 l-5 1517 -588 0 -589 0 0 -1220 0 -1220 -630 0
-630 0 0 1220 0 1220 -590 0 -590 0 0 -1220 0 -1220 -635 0 -635 0 0 1220 0
1220 -590 0 -590 0 0 -3035z"/>
</g>
</svg>
