<svg xmlns="http://www.w3.org/2000/svg" viewBox="0 0 262.39 47.35"><defs><style>.cls-1,.cls-3{fill:#ffabd7;}.cls-2{fill:#8eff8c;}.cls-2,.cls-3,.cls-4{opacity:0.8;}.cls-4{fill:#fff5a6;}.cls-5{fill:#5cbfcc;opacity:0.75;}</style></defs><g id="Layer_2" data-name="Layer 2"><g id="Layer_1-2" data-name="Layer 1"><path class="cls-1" d="M11,20.54H26.81V4.25h11V46.46h-11V29.05H11V46.46H0V4.25H11Z"/><path class="cls-1" d="M96.32,26.19V46.46H86.19V26.19H82.83V17.74h3.36V9.12H96.32v8.62h5.77v8.45Z"/><path class="cls-1" d="M117.82,46.46h-11V4.25h17.47q7.11,0,10.88,3.7T139,18.36q0,6.72-3.78,10.41t-10.88,3.69h-6.49Zm0-22.84h3.63q6,0,6-5.26t-6-5.26h-3.63Z"/><path class="cls-1" d="M165.33,17.74h10.19V46.46H165.33V43.27a10.62,10.62,0,0,1-8.78,4.08,14.19,14.19,0,0,1-5.77-1.15A13.9,13.9,0,0,1,146.19,43a14.93,14.93,0,0,1-3.05-4.88,16.54,16.54,0,0,1-1.09-6.1,16.09,16.09,0,0,1,1.06-5.84,15.15,15.15,0,0,1,3-4.85,13.77,13.77,0,0,1,10.36-4.47,11.68,11.68,0,0,1,8.89,3.75ZM152.57,32a6.75,6.75,0,0,0,1.88,4.71,6.18,6.18,0,0,0,2.07,1.39,6.59,6.59,0,0,0,2.6.51,6.49,6.49,0,0,0,2.55-.51,6.18,6.18,0,0,0,2.07-1.39,7.31,7.31,0,0,0,1.4-2.08,6.08,6.08,0,0,0,.53-2.51,6.3,6.3,0,0,0-.53-2.55,7.28,7.28,0,0,0-1.4-2.1,6.36,6.36,0,0,0-2.07-1.4,6.66,6.66,0,0,0-2.55-.5,6.77,6.77,0,0,0-2.6.5,6.36,6.36,0,0,0-2.07,1.4,6.84,6.84,0,0,0-1.37,2A6.09,6.09,0,0,0,152.57,32Z"/><path class="cls-1" d="M193.71,26.19V46.46H183.58V26.19h-3.36V17.74h3.36V9.12h10.13v8.62h5.77v8.45Z"/><path class="cls-1" d="M224.94,27a9.37,9.37,0,0,0-5.31-1.79,7.16,7.16,0,0,0-2.72.51,6.6,6.6,0,0,0-3.7,3.61,7.27,7.27,0,0,0-.53,2.82,7.12,7.12,0,0,0,.53,2.77,6.89,6.89,0,0,0,1.46,2.19,6.36,6.36,0,0,0,2.21,1.42,7.39,7.39,0,0,0,2.75.51,8.39,8.39,0,0,0,5.31-2v8.62a18,18,0,0,1-7.11,1.62,16.78,16.78,0,0,1-6-1.06,15.3,15.3,0,0,1-5-3,15,15,0,0,1-3.44-4.76,14.5,14.5,0,0,1-1.29-6.19,15.51,15.51,0,0,1,1.23-6.24,15,15,0,0,1,3.36-4.87A15.34,15.34,0,0,1,211.82,18a17.18,17.18,0,0,1,6.29-1.14,15.1,15.1,0,0,1,6.83,1.56Z"/><path class="cls-1" d="M232.1,0h10.14V21.38A11.15,11.15,0,0,1,246.43,18a13.31,13.31,0,0,1,5-.86c3.62,0,6.36,1,8.2,3a11.44,11.44,0,0,1,2.78,8.09V46.46H252.25V32a15.3,15.3,0,0,0-.33-3.53,4.21,4.21,0,0,0-1.12-2.07,4.79,4.79,0,0,0-3.25-1.17,5,5,0,0,0-3.94,1.54,6.35,6.35,0,0,0-1.37,4.39V46.46H232.1Z"/><circle class="cls-2" cx="52.96" cy="39.05" r="7.4"/><circle class="cls-3" cx="67.77" cy="39.05" r="7.4"/><rect class="cls-4" x="52.96" y="31.65" width="14.8" height="14.8"/><circle class="cls-5" cx="67.77" cy="24.25" r="7.4"/><rect class="cls-2" x="60.37" y="24.25" width="14.8" height="14.8"/><circle class="cls-4" cx="52.96" cy="24.25" r="7.4"/><rect class="cls-5" x="45.56" y="24.25" width="14.8" height="14.8"/><rect class="cls-3" x="52.96" y="16.85" width="14.8" height="14.8"/></g></g></svg>