<svg width="129" height="44" viewBox="0 0 129 44" fill="none" xmlns="http://www.w3.org/2000/svg">
<path d="M21.3665 36.191L21.9829 41.8175C19.5175 42.6664 16.3262 43.0908 12.409 43.0908C7.86178 43.0908 4.6568 41.9957 2.79408 39.805C0.931362 37.6147 -8.21655e-07 33.8224 0 28.4286C1.09554e-06 23.0346 0.931364 19.2423 2.79408 17.0519C4.6568 14.8614 7.86181 13.7662 12.409 13.7662C15.8605 13.7662 18.8464 14.1085 21.3665 14.793L20.7913 20.4608C17.9972 20.3786 15.2031 20.3376 12.409 20.3376C10.7107 20.3376 9.56017 20.8989 8.95751 22.0215C8.38227 23.1167 8.09464 25.2524 8.09464 28.4286C8.09464 31.6045 8.38227 33.7539 8.95751 34.8768C9.56017 35.9718 10.7107 36.5193 12.409 36.5193C16.381 36.5193 19.3669 36.4099 21.3665 36.191Z" fill="#101010"/>
<path d="M36.7725 13.6841C40.0049 13.6841 42.5113 14.1222 44.2918 14.9984C46.0726 15.8472 47.3872 17.3394 48.2366 19.4751C49.0856 21.5834 49.5104 24.5679 49.5104 28.4286C49.5104 32.2893 49.0856 35.2873 48.2366 37.423C47.3872 39.5314 46.0726 41.0236 44.2918 41.8997C42.5113 42.7486 40.0049 43.173 36.7725 43.173C32.0061 43.173 28.6915 42.1461 26.8289 40.0927C24.9935 38.0118 24.0759 34.1235 24.0759 28.4286C24.0759 22.7334 24.9935 18.859 26.8289 16.8055C28.6915 14.7246 32.0061 13.6841 36.7725 13.6841ZM40.4295 21.4054C39.7995 20.2007 38.5805 19.5983 36.7725 19.5983C34.9646 19.5983 33.7456 20.2007 33.1156 21.4054C32.4854 22.6102 32.1704 24.9512 32.1704 28.4286C32.1704 31.9059 32.4854 34.247 33.1156 35.4515C33.7456 36.6563 34.9646 37.2588 36.7725 37.2588C38.5805 37.2588 39.7995 36.6563 40.4295 35.4515C41.0597 34.247 41.3746 31.9059 41.3746 28.4286C41.3746 24.9512 41.0597 22.6102 40.4295 21.4054Z" fill="#101010"/>
<path d="M100.897 36.191L101.514 41.8178C99.0483 42.6664 95.857 43.0908 91.9396 43.0908C87.3926 43.0908 84.1876 41.9957 82.3249 39.805C80.4619 37.6147 79.5307 33.8224 79.5307 28.4286C79.5307 23.0346 80.4619 19.2424 82.3249 17.0519C84.1876 14.8615 87.3926 13.7662 91.9396 13.7662C95.3911 13.7663 98.377 14.1085 100.897 14.793L100.322 20.4608C97.528 20.3787 94.7338 20.3376 91.9396 20.3376C90.2413 20.3376 89.0909 20.8989 88.4881 22.0215C87.913 23.1167 87.6254 25.2524 87.6254 28.4286C87.6254 31.6045 87.913 33.7539 88.4881 34.8768C89.0909 35.9718 90.2413 36.5196 91.9396 36.5196C95.9118 36.5196 98.8974 36.4099 100.897 36.191Z" fill="#101010"/>
<path d="M128.785 14.2591V42.5979H121.06V29.6617L112.595 31.8534V42.5979H104.912V14.2591H112.595V25.4398L121.06 23.248V14.2591H128.785Z" fill="#101010"/>
<path fill-rule="evenodd" clip-rule="evenodd" d="M58.4864 42.5979H50.5972L58.3632 16.2716C58.5001 15.6692 58.8014 15.19 59.267 14.8341C59.7603 14.4508 60.3218 14.2591 60.9517 14.2591H68.1015C68.7314 14.2591 69.2792 14.4508 69.745 14.8341C70.238 15.19 70.5667 15.6692 70.731 16.2716L78.456 42.5979H70.5667L68.5043 34.3952L59.9372 36.7971L58.4864 42.5979ZM65.1019 20.0501C65.1566 20.5977 65.3347 21.5834 65.6359 23.0072L67.0834 28.827L61.6093 30.2768L63.4172 23.0072C63.6089 22.0762 63.8006 21.0905 63.9924 20.0501H65.1019Z" fill="#101010"/>
<path d="M68.7169 0C69.9683 0 70.8365 0.30206 71.3213 0.906175C71.814 1.51029 72.0605 2.6126 72.0605 4.21313C72.0605 5.81363 71.814 6.91597 71.3213 7.52009C70.8365 8.12418 69.9683 8.42624 68.7169 8.42624C67.4732 8.42624 66.6049 8.12418 66.1122 7.52009C65.6272 6.91597 65.3848 5.81363 65.3848 4.21313C65.3848 2.6126 65.6272 1.51029 66.1122 0.906175C66.6049 0.30206 67.4732 0 68.7169 0ZM68.7169 1.25923C68.0363 1.25923 67.5671 1.47106 67.3088 1.89473C67.0585 2.31055 66.9336 3.08335 66.9336 4.21313C66.9336 5.34291 67.0585 6.11962 67.3088 6.54329C67.5671 6.95911 68.0363 7.16701 68.7169 7.16701C69.4052 7.16701 69.8743 6.95911 70.1246 6.54329C70.3826 6.11962 70.5119 5.34291 70.5119 4.21313C70.5119 3.08335 70.3826 2.31055 70.1246 1.89473C69.8743 1.47106 69.4052 1.25923 68.7169 1.25923Z" fill="#101010"/>
<path d="M81.4087 0.152985V5.09576C81.4087 6.31184 81.1819 7.17094 80.7284 7.67306C80.2746 8.17519 79.4926 8.42623 78.3817 8.42623C77.2243 8.42623 76.407 8.17519 75.9299 7.67306C75.4605 7.17094 75.2258 6.31184 75.2258 5.09576V0.152985H76.6924V5.09576C76.6924 5.87247 76.8096 6.41384 77.0444 6.7198C77.2868 7.01796 77.7132 7.16701 78.3231 7.16701C78.9254 7.16701 79.3439 7.01796 79.5786 6.7198C79.8131 6.41384 79.9306 5.87247 79.9306 5.09576V0.152985H81.4087Z" fill="#101010"/>
<path d="M90.6526 1.41222H88.1537V8.27325H86.6753V1.41222H84.1999V0.152985H90.6526V1.41222Z" fill="#101010"/>
<path d="M93.501 8.27326V0.152998C94.5728 0.0823867 95.5817 0.0470822 96.528 0.0470822C97.7561 0.0470822 98.6126 0.349139 99.0973 0.953257C99.5901 1.55737 99.8366 2.64399 99.8366 4.21314C99.8366 5.78226 99.5901 6.86889 99.0973 7.47301C98.6126 8.07713 97.7561 8.37919 96.528 8.37919C95.5817 8.37919 94.5728 8.34388 93.501 8.27326ZM94.9677 1.28278V7.11994C95.5776 7.13564 96.0977 7.14348 96.528 7.14348C97.2007 7.14348 97.6622 6.93558 97.9125 6.51975C98.1628 6.09609 98.288 5.32722 98.288 4.21314C98.288 3.09906 98.1587 2.33017 97.9007 1.90651C97.6504 1.48284 97.193 1.27101 96.528 1.27101C96.3169 1.27101 96.0391 1.27493 95.6951 1.28278C95.3588 1.28278 95.1161 1.28278 94.9677 1.28278Z" fill="#101010"/>
<path d="M106.124 0C107.375 0 108.243 0.30206 108.729 0.906175C109.221 1.51029 109.467 2.6126 109.467 4.21313C109.467 5.81363 109.221 6.91597 108.729 7.52009C108.243 8.12418 107.375 8.42624 106.124 8.42624C104.88 8.42624 104.012 8.12418 103.519 7.52009C103.034 6.91597 102.792 5.81363 102.792 4.21313C102.792 2.6126 103.034 1.51029 103.519 0.906175C104.012 0.30206 104.88 0 106.124 0ZM106.124 1.25923C105.443 1.25923 104.974 1.47106 104.716 1.89473C104.466 2.31055 104.341 3.08335 104.341 4.21313C104.341 5.34291 104.466 6.11962 104.716 6.54329C104.974 6.95911 105.443 7.16701 106.124 7.16701C106.812 7.16701 107.281 6.95911 107.532 6.54329C107.79 6.11962 107.919 5.34291 107.919 4.21313C107.919 3.08335 107.79 2.31055 107.532 1.89473C107.281 1.47106 106.812 1.25923 106.124 1.25923Z" fill="#101010"/>
<path d="M115.742 0C116.993 0 117.862 0.30206 118.347 0.906175C118.839 1.51029 119.086 2.6126 119.086 4.21313C119.086 5.81363 118.839 6.91597 118.347 7.52009C117.862 8.12418 116.993 8.42624 115.742 8.42624C114.498 8.42624 113.63 8.12418 113.138 7.52009C112.652 6.91597 112.41 5.81363 112.41 4.21313C112.41 2.6126 112.652 1.51029 113.138 0.906175C113.63 0.30206 114.498 0 115.742 0ZM115.742 1.25923C115.062 1.25923 114.592 1.47106 114.334 1.89473C114.084 2.31055 113.959 3.08335 113.959 4.21313C113.959 5.34291 114.084 6.11962 114.334 6.54329C114.592 6.95911 115.062 7.16701 115.742 7.16701C116.43 7.16701 116.9 6.95911 117.15 6.54329C117.408 6.11962 117.537 5.34291 117.537 4.21313C117.537 3.08335 117.408 2.31055 117.15 1.89473C116.9 1.47106 116.43 1.25923 115.742 1.25923Z" fill="#101010"/>
<path d="M128.364 8.27326H126.803L126.158 5.75481C126.009 5.26837 125.697 5.02516 125.219 5.02516L123.765 5.01339V8.27326H122.31V0.152998C123.006 0.0823867 123.987 0.0470822 125.254 0.0470822C126.279 0.0470822 127.003 0.219686 127.425 0.564896C127.855 0.902261 128.07 1.52207 128.07 2.42432C128.07 3.05198 127.953 3.53449 127.718 3.87183C127.484 4.20137 127.096 4.40143 126.557 4.47205V4.53087C126.792 4.58579 127.01 4.71133 127.214 4.90748C127.417 5.10361 127.558 5.3782 127.636 5.73127L128.364 8.27326ZM123.765 3.81301H125.219C125.743 3.80515 126.099 3.71101 126.287 3.53056C126.483 3.3501 126.58 3.01273 126.58 2.51848C126.58 2.02419 126.483 1.69075 126.287 1.51815C126.099 1.34554 125.743 1.25924 125.219 1.25924H123.765V3.81301Z" fill="#101010"/>
</svg>
