<?xml version="1.0" encoding="iso-8859-1"?>
<!-- Generator: Adobe Illustrator 21.1.0, SVG Export Plug-In . SVG Version: 6.00 Build 0)  -->
<svg version="1.1" id="Layer_1" xmlns="http://www.w3.org/2000/svg" xmlns:xlink="http://www.w3.org/1999/xlink" x="0px" y="0px"
	 viewBox="0 0 100.355 100.352" style="enable-background:new 0 0 100.355 100.352;" xml:space="preserve">
<g>
	<path d="M73.035,35.124c0.701-1.014,0.973-2.36,0.742-3.702c-0.237-1.385-0.965-2.568-2.046-3.33
		c-2.245-1.589-5.536-1.123-7.034,0.992L23.421,87.471c-0.478,0.677-0.317,1.612,0.359,2.091l5.956,4.214
		c0.255,0.181,0.558,0.275,0.866,0.275c0.084,0,0.169-0.007,0.253-0.021c0.392-0.067,0.742-0.288,0.971-0.612l41.171-58.239
		C73.01,35.163,73.022,35.144,73.035,35.124z M30.244,90.46l-3.507-2.481l29.139-41.22l3.509,2.481L30.244,90.46z M70.56,33.428
		c-0.014,0.02-0.027,0.04-0.04,0.06L61.116,46.79l-3.509-2.481l9.425-13.333l0.109-0.152c0.492-0.695,1.878-0.977,2.859-0.281
		c0.576,0.406,0.761,1.043,0.819,1.386C70.917,32.491,70.817,33.066,70.56,33.428z"/>
	<path d="M42.537,19.508c2.407-0.415,4.834,0.135,6.831,1.545c1.997,1.411,3.324,3.515,3.737,5.922
		c0.119,0.694,0.701,1.18,1.372,1.228c0.215,0.118,0.449,0.202,0.705,0.202c0.085,0,0.17-0.007,0.256-0.022
		c0.816-0.141,1.364-0.916,1.225-1.732c-0.854-4.973,2.498-9.715,7.475-10.571c0.024-0.004,0.046-0.014,0.069-0.019
		c0.068-0.011,0.136-0.015,0.204-0.026c0.816-0.14,1.364-0.916,1.225-1.732c-0.141-0.815-0.913-1.362-1.732-1.225
		c-2.407,0.414-4.834-0.135-6.831-1.547c-1.997-1.412-3.324-3.516-3.737-5.924c-0.118-0.689-0.688-1.18-1.356-1.236
		c-0.287-0.158-0.624-0.229-0.975-0.171c-0.816,0.14-1.365,0.916-1.225,1.732c0.414,2.409-0.136,4.835-1.547,6.832
		s-3.517,3.324-5.926,3.736c-0.037,0.006-0.071,0.021-0.107,0.03c-0.057,0.009-0.114,0.011-0.17,0.021
		c-0.816,0.141-1.364,0.917-1.224,1.733C40.944,19.1,41.722,19.648,42.537,19.508z M50.68,14.496
		c0.767-1.085,1.331-2.268,1.705-3.503c0.796,1.143,1.782,2.158,2.953,2.987c0.912,0.644,1.894,1.145,2.916,1.513
		c-1.994,1.547-3.46,3.689-4.194,6.108c-0.798-1.147-1.787-2.167-2.962-2.997c-0.908-0.642-1.886-1.138-2.904-1.506
		C49.135,16.368,49.973,15.496,50.68,14.496z"/>
	<path d="M88.01,67.306c-0.14-0.815-0.912-1.36-1.732-1.225c-4.374,0.756-8.569-2.205-9.322-6.596
		c-0.115-0.679-0.67-1.163-1.325-1.231c-0.281-0.147-0.608-0.211-0.946-0.154c-0.816,0.141-1.364,0.916-1.225,1.732
		c0.365,2.126-0.12,4.267-1.365,6.028c-1.245,1.761-3.102,2.932-5.229,3.296c-0.03,0.005-0.057,0.017-0.087,0.024
		c-0.053,0.008-0.105,0.01-0.158,0.019c-0.817,0.14-1.365,0.915-1.226,1.731c0.14,0.817,0.925,1.369,1.731,1.226
		c4.394-0.756,8.573,2.203,9.325,6.589c0.116,0.681,0.68,1.158,1.336,1.222c0.209,0.109,0.435,0.187,0.68,0.187
		c0.084,0,0.17-0.007,0.256-0.021c0.816-0.141,1.364-0.916,1.225-1.732c-0.753-4.386,2.203-8.567,6.591-9.323
		c0.02-0.003,0.037-0.011,0.056-0.016c0.064-0.01,0.127-0.013,0.191-0.024C87.602,68.899,88.149,68.123,88.01,67.306z
		 M77.398,73.552c-1.254-1.694-2.967-2.995-4.925-3.754c0.776-0.631,1.476-1.366,2.069-2.205c0.638-0.902,1.13-1.877,1.47-2.896
		c1.253,1.69,2.963,2.991,4.917,3.749C79.297,69.778,78.066,71.551,77.398,73.552z"/>
	<path d="M26.853,44.823c0.02-0.003,0.037-0.012,0.057-0.016c0.05-0.008,0.101-0.011,0.151-0.019
		c0.817-0.14,1.365-0.916,1.225-1.732c-0.141-0.817-0.921-1.365-1.732-1.225c-1.721,0.296-3.458-0.098-4.885-1.107
		c-1.427-1.01-2.376-2.514-2.671-4.236c-0.113-0.659-0.64-1.136-1.268-1.225c-0.276-0.138-0.595-0.196-0.923-0.139
		c-0.816,0.141-1.364,0.917-1.223,1.733c0.297,1.723-0.096,3.459-1.104,4.887c-1.009,1.428-2.514,2.377-4.238,2.673
		c-0.023,0.004-0.043,0.013-0.065,0.018c-0.048,0.007-0.095,0.009-0.142,0.017c-0.816,0.14-1.365,0.916-1.225,1.732
		c0.14,0.817,0.917,1.365,1.732,1.225c3.56-0.613,6.948,1.787,7.559,5.344c0.113,0.658,0.646,1.121,1.273,1.21
		c0.203,0.101,0.42,0.173,0.656,0.173c0.084,0,0.17-0.007,0.255-0.021c0.816-0.14,1.365-0.916,1.225-1.732
		c-0.296-1.723,0.097-3.459,1.106-4.887C23.625,46.067,25.13,45.118,26.853,44.823z M20.167,45.764
		c-0.464,0.656-0.827,1.36-1.109,2.09c-0.968-1.189-2.207-2.129-3.606-2.741c0.546-0.484,1.046-1.027,1.478-1.638
		c0.463-0.655,0.826-1.357,1.107-2.086c0.544,0.669,1.177,1.272,1.9,1.784c0.543,0.384,1.124,0.683,1.72,0.943
		C21.106,44.602,20.601,45.148,20.167,45.764z"/>
</g>
</svg>
