<svg id="Слой_2" data-name="Слой 2" xmlns="http://www.w3.org/2000/svg" viewBox="0 0 101 101"><title>hhhArtboard 2 copy 10 копия 11</title><path d="M24.46,43.25A10.75,10.75,0,0,1,39.66,28,7.62,7.62,0,1,0,50.45,17.26,26,26,0,0,0,13.68,54L55.55,95.9a7.62,7.62,0,0,0,10.78,0h0a7.62,7.62,0,0,0,0-10.78ZM44,67V80.11l-13-13V54ZM15.8,19.38a23,23,0,0,1,32.53,0,4.63,4.63,0,0,1-6.54,6.54A13.75,13.75,0,0,0,22.34,45.37L28,51V64.11L15.8,51.91A23,23,0,0,1,15.8,19.38ZM64.21,93.78h0a4.62,4.62,0,0,1-6.54,0L47,83.11V70L64.21,87.24a4.62,4.62,0,0,1,0,6.54Z"/><path d="M94.7,28.53A8.08,8.08,0,1,0,83.28,40l3.56,3.56a4.69,4.69,0,0,1-6.64,6.64l-2.74-2.74A10.4,10.4,0,1,0,62.76,62.12l5.2,5.2a1.5,1.5,0,1,0,2.12-2.12L64.88,60A7.4,7.4,0,1,1,75.34,49.53l2.74,2.74A7.69,7.69,0,1,0,89,41.39L85.4,37.83a5.08,5.08,0,0,1,7.18-7.18,1.5,1.5,0,0,0,2.12-2.12Z"/><circle cx="64.5" cy="9.5" r="2.5"/><circle cx="72.5" cy="22.5" r="2.5"/><circle cx="84.5" cy="72.5" r="2.5"/></svg>