<?xml version="1.0" encoding="UTF-8"?> <svg xmlns="http://www.w3.org/2000/svg" id="Слой_2" data-name="Слой 2" viewBox="0 0 100 100"> <title>Монтажная область 20</title> <path d="M76.88,49.92A1.5,1.5,0,0,0,75.5,49H58.23l10-40.62A1.5,1.5,0,0,0,65.7,7L23.44,49.44A1.5,1.5,0,0,0,24.5,52H41.77l-10,40.62A1.5,1.5,0,0,0,34.3,94L76.56,51.56A1.5,1.5,0,0,0,76.88,49.92ZM36,88.09l9.16-37.23A1.5,1.5,0,0,0,43.69,49H28.11L64,12.91,54.86,50.14A1.5,1.5,0,0,0,56.31,52H71.89Z"></path> <path d="M71.06,68.94a1.5,1.5,0,0,0-2.12,2.12l12,12a1.5,1.5,0,0,0,2.12-2.12Z"></path> <path d="M28,30.5a1.5,1.5,0,0,0,1.06-2.56l-12-12a1.5,1.5,0,0,0-2.12,2.12l12,12A1.5,1.5,0,0,0,28,30.5Z"></path> <path d="M68.44,29.56a1.5,1.5,0,0,0,2.12,0l12-12a1.5,1.5,0,0,0-2.12-2.12l-12,12A1.5,1.5,0,0,0,68.44,29.56Z"></path> <path d="M27.44,69.44l-12,12a1.5,1.5,0,1,0,2.12,2.12l12-12a1.5,1.5,0,0,0-2.12-2.12Z"></path> <circle cx="18.5" cy="62.5" r="2.5"></circle> <circle cx="9.5" cy="55.5" r="2.5"></circle> <circle cx="89.5" cy="42.5" r="2.5"></circle> <circle cx="31.5" cy="17.5" r="2.5"></circle> </svg> 