<?xml version="1.0" encoding="UTF-8"?> <svg xmlns="http://www.w3.org/2000/svg" id="Слой_2" data-name="Слой 2" viewBox="0 0 100 100"> <title>Монтажная область 21</title> <path d="M64.82,40.86a4.9,4.9,0,0,0-1.82.35v-.47a5.38,5.38,0,0,0-5.37-5.37h-.25a5.3,5.3,0,0,0-2.48.64,5.38,5.38,0,0,0-5.26-4.29,5.78,5.78,0,0,0-2.63.63V24.59h9.5a1.5,1.5,0,0,0,1.5-1.5V8.5A1.5,1.5,0,0,0,56.5,7h-31A1.5,1.5,0,0,0,24,8.5V23.09a1.5,1.5,0,0,0,1.5,1.5H36v36.7l-8.79-7.2a9.24,9.24,0,0,0-12.43.52,1.5,1.5,0,0,0-.12,2L36,83.89V96.5a1.5,1.5,0,0,0,3,0V83.37a1.5,1.5,0,0,0-.32-.92L17.92,55.89a6.24,6.24,0,0,1,7.37.49l11.26,9.23A1.5,1.5,0,0,0,39,64.46V19.61a2.38,2.38,0,0,1,2.37-2.37h.25A2.38,2.38,0,0,1,44,19.61V51.5a1.5,1.5,0,0,0,3,0V37a2.53,2.53,0,0,1,2.63-2.27A2.38,2.38,0,0,1,52,37.1v3.4s0,.08,0,.12,0,.08,0,.12V51.5a1.5,1.5,0,0,0,3,0V40.75a2.38,2.38,0,0,1,2.37-2.37h.25A2.38,2.38,0,0,1,60,40.75V51.5a1.5,1.5,0,0,0,3,0V46a1.89,1.89,0,0,1,1.82-2.14A2.18,2.18,0,0,1,67,46V71.89a15.47,15.47,0,0,1-4.56,11A1.5,1.5,0,0,0,62,84V95.5a1.5,1.5,0,0,0,3,0V84.57a18.44,18.44,0,0,0,5-12.68V46A5.18,5.18,0,0,0,64.82,40.86ZM41.63,14.23h-.25A5.38,5.38,0,0,0,36,19.61v2H27V10H55V21.59H47v-2A5.38,5.38,0,0,0,41.63,14.23Z"></path> <path d="M79.5,13h-15a1.5,1.5,0,0,0,0,3h15a1.5,1.5,0,0,0,0-3Z"></path> <path d="M64.67,22a1.5,1.5,0,0,0-2.12,2.12L75.92,37.52A1.5,1.5,0,0,0,78,35.4Z"></path> <path d="M21.06,26.94a1.5,1.5,0,0,0-2.12,0l-10,10a1.5,1.5,0,1,0,2.12,2.12l10-10A1.5,1.5,0,0,0,21.06,26.94Z"></path> </svg> 