<?xml version="1.0" encoding="UTF-8"?> <svg xmlns="http://www.w3.org/2000/svg" id="Слой_2" data-name="Слой 2" viewBox="0 0 100 100"> <title>Монтажная область 9</title> <path d="M37.23,32.37l-2.45,14.3A1.5,1.5,0,0,0,37,48.24L49.8,41.49l12.84,6.75a1.5,1.5,0,0,0,2.18-1.58l-2.45-14.3L72.75,22.24a1.5,1.5,0,0,0-.83-2.56L57.56,17.6l-6.42-13a1.5,1.5,0,0,0-2.69,0L42,17.6,27.68,19.68a1.5,1.5,0,0,0-.83,2.56Zm6-11.92a1.5,1.5,0,0,0,1.13-.82l5.42-11,5.42,11a1.5,1.5,0,0,0,1.13.82l12.13,1.76L59.7,30.77a1.5,1.5,0,0,0-.43,1.33l2.07,12.08L50.5,38.47a1.5,1.5,0,0,0-1.4,0l-10.85,5.7L40.32,32.1a1.5,1.5,0,0,0-.43-1.33l-8.78-8.55Z"></path> <path d="M85,45a1.5,1.5,0,0,0,0-.34l0-.07a1.5,1.5,0,0,0-.1-.25l-.05-.09a1.48,1.48,0,0,0-.15-.2l-.06-.07a1.49,1.49,0,0,0-.27-.22h0L71.6,35.85A1.5,1.5,0,1,0,70,38.4l10.41,6.46L40.74,64.7,19.18,45.39,29.47,40.5a1.5,1.5,0,0,0-1.29-2.71L15.86,43.65a1.49,1.49,0,0,0-.3.2l-.07.06a1.48,1.48,0,0,0-.21.24l0,.06a1.5,1.5,0,0,0-.16.34l0,.08a1.49,1.49,0,0,0,0,.32s0,0,0,.05V75.2a1.5,1.5,0,0,0,.53,1.15l24,21.3,0,0a1.49,1.49,0,0,0,.4.23l.06,0a1.48,1.48,0,0,0,.47.08,1.5,1.5,0,0,0,.32,0l.07,0,.23-.08h0l43-21.3A1.5,1.5,0,0,0,85,75.2V45ZM18,48.36,39,67.17v26.1L18,74.5ZM82,74.25,42,94.13V67.43l40-20Z"></path> </svg> 