<svg width="28px" height="28px" viewBox="0 0 28 28" version="1.1" xmlns="http://www.w3.org/2000/svg" xmlns:xlink="http://www.w3.org/1999/xlink">
    <defs>
        <path d="M25,22 L3,22 L3,8 L12,8 C12,9.103 12.897,10 14,10 C15.103,10 16,9.103 16,8 L25,8 L25,22 Z M13,6 C13,5.4485 13.4485,5 14,5 C14.5515,5 15,5.4485 15,6 L15,8 C15,8.5515 14.5515,9 14,9 C13.4485,9 13,8.5515 13,8 L13,6 Z M16,6 L27,6 L27,24 L1,24 L1,6 L12,6 C12,4.897 12.897,4 14,4 C15.103,4 16,4.897 16,6 Z M6,13.5 C6,13.776 6.224,14 6.5,14 L19.5,14 C19.776,14 20,13.776 20,13.5 C20,13.224 19.776,13 19.5,13 L6.5,13 C6.224,13 6,13.224 6,13.5 Z M16.5,17 L6.5,17 C6.224,17 6,17.224 6,17.5 C6,17.776 6.224,18 6.5,18 L16.5,18 C16.776,18 17,17.776 17,17.5 C17,17.224 16.776,17 16.5,17 Z" id="path-1"></path>
    </defs>
    <g id="Icons" stroke="none" stroke-width="1" fill="none" fill-rule="evenodd">
        <g id="Icons/standard/ico-Name-">
            <mask id="mask-2" fill="white">
                <use xlink:href="#path-1"></use>
            </mask>
            <use id="ico-Name" fill="#67717e" xlink:href="#path-1"></use>
            <g id="Icons/🚫colours/none" mask="url(#mask-2)"></g>
        </g>
    </g>
</svg>