<svg width="28px" height="28px" viewBox="0 0 28 28" version="1.1" xmlns="http://www.w3.org/2000/svg" xmlns:xlink="http://www.w3.org/1999/xlink">
    <defs>
        <path d="M6.64626328,5.0946 L5.23176328,6.5086 C4.47676328,7.2641 4.06026328,8.2686 4.06026328,9.3371 C4.06026328,10.4056 4.47676328,11.4101 5.23176328,12.1656 L15.1312633,22.0651 C16.6912633,23.6251 19.2287633,23.6246 20.7882633,22.0651 L22.2022633,20.6511 L19.1042633,17.5526 L14.8612633,18.9666 L8.33076328,12.4356 L9.74476328,8.1931 L6.64626328,5.0946 Z M17.9597633,25.2341 C16.4232633,25.2341 14.8867633,24.6491 13.7172633,23.4796 L3.81776328,13.5796 C1.47876328,11.2406 1.47876328,7.4341 3.81776328,5.0946 L6.64626328,2.2661 L12.0327633,7.6531 L10.6187633,11.8956 L15.4012633,16.6786 L19.6442633,15.2641 L25.0312633,20.6511 L22.2022633,23.4796 C21.0327633,24.6491 19.4962633,25.2341 17.9597633,25.2341 Z" id="path-1"></path>
    </defs>
    <g id="Icons" stroke="none" stroke-width="1" fill="none" fill-rule="evenodd">
        <g id="Icons/standard/ico-Phone">
            <mask id="mask-2" fill="white">
                <use xlink:href="#path-1"></use>
            </mask>
            <use id="ico-Phone" fill="#67717e" xlink:href="#path-1"></use>
            <g id="Icons/🚫colours/none" mask="url(#mask-2)"></g>
        </g>
    </g>
</svg>