<svg xmlns="http://www.w3.org/2000/svg" xmlns:xlink="http://www.w3.org/1999/xlink" width="22" height="22" viewBox="0 0 22 22">
    <defs>
        <path id="a" d="M13.263 14.453a.393.393 0 0 0-.205-.759c-.486.131-1.255.21-2.058.21-.803 0-1.573-.079-2.058-.21a.393.393 0 0 0-.205.759c.557.15 1.382.237 2.263.237s1.706-.087 2.263-.237zm-1.576-2.8a.39.39 0 0 0 .095-.309l-.392-3.143a.393.393 0 1 0-.78.097L10.948 11h-.341a.393.393 0 0 0 0 .786h.786c.112 0 .22-.049.294-.133zm2.456-3.796a.786.786 0 1 0 0 1.572.786.786 0 0 0 0-1.572zm-6.286 0a.786.786 0 1 0 0 1.572.786.786 0 0 0 0-1.572zm10.99 13.492l-3.814-.864a1.769 1.769 0 0 1-1.363-1.721c0-.66.365-1.26.952-1.565.671-.348 1.285-.812 1.935-1.46a7.812 7.812 0 0 0 2.3-5.542 7.809 7.809 0 0 0-2.3-5.543 7.837 7.837 0 0 0-2.499-1.68 7.935 7.935 0 0 0-6.117 0 7.84 7.84 0 0 0-2.498 1.68 7.802 7.802 0 0 0-2.3 5.543 7.8 7.8 0 0 0 2.301 5.543c.648.647 1.263 1.11 1.935 1.46a1.765 1.765 0 0 1-.398 3.282l-3.828.867-.348-1.532 3.815-.865a.194.194 0 0 0 .034-.358c-.817-.424-1.555-.978-2.32-1.742a9.373 9.373 0 0 1-2.763-6.655 9.377 9.377 0 0 1 2.762-6.655A9.408 9.408 0 0 1 7.33 1.525a9.514 9.514 0 0 1 7.34 0 9.401 9.401 0 0 1 2.996 2.017 9.378 9.378 0 0 1 2.762 6.655c0 1.27-.249 2.503-.74 3.664a9.381 9.381 0 0 1-2.021 2.991c-.766.764-1.503 1.318-2.32 1.742a.192.192 0 0 0-.105.17c0 .09.062.17.151.191l3.802.862-.347 1.532z"/>
    </defs>
    <g fill="none" fill-rule="evenodd">
        <g>
            <mask id="b" fill="#fff">
                <use xlink:href="#a"/>
            </mask>
            <use fill="#67717e" xlink:href="#a"/>
            <g fill="none" fill-rule="nonzero" mask="url(#b)">
                <path d="M0 0h22v22H0z"/>
            </g>
        </g>
    </g>
</svg>
