<svg xmlns="http://www.w3.org/2000/svg" xmlns:xlink="http://www.w3.org/1999/xlink" width="28" height="28" viewBox="0 0 28 28">
    <defs>
        <path id="a" d="M13 20a1 1 0 1 1 2 0 1 1 0 0 1-2 0zm-4 0a1 1 0 1 1 2 0 1 1 0 0 1-2 0zm-4 0a1 1 0 1 1 2 0 1 1 0 0 1-2 0zm16-4a1 1 0 1 1 2 0 1 1 0 0 1-2 0zm-4 0a1 1 0 1 1 2 0 1 1 0 0 1-2 0zm-4 0a1 1 0 1 1 2 0 1 1 0 0 1-2 0zm-4 0a1 1 0 1 1 2 0 1 1 0 0 1-2 0zm-4 0a1 1 0 1 1 2 0 1 1 0 0 1-2 0zm16-4a1 1 0 1 1 2 0 1 1 0 0 1-2 0zm-4 0a1 1 0 1 1 2 0 1 1 0 0 1-2 0zm-4 0a1 1 0 1 1 2 0 1 1 0 0 1-2 0zM3 8h22V6H3v2zm0 15h22V9H3v14zM9 2c1.103 0 2 .897 2 2H7c0-1.103.897-2 2-2zm10 0c1.103 0 2 .897 2 2h-4c0-1.103.897-2 2-2zm3 2c0-1.654-1.346-3-3-3s-3 1.346-3 3h-4c0-1.654-1.345-3-3-3-1.654 0-3 1.346-3 3H1v21h26V4h-5z"/>
    </defs>
    <g fill="none" fill-rule="evenodd">
        <mask id="b" fill="#fff">
            <use xlink:href="#a"/>
        </mask>
        <use fill="#67717e" xlink:href="#a"/>
    </g>
</svg>
