<svg width="70" height="70" viewBox="0 0 70 70" fill="none">
<path d="M35 70C54.3 70 70 54.3 70 35C70 15.7 54.3 0 35 0C15.7 0 0 15.7 0 35C0 54.3 15.7 70 35 70ZM35 4C52.09 4 66 17.91 66 35C66 52.09 52.09 66 35 66C17.91 66 4 52.09 4 35C4 17.91 17.91 4 35 4Z" fill="#5CBCE0"/>
<path d="M33.04 35.35C33.05 35.41 33.07 35.47 33.09 35.53C33.11 35.59 33.12 35.66 33.15 35.72C33.17 35.78 33.21 35.84 33.24 35.9C33.27 35.96 33.3 36.01 33.33 36.06C33.37 36.12 33.42 36.18 33.46 36.24C33.49 36.27 33.51 36.31 33.54 36.35L45.64 49.55C46.03 49.98 46.57 50.2 47.11 50.2C47.59 50.2 48.08 50.03 48.46 49.67C49.27 48.92 49.33 47.66 48.58 46.84L37 34.22V13C37 11.9 36.1 11 35 11C33.9 11 33 11.9 33 13V35C33 35.05 33.01 35.09 33.01 35.13C33.02 35.21 33.02 35.28 33.04 35.35Z" fill="#5CBCE0"/>
</svg>
