<?xml version="1.0" encoding="UTF-8"?>
<svg width="72px" height="57px" viewBox="0 0 72 57" version="1.1" xmlns="http://www.w3.org/2000/svg" xmlns:xlink="http://www.w3.org/1999/xlink">
    <!-- Generator: Sketch 61 (89581) - https://sketch.com -->
    <title>noun_message_1636770</title>
    <desc>Created with Sketch.</desc>
    <g id="Page-1" stroke="none" stroke-width="1" fill="none" fill-rule="evenodd">
        <g id="noun_message_1636770" fill="#000000" fill-rule="nonzero">
            <path d="M3.74302457,56.1788504 C3.390067,56.1788504 3.04408486,56.0484096 2.77483257,55.8007813 C2.37862714,55.436663 2.22237714,54.8800223 2.36886157,54.3617467 L6.046317,41.3469587 C2.08705357,37.0793806 0,32.0982143 0,26.8931361 C0,12.5955636 16.0212054,0.964006714 35.7142857,0.964006714 C55.407366,0.964006714 71.4285714,12.5955636 71.4285714,26.8931361 C71.4285714,41.1823381 55.407366,52.8069196 35.7142857,52.8069196 C30.3013393,52.8069196 24.8925781,51.9015066 20.0362723,50.1862443 L4.24246643,56.0881696 C4.08063614,56.1495536 3.91183043,56.1788504 3.74302457,56.1788504 Z M35.7142857,3.82114957 C17.5962611,3.82114957 2.85714286,14.171317 2.85714286,26.8931361 C2.85714286,31.5799386 4.86328129,36.0944476 8.65931914,39.9476841 C9.02064729,40.3131976 9.157366,40.844029 9.016462,41.3385881 L5.88448657,52.4246651 L19.5284599,47.3263113 C19.8493304,47.205636 20.202288,47.2070311 20.5203683,47.3235211 C25.1925223,49.0415737 30.4464286,49.9497769 35.7142857,49.9497769 C53.8323103,49.9497769 68.5714286,39.6065849 68.5714286,26.8931363 C68.5714286,14.171317 53.8323103,3.82114957 35.7142857,3.82114957 Z" id="Shape"></path>
            <g id="Group" transform="translate(12.857143, 15.714286)">
                <path d="M43.6607143,2.95689171 L2.05357143,2.95689171 C1.26395086,2.95689171 0.625,2.31724329 0.625,1.52832029 C0.625,0.739397286 1.26395086,0.0997488571 2.05357143,0.0997488571 L43.6607143,0.0997488571 C44.4503349,0.0997488571 45.0892857,0.739397286 45.0892857,1.52832029 C45.0892857,2.31724329 44.4503349,2.95689171 43.6607143,2.95689171 Z" id="Path"></path>
                <path d="M43.6607143,12.5997489 L2.05357143,12.5997489 C1.26395086,12.5997489 0.625,11.9601004 0.625,11.1711774 C0.625,10.3822544 1.26395086,9.742606 2.05357143,9.742606 L43.6607143,9.742606 C44.4503349,9.742606 45.0892857,10.3822544 45.0892857,11.1711774 C45.0892857,11.9601004 44.4503349,12.5997489 43.6607143,12.5997489 Z" id="Path"></path>
                <path d="M43.6607143,22.242606 L2.05357143,22.242606 C1.26395086,22.242606 0.625,21.6029576 0.625,20.8140346 C0.625,20.0251116 1.26395086,19.3854631 2.05357143,19.3854631 L43.6607143,19.3854631 C44.4503349,19.3854631 45.0892857,20.0251116 45.0892857,20.8140346 C45.0892857,21.6029576 44.4503349,22.242606 43.6607143,22.242606 Z" id="Path"></path>
            </g>
        </g>
    </g>
</svg>